<?xml version="1.0" encoding="UTF-8" standalone="no"?>
<svg
   xmlns:dc="http://purl.org/dc/elements/1.1/"
   xmlns:cc="http://creativecommons.org/ns#"
   xmlns:rdf="http://www.w3.org/1999/02/22-rdf-syntax-ns#"
   xmlns:svg="http://www.w3.org/2000/svg"
   xmlns="http://www.w3.org/2000/svg"
   xmlns:xlink="http://www.w3.org/1999/xlink"
   xmlns:sodipodi="http://sodipodi.sourceforge.net/DTD/sodipodi-0.dtd"
   xmlns:inkscape="http://www.inkscape.org/namespaces/inkscape"
   width="667.68726"
   height="252.84999"
   version="1"
   viewBox="0 0 667.68726 252.84999"
   id="svg708"
   sodipodi:docname="EM_Spectrum_Properties_edit.svg"
   inkscape:version="1.0.1 (3bc2e813f5, 2020-09-07, custom)">
  <metadata
     id="metadata712">
    <rdf:RDF>
      <cc:Work
         rdf:about="">
        <dc:format>image/svg+xml</dc:format>
        <dc:type
           rdf:resource="http://purl.org/dc/dcmitype/StillImage" />
        <dc:title></dc:title>
      </cc:Work>
    </rdf:RDF>
  </metadata>
  <sodipodi:namedview
     pagecolor="#ffffff"
     bordercolor="#666666"
     borderopacity="1"
     objecttolerance="10"
     gridtolerance="10"
     guidetolerance="10"
     inkscape:pageopacity="0"
     inkscape:pageshadow="2"
     inkscape:window-width="1588"
     inkscape:window-height="1750"
     id="namedview710"
     showgrid="false"
     fit-margin-top="0"
     fit-margin-left="0"
     fit-margin-right="0"
     fit-margin-bottom="0"
     inkscape:zoom="0.95172918"
     inkscape:cx="328.06097"
     inkscape:cy="292.18531"
     inkscape:window-x="1600"
     inkscape:window-y="38"
     inkscape:window-maximized="0"
     inkscape:current-layer="svg708" />
  <defs
     id="defs61">
    <linearGradient
       id="b">
      <stop
         offset="0"
         id="stop2" />
      <stop
         offset=".234"
         stop-color="#000908"
         id="stop4" />
      <stop
         offset=".436"
         stop-color="#fe1211"
         id="stop6" />
      <stop
         offset=".499"
         stop-color="#ffbd08"
         id="stop8" />
      <stop
         offset=".516"
         stop-color="#fbe339"
         id="stop10" />
      <stop
         offset=".547"
         stop-color="#eef681"
         id="stop12" />
      <stop
         offset=".611"
         stop-color="#c0f8ba"
         id="stop14" />
      <stop
         offset=".726"
         stop-color="#c0f8ba"
         id="stop16" />
      <stop
         offset=".77"
         stop-color="#9ffded"
         id="stop18" />
      <stop
         offset=".93"
         stop-color="#65f0f7"
         id="stop20" />
      <stop
         offset="1"
         stop-color="#68dbfd"
         id="stop22" />
    </linearGradient>
    <linearGradient
       id="a">
      <stop
         offset="0"
         id="stop25" />
      <stop
         offset=".34"
         id="stop27" />
      <stop
         offset=".461"
         stop-color="red"
         id="stop29" />
      <stop
         offset=".477"
         stop-color="#ff6100"
         id="stop31" />
      <stop
         offset=".495"
         stop-color="#ffe000"
         id="stop33" />
      <stop
         offset=".509"
         stop-color="#0f0"
         id="stop35" />
      <stop
         offset=".529"
         stop-color="#007c9e"
         id="stop37" />
      <stop
         offset=".554"
         stop-color="#000071"
         id="stop39" />
      <stop
         offset=".571"
         stop-color="#830087"
         id="stop41" />
      <stop
         offset=".586"
         stop-color="#ff37c3"
         id="stop43" />
      <stop
         offset=".714"
         id="stop45" />
      <stop
         offset="1"
         id="stop47" />
    </linearGradient>
    <linearGradient
       id="l"
       gradientUnits="userSpaceOnUse"
       x1="24"
       x2="551"
       xlink:href="#a"
       gradientTransform="matrix(1.0444467,0,0,1,-15.111165,35.499983)"
       y1="212.5"
       y2="212.5" />
    <filter
       id="d"
       width="2.3069999"
       y="-0.653"
       x="-0.653"
       height="2.3069999">
      <feGaussianBlur
         stdDeviation="1.361"
         id="feGaussianBlur51" />
    </filter>
    <filter
       id="f">
      <feGaussianBlur
         stdDeviation="2.087"
         id="feGaussianBlur54" />
    </filter>
    <filter
       id="g">
      <feGaussianBlur
         stdDeviation=".719"
         id="feGaussianBlur57" />
    </filter>
    <linearGradient
       xlink:href="#b"
       id="c"
       x1="111.828"
       y1="332.22101"
       x2="648.328"
       y2="332.22101"
       gradientUnits="userSpaceOnUse" />
  </defs>
  <path
     d="m 124.21736,12.381795 c 0.88,0.352 1.76,0.717 2.638,1.094 0.88,0.378 1.76,0.768 2.638,1.17 0.88,0.404 1.76,0.82 2.64,1.248 0.878,0.43 1.757,0.87 2.637,1.326 0.88,0.46 1.76,0.93 2.638,1.41 0.88,0.48 1.76,0.98 2.64,1.48 0.88,0.51 1.76,1.03 2.64,1.56 0.88,0.53 1.76,1.08 2.64,1.63 0.88,0.56 1.76,1.12 2.64,1.7 0.88,0.58 1.76,1.17 2.64,1.76 0.88,0.6 1.76,1.21 2.64,1.82 0.88,0.62 1.76,1.24 2.64,1.87 0.88,0.63 1.76,1.26 2.64,1.9 l 2.64,1.92 c 0.88,0.64 1.76,1.29 2.64,1.93 0.88,0.64 1.76,1.28 2.64,1.91 0.88,0.64 1.76,1.26 2.64,1.88 0.88,0.62 1.76,1.23 2.64,1.83 0.88,0.6 1.76,1.18 2.64,1.75 0.88,0.57 1.76,1.11 2.64,1.63 0.88,0.52 1.76,1.02 2.64,1.49 0.88,0.47 1.76,0.91 2.64,1.32 0.88,0.41 1.76,0.78 2.64,1.12 0.88,0.34 1.76,0.63 2.64,0.88 0.88,0.25 1.76,0.45 2.64,0.61 0.88,0.15 1.76,0.25 2.64,0.3 0.88,0.04 1.76,0.03 2.64,-0.04 0.88,-0.07 1.76,-0.21 2.64,-0.41 0.88,-0.2 1.76,-0.47 2.64,-0.81 0.88,-0.34 1.76,-0.74 2.64,-1.22 0.88,-0.48 1.76,-1.03 2.64,-1.65 0.88,-0.62 1.76,-1.31 2.64,-2.07 0.88,-0.76 1.76,-1.59 2.64,-2.49 0.88,-0.9 1.76,-1.87 2.64,-2.89 0.88,-1.03 1.76,-2.12 2.64,-3.26 0.88,-1.14 1.76,-2.34 2.64,-3.57 0.88,-1.24 1.76,-2.52 2.64,-3.83 0.88,-1.3 1.76,-2.64 2.64,-3.99 0.88,-1.35 1.76,-2.71 2.64,-4.06 0.88,-1.35 1.76,-2.7 2.64,-4.01 0.88,-1.32 1.76,-2.6 2.64,-3.84 0.88,-1.24 1.76,-2.42 2.64,-3.5300002 0.88,-1.11 1.76,-2.14 2.64,-3.07 0.88,-0.93 1.76,-1.76 2.64,-2.47 0.88,-0.71 1.76,-1.3 2.64,-1.74 0.88,-0.44 1.76,-0.74 2.64,-0.88 0.88,-0.14000004 1.76,-0.12000004 2.64,0.08 0.88,0.2 1.76,0.56 2.64,1.1 0.88,0.54 1.76,1.26 2.64,2.15 0.88,0.89 1.76,1.95 2.64,3.18 0.88,1.22 1.76,2.6000002 2.64,4.1200002 0.88,1.52 1.76,3.17 2.64,4.93 0.88,1.76 1.76,3.61 2.64,5.53 0.88,1.91 1.76,3.88 2.64,5.86 0.88,1.97 1.76,3.95 2.64,5.87 0.88,1.92 1.76,3.78 2.64,5.53 0.88,1.75 1.76,3.37 2.64,4.82 0.88,1.44 1.76,2.71 2.64,3.74 0.88,1.03 1.76,1.82 2.64,2.33 0.88,0.51 1.76,0.74 2.64,0.66 0.88,-0.08 1.76,-0.47 2.64,-1.17 0.88,-0.71 1.76,-1.72 2.64,-3.03 0.88,-1.31 1.76,-2.91 2.64,-4.76 0.88,-1.85 1.76,-3.94 2.64,-6.2 0.88,-2.26 1.76,-4.69 2.64,-7.19 0.88,-2.5 1.76,-5.06 2.64,-7.57 0.88,-2.51 1.76,-4.97 2.64,-7.26 0.88,-2.29 1.76,-4.3900002 2.64,-6.2000002 0.88,-1.81 1.76,-3.32 2.64,-4.43 0.88,-1.11 1.76,-1.83 2.64,-2.08 0.88,-0.25000004 1.76,-0.04 2.64,0.66 0.88,0.69 1.76,1.87 2.64,3.48 0.88,1.61 1.76,3.66 2.64,6.0400002 0.88,2.39 1.76,5.11 2.64,8 0.88,2.9 1.76,5.98 2.64,9.03 0.88,3.06 1.76,6.09 2.64,8.89 0.88,2.8 1.76,5.36 2.64,7.48 0.88,2.12 1.76,3.8 2.64,4.89 0.88,1.09 1.76,1.59 2.64,1.41 0.88,-0.17 1.76,-1.01 2.64,-2.49 0.88,-1.47 1.76,-3.59 2.63,-6.2 0.88,-2.61 1.76,-5.72 2.64,-9.07 0.88,-3.35 1.76,-6.96 2.64,-10.49 0.88,-3.54 1.76,-7.01 2.64,-10.08 0.88,-3.0700002 1.76,-5.7400002 2.64,-7.7200002 0.88,-1.99 1.76,-3.28 2.64,-3.72 0.88,-0.45000004 1.76,-0.03 2.64,1.25 0.88,1.28 1.76,3.42 2.64,6.23 0.88,2.8100002 1.76,6.3000002 2.64,10.1100002 0.88,3.81 1.76,7.93 2.64,11.91 0.88,3.98 1.76,7.81 2.64,11.01 0.88,3.21 1.76,5.79 2.64,7.4 0.88,1.61 1.76,2.23 2.64,1.74 0.88,-0.49 1.76,-2.09 2.64,-4.66 0.88,-2.56 1.76,-6.08 2.64,-10.13 0.88,-4.05 1.76,-8.61 2.64,-13.07 0.88,-4.47 1.76,-8.81 2.64,-12.41 0.87,-3.6000002 1.75,-6.4300002 2.63,-8.0300002 0.88,-1.61000004 1.76,-1.97000004 2.64,-0.98 0.88,0.99 1.76,3.34 2.64,6.74 0.88,3.3900002 1.76,7.8300002 2.63,12.6160002 0.88,4.79 1.76,9.91 2.64,14.52 0.88,4.6 1.76,8.67 2.64,11.45 0.88,2.78 1.75,4.26 2.63,4.11 0.88,-0.15 1.76,-1.94 2.64,-5.1 0.88,-3.16 1.76,-7.7 2.64,-12.78 0.88,-5.09 1.76,-10.71 2.64,-15.77 0.88,-5.06 1.76,-9.5200002 2.64,-12.4600002 0.88,-2.93 1.76,-4.30000004 2.64,-3.75 0.88,0.55 1.76,3.03 2.64,6.98 0.88,3.9500002 1.76,9.3600002 2.64,15.0700002 0.88,5.71 1.76,11.69 2.64,16.57 0.88,4.88 1.76,8.615 2.64,10.27 0.88,1.66 1.76,1.207 2.64,-1.33 0.88,-2.53 1.76,-7.15 2.64,-12.76 0.88,-5.615 1.76,-12.19 2.64,-18.065 0.88,-5.88 1.76,-10.9900002 2.64,-13.9400002 0.88,-2.96000004 1.76,-3.71000004 2.64,-1.97 0.88,1.74 1.76,5.98 2.64,11.6200002 0.88,5.64 1.76,12.63 2.64,19 0.88,6.37 1.76,12.04 2.64,15.29 0.88,3.25 1.76,4.028 2.64,1.997 0.88,-2.03 1.75,-6.87 2.63,-13.1 0.88,-6.24 1.76,-13.78 2.64,-20.26 0.88,-6.49 1.76,-11.7900002 2.64,-14.1200002 0.88,-2.34000004 1.76,-1.62000004 2.64,2 0.88,3.62 1.76,10.1100002 2.64,17.3200002 0.88,7.21 1.76,15.01 2.64,20.64 0.88,5.627 1.76,8.93 2.64,8.64 0.88,-0.29 1.76,-4.23 2.64,-10.45 0.88,-6.22 1.76,-14.6 2.64,-22.01 0.88,-7.4 1.76,-13.6200002 2.64,-16.1700002 0.88,-2.55000004 1.76,-1.32 2.64,3.31 0.88,4.6400002 1.76,12.6000002 2.64,20.6900002 0.88,8.09 1.76,16.08 2.64,20.57 0.88,4.49 1.76,5.31 2.64,1.97 0.88,-3.33 1.76,-10.76 2.64,-19.1 0.88,-8.34 1.76,-17.32 2.64,-22.8600002 0.88,-5.54 1.76,-7.39000004 2.64,-4.59 0.88,2.807 1.76,10.2300002 2.64,18.8600002 0.88,8.63 1.76,18.14 2.64,23.89 0.88,5.75 1.76,7.467 2.64,4.16 0.88,-3.31 1.76,-11.563 2.64,-20.67 0.88,-9.11 1.76,-18.6700002 2.64,-23.6630002 0.88,-5.00000004 1.76,-5.14000004 2.64,-0.2 0.88,4.94 1.76,14.7700002 2.64,24.2300002 0.88,9.47 1.76,18.06 2.64,20.92 0.88,2.867 1.76,-0.24 2.64,-7.692 0.88,-7.45 1.76,-18.88 2.64,-27.69 0.88,-8.8100002 1.76,-14.41000024 2.64,-13.3500002 0.88,1.05 1.76,8.78 2.64,18.6400002 0.88,9.86 1.76,21.19 2.64,26.96 0.88,5.76 1.76,5.46 2.64,-0.89 0.88,-6.34 1.76,-18.33 2.64,-28.29 0.88,-9.9700002 1.76,-17.08000024 2.64,-16.5300002 0.88,0.55 1.76,8.83 2.64,19.4100002 0.88,10.59 1.76,22.57 2.64,27.69 0.88,5.12 1.76,2.8 2.63,-5.52 0.88,-8.32 1.76,-21.9 2.64,-31.1 0.88,-9.1900002 1.76,-12.9800002 2.64,-8.4400002 0.88,4.54 1.76,17.0400002 2.64,28.3400002 0.88,11.29 1.76,20.07 2.64,19.57 0.88,-0.5 1.76,-10.36 2.64,-22.14 0.88,-11.78 1.76,-24.0300002 2.63,-27.0400002 0.88,-3.01 1.76,3.75 2.64,15.0580002 0.88,11.31 1.76,25.67 2.64,31.34 0.88,5.67 1.76,1.7 2.64,-8.82 0.88,-10.52 1.76,-26.09 2.64,-33.5400002 0.88,-7.45 1.76,-5.47000004 2.64,4.4400002 0.88,9.9 1.76,26.23 2.64,34.67 0.88,8.44 1.76,7.41 2.64,-2.38 0.88,-9.79 1.76,-26.7 2.64,-35.4000002 0.88,-8.7 1.76,-7.41000004 2.64,2.8900002 0.88,10.3 1.76,27.72 2.64,35.9 0.88,8.17 1.76,5.25 2.64,-6.18 0.88,-11.43 1.76,-29.05 2.64,-35.7100002 0.88,-6.66 1.76,-0.66 2.64,12.2700002 0.88,12.93 1.76,29.87 2.64,33.73 0.88,3.86 1.76,-6.53 2.64,-20.76 0.88,-14.23 1.76,-28.71000024 2.64,-28.2900002 0.88,0.42 1.76,15.8800002 2.64,30.2500002 0.88,14.37 1.76,23.6 2.64,17.62 0.88,-5.98 1.76,-25.69 2.64,-37.77 0.88,-12.09000024 1.76,-12.7400002 2.64,-1.01 0.88,11.73 1.76,32.33 2.64,38.68 0.88,6.35 1.76,-3.91 2.64,-19.32 0.88,-15.4 1.76,-30.7200002 2.64,-28.1140002 0.88,2.61 1.76,22.5260002 2.64,36.5300002 0.88,14.004 1.76,16.74 2.64,4.72 0.88,-12.02 1.76,-34.3600002 2.64,-40.0400002 0.88,-5.68 1.76,7.9200002 2.64,24.3600002 0.88,16.44 1.76,28.814 2.64,21.574 0.88,-7.24 1.76,-31.26 2.64,-41.8900002 0.88,-10.63 1.76,-2.75 2.64,13.8300002 0.88,16.57 1.76,34.09 2.64,29.74 0.88,-4.34 1.76,-28.8 2.63,-41.4100002 0.88,-12.61 1.76,-6.65 2.64,10.2100002 0.88,16.86 1.76,35.78 2.64,31.15 0.88,-4.63 1.76,-30.65 2.64,-42.6900002"
     fill="none"
     stroke="#ff0000"
     stroke-width="2"
     stroke-miterlimit="2"
     id="path73" />
  <g
     transform="translate(123.0457,-28.365424)"
     id="g108">
    <circle
       transform="translate(-15.854665,6.1572494)"
       cx="452.5"
       cy="152.5"
       r="2.5"
       fill="#ff0000"
       id="circle81" />
    <circle
       transform="matrix(0.3,0,0,0.3,300.38017,112.34008)"
       cx="457.5"
       cy="152.5"
       r="2.5"
       fill="#ffffff"
       filter="url(#d)"
       id="circle83" />
    <circle
       transform="translate(-17.927645,1.7504581)"
       cx="452.5"
       cy="152.5"
       r="2.5"
       fill="#000080"
       id="circle85" />
    <circle
       transform="matrix(0.3,0,0,0.3,298.30719,107.93329)"
       cx="457.5"
       cy="152.5"
       r="2.5"
       fill="#ffffff"
       filter="url(#d)"
       id="circle87" />
    <circle
       transform="translate(-19.607023,5.285992)"
       cx="452.5"
       cy="152.5"
       r="2.5"
       fill="#ff0000"
       id="circle89" />
    <circle
       transform="matrix(0.3,0,0,0.3,296.62781,111.46882)"
       cx="457.5"
       cy="152.5"
       r="2.5"
       fill="#ffffff"
       filter="url(#d)"
       id="circle91" />
    <circle
       transform="translate(-14.361781,2.6343416)"
       cx="452.5"
       cy="152.5"
       r="2.5"
       fill="#000080"
       id="circle93" />
    <circle
       transform="matrix(0.3,0,0,0.3,301.87306,108.81718)"
       cx="457.5"
       cy="152.5"
       r="2.5"
       fill="#ffffff"
       filter="url(#d)"
       id="circle95" />
    <use
       width="575"
       transform="rotate(-120,435.64534,156.15725)"
       xlink:href="#e"
       height="400"
       id="use97"
       x="0"
       y="0" />
    <g
       transform="translate(-14.354665,6.1572494)"
       id="e"
       stroke="#000000">
      <ellipse
         transform="rotate(-41.707338,415.15584,88.122283)"
         cx="400"
         cy="157.5"
         rx="25"
         ry="7.5"
         fill="none"
         stroke-miterlimit="2"
         id="ellipse99" />
      <path
         d="m 465.563,141.22 c -1,4.186 -4.813,8.5 -4.813,8.5 0,0 6.625,-4.69 7.875,-7.19"
         fill="#ff6600"
         fill-rule="evenodd"
         stroke-width="0.5"
         id="path101" />
      <circle
         transform="matrix(0.67,0,0,0.67,197.4,39.75)"
         cx="402.5"
         cy="152.5"
         r="2.5"
         fill="#ffff00"
         stroke-width="0.746"
         stroke-miterlimit="2"
         id="circle103" />
    </g>
    <use
       width="575"
       transform="rotate(120,436.3296,155.76219)"
       xlink:href="#e"
       height="400"
       id="use106"
       x="0"
       y="0" />
  </g>
  <g
     transform="translate(92.298932,-30.543507)"
     id="g238">
    <g
       transform="matrix(0.5459341,0,0,0.5459341,156.92848,78.449727)"
       fill-rule="evenodd"
       id="g130">
      <path
         transform="matrix(0.8984398,0,0,0.8981188,34.075015,17.718602)"
         d="m 316.235,183.625 c -10.75,-8.5 -2.75,-15.563 2.25,-24 5,-8.438 16,10.75 17.75,-9.75 1.838,-21.535 26.75,-15.25 36,-4.75 9.25,10.5 -7,20.5 -15.75,22 -8.75,1.5 5,17 -11.75,18.75 -16.75,1.75 -17.75,6.25 -28.5,-2.25 z"
         opacity="0.5"
         stroke="#000000"
         stroke-width="2.039"
         filter="url(#f)"
         id="path110" />
      <path
         d="m 311.25,181 c -10.75,-8.5 -2.75,-15.563 2.25,-24 5,-8.438 16,10.75 17.75,-9.75 1.838,-21.535 26.75,-15.25 36,-4.75 9.25,10.5 -7,20.5 -15.75,22 -8.75,1.5 5,17 -11.75,18.75 C 323,185 322,189.5 311.25,181 Z"
         fill="#87cdde"
         stroke="#000000"
         stroke-width="1.832"
         id="path112" />
      <path
         d="m 323.25,167 c 8.294,-2.844 18.25,1 11.75,4.5 -6.5,3.5 -22.25,1.5 -18,-1.25 4.25,-2.75 5.794,-3.094 6.25,-3.25 z"
         fill="#ff5555"
         stroke="#000000"
         stroke-width="1.832"
         id="path114" />
      <path
         d="m 346,140.25 c 7.25,-0.25 12.25,-0.25 12.25,3.25 0,4.5 -2.5,6 -12.75,3.25 -10.25,-2.75 -5.75,-6.5 0.5,-6.5 z"
         fill="#ff5555"
         stroke="#000000"
         stroke-width="1.832"
         id="path116" />
      <path
         d="m 316,159.25 c 0.724,-0.338 4.282,-0.367 5.75,0 1.425,0.356 -3.204,4.5 -4.5,4.5 -2.136,0 -2.748,-1.008 -2.25,-3 0.146,-0.583 0.854,-0.917 1,-1.5 z"
         fill="#5f8dd3"
         id="path118" />
      <path
         d="M 339.75,152.5 341,152 c 2.385,-0.954 4.413,-1.75 7,-1.75 1.58,0 -2.34,4.442 -2.75,4.75 -1.35,1.012 -4.44,0.078 -5.75,-0.25 -2.012,-0.503 -0.78,-2.044 0.25,-2.25 z"
         fill="#5f8dd3"
         id="path120" />
      <path
         d="m 358.5,152 c 1.697,-0.08 4.49,-1.784 5,0.25 0.405,1.62 -2.332,3 -3.5,3 -2.017,0 -2.75,-0.098 -2.75,-2.25 0,-0.534 0.833,-0.667 1.25,-1 z"
         fill="#5f8dd3"
         id="path122" />
      <path
         d="m 344.25,165.5 c 0,-2.765 -0.25,4.434 -0.25,6.75 0,1.98 -0.027,3.942 -0.75,5.75 -0.723,1.807 -1.677,2.5 -3.5,2.5 -1.645,0 -3.322,-0.036 -4.25,-0.5 -0.938,-0.47 2.728,-3.296 3,-3.5 1.418,-1.064 2.43,-2.327 3,-3.75 0.426,-1.066 0.377,-2.755 1,-4 0.55,-1.1 1.086,-2.143 1.75,-3.25 z"
         fill="#5f8dd3"
         id="path124" />
      <path
         d="m 319.853,179.913 1.25,-0.5 c 2.385,-0.954 4.413,-1.75 7,-1.75 1.58,0 -2.34,4.442 -2.75,4.75 -1.35,1.012 -4.44,0.077 -5.75,-0.25 -2.012,-0.503 -0.778,-2.045 0.25,-2.25 z"
         fill="#5f8dd3"
         id="path126" />
      <path
         d="m 342.82,135.703 c 1.696,-0.08 4.49,-1.784 5,0.25 0.404,1.62 -2.333,3 -3.5,3 -2.018,0 -2.75,-0.098 -2.75,-2.25 0,-0.533 0.833,-0.666 1.25,-1 z"
         fill="#5f8dd3"
         id="path128" />
    </g>
    <g
       transform="translate(18.561553,-6.7175144)"
       id="g158">
      <path
         d="m 299.68,145.335 c 11.813,-0.125 16.813,2.937 16.313,6.125 -0.5,3.187 -3.688,0.5 -9.063,4 -5.375,3.5 0.938,3.5 4.438,9 3.5,5.5 -19.688,17.75 -21.688,7.375 -2,-10.375 1.25,-10.063 4.563,-12.063 3.312,-2 -1.688,-14.687 5.437,-14.437 z"
         opacity="0.5"
         fill-rule="evenodd"
         filter="url(#g)"
         id="path132" />
      <path
         d="m 297,144.5 c 11.813,-0.125 16.813,2.938 16.313,6.125 -0.5,3.188 -3.688,0.5 -9.063,4 -5.375,3.5 0.938,3.5 4.438,9 3.5,5.5 -19.688,17.75 -21.688,7.375 -2,-10.375 1.25,-10.063 4.563,-12.063 3.312,-2 -1.688,-14.687 5.437,-14.437 z"
         fill="#c8ab37"
         fill-rule="evenodd"
         id="path134" />
      <path
         d="m 306.67,151.034 c 5.685,-0.06 0.07,-5.923 2.745,-4.848 2.883,1.16 4.104,2.78 3.844,4.432 -0.5,3.188 -3.69,0.5 -9.07,4 -5.38,3.5 0.93,3.5 4.43,9 1.89,2.978 -4.04,7.935 -10.19,10.208 -2.98,1.1 -10.75,1.905 -8.4,-0.31 1.77,-1.667 13.22,-5.924 13.24,-8.003 0.03,-3.57 -3.31,-1.477 -4.28,-9.588 -0.36,-3.043 3.7,-3.992 7.65,-4.89 z"
         fill="#8e7307"
         fill-rule="evenodd"
         id="path136" />
      <path
         d="m 299.826,147.312 c 3.958,-0.136 6.687,-0.136 6.687,1.774 0,2.457 -1.364,3.276 -6.96,1.775 -5.596,-1.5 -3.14,-3.54 0.273,-3.54 z"
         fill="#5f8dd3"
         fill-rule="evenodd"
         stroke="#000000"
         id="path138" />
      <path
         d="m 293.32,167.87 0.683,-0.274 c 1.302,-0.52 2.41,-0.955 3.822,-0.955 0.863,0 -1.277,2.43 -1.5,2.6 -0.738,0.56 -2.425,0.04 -3.14,-0.13 -1.1,-0.27 -0.426,-1.11 0.136,-1.23 z"
         fill="#5f8dd3"
         fill-rule="evenodd"
         stroke="#000000"
         id="path140" />
      <path
         d="m 292.188,163.75 c 1.004,0.19 2.988,-0.313 4.375,-0.313 1.335,0 2.484,0.254 3.562,1.063 0.79,0.592 1.696,1.043 0.813,1.75 -0.128,0.102 -0.25,0.208 -0.375,0.313 -0.642,0.534 -2.312,0.812 -3.125,0.812 -1.423,0 -2.828,0.125 -4.25,0.125 -1.09,0 -1.77,-0.43 -2.563,-1.063 -0.605,-0.483 -0.875,-1.138 -0.875,-1.875 0,-0.545 1.088,-0.662 1.438,-0.75 0.305,-0.076 0.68,0 1,-0.062 z"
         fill="#ff5555"
         fill-rule="evenodd"
         stroke="#000000"
         id="path142" />
      <path
         d="m 300.874,159.142 c 0.465,-0.043 0.62,0.263 0.62,0.795 0,0.5 -1.125,0.613 -1.504,0.707 -0.776,0.194 -0.926,-0.45 -0.795,-0.972 0.033,-0.134 1.518,-0.433 1.68,-0.53 z"
         fill="#4d4d4d"
         fill-rule="evenodd"
         stroke="#000000"
         stroke-width="0.5"
         id="path144" />
      <path
         d="m 294.598,154.015 c 0.043,-0.17 1.59,-0.548 1.59,0.354 0,0.79 -0.405,1.29 -0.883,1.76 l -0.265,0.26 c -0.446,0.44 -0.912,-1 -0.972,-1.24 -0.122,-0.49 0.366,-0.74 0.53,-1.15 z"
         fill="#4d4d4d"
         fill-rule="evenodd"
         stroke="#000000"
         stroke-width="0.5"
         id="path146" />
      <path
         d="m 304.675,163.208 c 0.19,-0.38 1.925,0.3 2.21,0.442 0.775,0.388 -0.39,1.423 -0.708,1.502 -0.657,0.164 -1.172,-0.32 -1.59,-0.53 -0.517,-0.258 -1.194,-0.895 -0.62,-1.326 0.19,-0.143 0.472,-0.06 0.708,-0.088 z"
         fill="#4d4d4d"
         fill-rule="evenodd"
         stroke="#000000"
         stroke-width="0.5"
         id="path148" />
      <path
         d="m 291.526,171.898 c 0.464,-0.043 0.618,0.264 0.618,0.796 0,0.5 -1.123,0.612 -1.502,0.707 -0.776,0.2 -0.926,-0.45 -0.796,-0.97 0.034,-0.13 1.518,-0.43 1.68,-0.53 z"
         fill="#4d4d4d"
         fill-rule="evenodd"
         stroke="#000000"
         stroke-width="0.5"
         id="path150" />
      <path
         d="m 310.706,147.945 c 0.465,-0.043 0.62,0.263 0.62,0.795 0,0.5 -1.125,0.613 -1.504,0.708 -0.776,0.194 -0.926,-0.45 -0.795,-0.973 0.033,-0.133 1.518,-0.433 1.68,-0.53 z"
         fill="#4d4d4d"
         fill-rule="evenodd"
         stroke="#000000"
         stroke-width="0.5"
         id="path152" />
      <path
         d="m 297,144.5 c 11.813,-0.125 16.813,2.938 16.313,6.125 -0.5,3.188 -3.688,0.5 -9.063,4 -5.375,3.5 0.938,3.5 4.438,9 3.5,5.5 -19.688,17.75 -21.688,7.375 -2,-10.375 1.25,-10.063 4.563,-12.063 3.312,-2 -1.688,-14.687 5.437,-14.437 z"
         fill="none"
         stroke="#000000"
         id="path154" />
      <path
         d="m 293.97,161.944 c -0.043,0.17 -1.59,0.548 -1.59,-0.353 0,-0.79 0.405,-1.29 0.883,-1.76 0.088,-0.09 0.177,-0.17 0.265,-0.26 0.446,-0.44 0.912,1 0.972,1.24 0.122,0.49 -0.366,0.74 -0.53,1.15 z"
         fill="#8e7307"
         fill-rule="evenodd"
         id="path156" />
    </g>
    <path
       d="m 306.442,154.37 c -0.51,-0.147 -1.55,-0.47 -2.298,-0.62 -0.175,-0.035 -0.353,-0.06 -0.53,-0.088 -0.92,-0.154 -1.693,-0.063 -2.387,0.353"
       fill="none"
       stroke="#000000"
       stroke-linecap="round"
       id="path160" />
    <path
       d="m 311.295,148.327 c -0.286,0 -2.63,-1.847 -3.536,-2.21 -0.45,-0.18 -1.42,-0.177 -1.95,-0.177"
       fill="none"
       stroke="#000000"
       stroke-linecap="round"
       id="path162" />
    <path
       d="m 311.325,145.964 c -0.016,-0.007 -0.82,-1.31 -1.326,-1.59 -1.17,-0.65 -2.48,-1.062 -3.8,-1.062"
       fill="none"
       stroke="#000000"
       stroke-linecap="round"
       id="path164" />
    <path
       d="m 311.29,142.503 c -0.935,-0.518 -2.484,-1.673 -3.89,-2.298 -0.427,-0.19 -0.848,-0.556 -1.15,-0.707"
       fill="none"
       stroke="#000000"
       stroke-linecap="round"
       id="path166" />
    <path
       d="m 312.142,139.862 c -1.1,-0.49 -2.864,-1.754 -4.33,-2.12 -0.24,-0.06 -0.473,-0.12 -0.708,-0.178"
       fill="none"
       stroke="#000000"
       stroke-linecap="round"
       id="path168" />
    <path
       d="m 313.285,138.204 c -1.007,-0.25 -2.642,-2.046 -4.154,-2.298 -0.05,-0.01 -0.11,0 -0.17,0"
       fill="none"
       stroke="#000000"
       stroke-linecap="round"
       id="path170" />
    <path
       d="m 316.28,137.836 c -0.857,-0.143 -2.653,-2.37 -3.8,-2.83 -0.063,-0.023 -0.12,-0.058 -0.178,-0.087"
       fill="none"
       stroke="#000000"
       stroke-linecap="round"
       id="path172" />
    <path
       d="m 319.877,138.017 c -0.465,-0.186 0.05,-1.02 -0.088,-1.503 -0.42,-1.47 -3.58,-2.507 -4.87,-2.828"
       fill="none"
       stroke="#000000"
       id="path174" />
    <path
       d="m 322.352,138.105 c -0.066,-0.232 0.427,-0.913 0,-1.767 -0.165,-0.33 -0.353,-0.65 -0.53,-0.973 -0.212,-0.388 -0.496,-0.425 -0.884,-0.618"
       fill="none"
       stroke="#000000"
       stroke-linecap="round"
       id="path176" />
    <path
       d="m 325.18,138.282 c -0.283,-0.52 0.796,-0.998 0.796,-1.59 0,-0.564 -0.22,-1.18 -0.53,-1.592"
       fill="none"
       stroke="#000000"
       stroke-linecap="round"
       id="path178" />
    <path
       d="m 327.302,139.166 c 0,-0.096 1.283,-1.205 1.68,-1.503 0.302,-0.226 -0.232,-1.422 -0.266,-1.59"
       fill="none"
       stroke="#000000"
       stroke-linecap="round"
       id="path180" />
    <path
       d="m 329.69,139.873 c 0.387,-0.29 1.438,-0.467 2.12,-1.15 0.61,-0.61 -0.156,-1.387 -0.53,-1.855 -0.042,-0.052 -0.118,-0.06 -0.177,-0.09"
       fill="none"
       stroke="#000000"
       stroke-linecap="round"
       id="path182" />
    <path
       d="m 331.28,141.552 c -0.304,-0.38 1.07,-0.01 1.414,-0.353 0.616,-0.62 1.256,-0.47 1.414,-1.42 0.053,-0.32 -0.296,-0.53 -0.53,-0.71"
       fill="none"
       stroke="#000000"
       stroke-linecap="round"
       id="path184" />
    <path
       d="m 332.22,143.94 c 0.09,-0.527 1.135,0.097 1.592,-0.178 0.68,-0.408 1.653,-0.907 2.033,-1.414"
       fill="none"
       stroke="#000000"
       stroke-linecap="round"
       id="path186" />
    <path
       d="m 331.338,145.176 c 0.047,-0.063 1.44,0.898 1.767,1.06 0.385,0.193 1.416,-0.773 1.857,-0.883"
       fill="none"
       stroke="#000000"
       stroke-linecap="round"
       id="path188" />
    <path
       d="m 330.1,145.65 c 0.526,-0.133 0.377,1.017 0.62,1.5 0.365,0.734 0.882,0.944 1.59,0.708"
       fill="none"
       stroke="#000000"
       stroke-linecap="round"
       id="path190" />
    <path
       d="m 327.656,146.414 c 0.283,0.566 0.79,1.607 1.414,2.386 0.346,0.433 0.093,0.245 0.53,0.354"
       fill="none"
       stroke="#000000"
       stroke-linecap="round"
       id="path192" />
    <path
       d="m 324.562,146.944 c 0.086,0.107 0.467,1.928 0.796,2.475 0.335,0.55 1.033,0.54 1.59,0.61"
       fill="none"
       stroke="#000000"
       stroke-linecap="round"
       id="path194" />
    <path
       d="m 322.352,148.712 c 0.268,0.446 0.794,1.368 1.326,2.033 0.36,0.45 0.63,0.227 0.884,0.177"
       fill="none"
       stroke="#000000"
       stroke-linecap="round"
       id="path196" />
    <path
       d="m 323.413,152.6 c 0.177,0.222 1.647,0.09 2.21,0.09 h 0.265"
       fill="none"
       stroke="#000000"
       stroke-linecap="round"
       id="path198" />
    <path
       d="m 326.24,154.988 c 0.246,0 1.375,-0.412 2.123,-0.973 0.097,-0.073 0.06,-0.235 0.088,-0.353"
       fill="none"
       stroke="#000000"
       stroke-linecap="round"
       id="path200" />
    <path
       d="m 327.214,156.402 c 0.584,-0.44 2.274,0.6 3.005,-0.62 0.82,-1.374 -0.45,1.112 0.17,-0.44"
       fill="none"
       stroke="#000000"
       stroke-linecap="round"
       id="path202" />
    <path
       d="m 327.39,158.965 c 0.397,-0.66 1.557,-0.053 2.3,-0.265 0.178,-0.05 0.352,-0.118 0.53,-0.177 0.087,-0.03 0.176,-0.06 0.264,-0.088"
       fill="none"
       stroke="#000000"
       stroke-linecap="round"
       id="path204" />
    <path
       d="m 326.86,160.82 c 0.338,-0.11 0.616,0.443 0.972,0.443 0.39,0 0.556,-0.013 0.884,-0.177"
       fill="none"
       stroke="#000000"
       stroke-linecap="round"
       id="path206" />
    <path
       d="m 325.623,162.324 c 0.425,0 0.406,0.76 0.707,1.06 0.367,0.367 1.373,0.708 1.944,0.708"
       fill="none"
       stroke="#000000"
       stroke-linecap="round"
       id="path208" />
    <path
       d="m 323.678,163.738 c 0.408,0.407 0.48,1.482 1.414,1.856 0.36,0.144 0.277,-0.092 0.53,-0.177"
       fill="none"
       stroke="#000000"
       stroke-linecap="round"
       id="path210" />
    <path
       d="m 321.115,165.506 c 0.447,0.178 0.838,2.173 2.033,2.65 0.265,0.107 0.673,0 0.972,0"
       fill="none"
       stroke="#000000"
       stroke-linecap="round"
       id="path212" />
    <path
       d="m 319.26,166.566 c 0.643,0.258 0.13,1.413 0.44,2.033 0.16,0.31 0.365,0.67 0.53,0.88"
       fill="none"
       stroke="#000000"
       stroke-linecap="round"
       id="path214" />
    <path
       d="m 317.226,167.097 c 0.092,0.184 0.44,1.94 0.618,2.65 0.075,0.3 0.576,0.754 0.796,0.974"
       fill="none"
       stroke="#000000"
       stroke-linecap="round"
       id="path216" />
    <path
       d="m 314.574,167.98 c 0.106,0.423 0.305,1.66 0.53,2.564 0.186,0.743 0.695,1.15 1.415,1.15"
       fill="none"
       stroke="#000000"
       stroke-linecap="round"
       id="path218" />
    <path
       d="m 311.48,168.423 c 0.046,0.18 0.354,1.313 0.354,2.032 0,1.03 0.532,0.885 1.238,1.238 0.238,0.12 0.246,0.1 0.44,0.177"
       fill="none"
       stroke="#000000"
       stroke-linecap="round"
       id="path220" />
    <path
       d="m 309.448,168.07 c 0.33,0.164 -0.53,0.602 -0.53,0.97 0,0.93 -0.037,1.52 0.353,2.3 l 0.18,0.353 c 0.16,0.324 0.57,0.467 0.8,0.62"
       fill="none"
       stroke="#000000"
       stroke-linecap="round"
       id="path222" />
    <path
       d="m 307.68,167.45 c 0.09,0.18 -1.464,-0.392 -2.298,0.442 -0.24,0.24 -0.37,1.723 -0.53,2.122"
       fill="none"
       stroke="#000000"
       stroke-linecap="round"
       id="path224" />
    <path
       d="m 305.47,165.506 c -0.44,0.44 -1.235,-0.177 -1.856,-0.177 -0.82,0 -1.138,0.17 -1.856,0.35"
       fill="none"
       stroke="#000000"
       stroke-linecap="round"
       id="path226" />
    <path
       d="m 305.117,161.705 c -0.845,0 -2.31,-0.707 -3.536,-0.707 -0.3,0 -0.17,0.675 -0.17,0.884"
       fill="none"
       stroke="#000000"
       stroke-linecap="round"
       id="path228" />
    <path
       d="m 304.586,158.17 c -0.52,0 -1.814,-0.62 -2.74,-0.62 h -0.884"
       fill="none"
       stroke="#000000"
       stroke-linecap="round"
       id="path230" />
    <path
       d="m 305.028,155.783 c -0.615,0 -1.84,-0.53 -2.74,-0.53 -0.398,0 -0.766,0.024 -1.15,0.088"
       fill="none"
       stroke="#000000"
       stroke-linecap="round"
       id="path232" />
    <path
       d="m 311,151.125 c -0.23,-0.364 -1.066,-1.19 -1.688,-1.5 -0.55,-0.276 -0.942,-0.66 -1.5,-0.938 -0.385,-0.192 -0.772,-0.396 -1.187,-0.5 -0.27,-0.067 -0.545,-0.12 -0.813,-0.187"
       fill="none"
       stroke="#000000"
       stroke-linecap="round"
       id="path234" />
    <path
       d="m 308.75,153.188 c -0.473,-0.12 -1.308,-0.936 -1.938,-1.25 -0.1,-0.05 -0.208,-0.084 -0.312,-0.125 -0.475,-0.19 -1.08,-0.438 -1.625,-0.438 -0.203,0 -0.313,0.016 -0.5,0.063"
       fill="none"
       stroke="#000000"
       stroke-linecap="round"
       id="path236" />
  </g>
  <g
     transform="translate(136.79101,-36.69897)"
     id="g300">
    <path
       d="m 361.96,172.167 -1.494,1.325 5.173,6.015 1.52,-1.31 z"
       fill="#ffffff"
       fill-rule="evenodd"
       stroke="#000000"
       id="path254" />
    <path
       d="m 362.83,170.782 7.968,-6.344 -1.25,-1.562 -7.97,6.344"
       fill="#ffffff"
       fill-rule="evenodd"
       stroke="#000000"
       id="path256" />
    <path
       d="m 367.813,146 -9.813,3.28 -0.75,0.25 0.094,0.782 1.687,17.563 -8.4,-8.47 -0.69,-0.718 -0.72,0.72 -10.06,10.062 1.41,1.43 9.35,-9.38 9.66,9.72 1.97,2 -0.25,-2.82 -1.9,-19.53 9.1,-3 z"
       fill="#ffffff"
       fill-rule="evenodd"
       stroke="#000000"
       id="path258" />
    <g
       transform="matrix(0.7,0,0,0.7,107.11916,48.199053)"
       id="g264">
      <circle
         transform="matrix(1.5,0,0,1.5,-305.8845,-87.784362)"
         cx="452.5"
         cy="152.5"
         r="2.5"
         fill="#000080"
         stroke="#000000"
         stroke-width="0.952"
         stroke-miterlimit="2"
         id="circle260" />
      <circle
         transform="matrix(0.45,0,0,0.45,168.35466,71.842751)"
         cx="457.5"
         cy="152.5"
         r="2.5"
         fill="#ffffff"
         filter="url(#d)"
         id="circle262" />
    </g>
    <g
       transform="translate(-0.3964466,6.4895499)"
       id="g270">
      <circle
         transform="matrix(1.5,0,0,1.5,-318,-64.002113)"
         cx="452.5"
         cy="152.5"
         r="2.5"
         fill="#ff6600"
         stroke="#000000"
         stroke-width="0.667"
         stroke-miterlimit="2"
         id="circle266" />
      <circle
         transform="matrix(0.45,0,0,0.45,156.23916,95.625)"
         cx="457.5"
         cy="152.5"
         r="2.5"
         fill="#ffffff"
         filter="url(#d)"
         id="circle268" />
    </g>
    <g
       transform="translate(-10,14.502113)"
       id="g276">
      <circle
         transform="matrix(1.5,0,0,1.5,-328.75,-73.252113)"
         cx="452.5"
         cy="152.5"
         r="2.5"
         fill="#008000"
         stroke="#000000"
         stroke-width="0.667"
         stroke-miterlimit="2"
         id="circle272" />
      <circle
         transform="matrix(0.45,0,0,0.45,145.48916,86.375)"
         cx="457.5"
         cy="152.5"
         r="2.5"
         fill="#ffffff"
         filter="url(#d)"
         id="circle274" />
    </g>
    <g
       transform="translate(-5.75,-14.25)"
       id="g282">
      <circle
         transform="matrix(1.5,0,0,1.5,-323,-54.002113)"
         cx="452.5"
         cy="152.5"
         r="2.5"
         fill="#ff0000"
         stroke="#000000"
         stroke-width="0.667"
         stroke-miterlimit="2"
         id="circle278" />
      <circle
         transform="matrix(0.45,0,0,0.45,151.23916,105.625)"
         cx="457.5"
         cy="152.5"
         r="2.5"
         fill="#ffffff"
         filter="url(#d)"
         id="circle280" />
    </g>
    <g
       transform="translate(8.63584,-5)"
       id="g288">
      <circle
         transform="matrix(1.5,0,0,1.5,-328.75,-73.252113)"
         cx="452.5"
         cy="152.5"
         r="2.5"
         fill="#008000"
         stroke="#000000"
         stroke-width="0.667"
         stroke-miterlimit="2"
         id="circle284" />
      <circle
         transform="matrix(0.45,0,0,0.45,145.48916,86.375)"
         cx="457.5"
         cy="152.5"
         r="2.5"
         fill="#ffffff"
         filter="url(#d)"
         id="circle286" />
    </g>
    <circle
       transform="matrix(1.05,0,0,1.05,-104.38008,2.8174506)"
       cx="452.5"
       cy="152.5"
       r="2.5"
       fill="#d4aa00"
       stroke="#000000"
       stroke-width="0.952"
       stroke-miterlimit="2"
       id="circle290" />
    <circle
       transform="matrix(0.315,0,0,0.315,227.58733,114.55643)"
       cx="457.5"
       cy="152.5"
       r="2.5"
       fill="#ffffff"
       filter="url(#d)"
       id="circle292" />
    <g
       transform="matrix(0.7,0,0,0.7,106.86645,81.06029)"
       id="g298">
      <circle
         transform="matrix(1.5,0,0,1.5,-305.8845,-87.784362)"
         cx="452.5"
         cy="152.5"
         r="2.5"
         fill="#000080"
         stroke="#000000"
         stroke-width="0.952"
         stroke-miterlimit="2"
         id="circle294" />
      <circle
         transform="matrix(0.45,0,0,0.45,168.35466,71.842751)"
         cx="457.5"
         cy="152.5"
         r="2.5"
         fill="#ffffff"
         filter="url(#d)"
         id="circle296" />
    </g>
  </g>
  <g
     transform="translate(111.71739,-30.080852)"
     id="g336">
    <use
       width="575"
       transform="translate(-2.117859,9.71742)"
       xlink:href="#h"
       height="400"
       id="use302"
       x="0"
       y="0" />
    <use
       width="575"
       transform="translate(14.382141,1.46742)"
       xlink:href="#h"
       height="400"
       id="use304"
       x="0"
       y="0" />
    <use
       width="575"
       transform="translate(8.257141,-8.90758)"
       xlink:href="#h"
       height="400"
       id="use306"
       x="0"
       y="0" />
    <g
       transform="translate(23,-6.375)"
       id="i"
       stroke-miterlimit="2">
      <circle
         transform="matrix(2,0,0,2,-400.87262,-146.91412)"
         cx="452.5"
         cy="152.5"
         r="2.5"
         fill="#ff0000"
         stroke="#000000"
         stroke-width="0.5"
         id="circle308" />
      <circle
         transform="matrix(0.6,0,0,0.6,231.59704,65.451545)"
         cx="457.5"
         cy="152.5"
         r="2.5"
         fill="#ffffff"
         filter="url(#d)"
         id="circle310" />
    </g>
    <use
       width="575"
       transform="translate(-20.125,7.375)"
       xlink:href="#i"
       height="400"
       id="use313"
       x="0"
       y="0" />
    <use
       width="575"
       transform="translate(-6.377379,-0.08588003)"
       xlink:href="#i"
       height="400"
       id="use315"
       x="0"
       y="0" />
    <use
       width="575"
       transform="translate(-2.002379,11.16412)"
       xlink:href="#i"
       height="400"
       id="use317"
       x="0"
       y="0" />
    <use
       width="575"
       transform="translate(-18.627379,0.41412)"
       xlink:href="#i"
       height="400"
       id="use319"
       x="0"
       y="0" />
    <use
       width="575"
       transform="translate(4.75,4.75)"
       xlink:href="#h"
       height="400"
       id="use321"
       x="0"
       y="0" />
    <use
       width="575"
       transform="translate(-15.002379,9.91412)"
       xlink:href="#i"
       height="400"
       id="use323"
       x="0"
       y="0" />
    <use
       width="575"
       transform="translate(11.132141,-0.65758)"
       xlink:href="#h"
       height="400"
       id="use325"
       x="0"
       y="0" />
    <use
       width="575"
       transform="translate(1.132141,-8.15758)"
       xlink:href="#h"
       height="400"
       id="use327"
       x="0"
       y="0" />
    <g
       transform="translate(23.625,15.5)"
       id="h"
       stroke-miterlimit="2">
      <circle
         transform="matrix(2,0,0,2,-414.88214,-164.46742)"
         cx="452.5"
         cy="152.5"
         r="2.5"
         fill="#000080"
         stroke="#000000"
         stroke-width="0.5"
         id="circle329" />
      <circle
         transform="matrix(0.6,0,0,0.6,217.58754,47.898265)"
         cx="457.5"
         cy="152.5"
         r="2.5"
         fill="#ffffff"
         filter="url(#d)"
         id="circle331" />
    </g>
    <use
       width="575"
       transform="translate(-8.627379,14.53912)"
       xlink:href="#i"
       height="400"
       id="use334"
       x="0"
       y="0" />
  </g>
  <g
     transform="matrix(0.09620146,-0.1278487,0.1278487,0.09620146,237.71249,139.12442)"
     id="g382">
    <g
       transform="translate(732.0784,-15.77421)"
       opacity="0.34"
       id="g347">
      <g
         id="j"
         transform="translate(-457,-114)">
        <path
           d="m -44.127,295.725 c -5,0 -0.5,12 -8,12 -7.5,0 -6.06,-15.5 -14.56,-15.5 -6.11,13.446 -2.304,107.594 0.06,122.5 8.182,0 4.41,-44.197 6.5,-52 0.764,-2.85 34.5,53.5 37,57.5 2.5,4 5.5,10 27,10 21.5,0 30.5,-10.5 39.5,-19 9,-8.5 21.5,-22.5 21.5,-42 0,-19.5 -21.5,-35.5 -21.5,-40 0,-4.5 31.5,-7 31.5,-37 0,-30 27,-56.5 27,-71.5 0,-15 -25.5,-16 -50,-4.5 -24.5,11.5 -41,23 -70.75,51.5"
           id="path338" />
        <path
           d="m -63.127,364.725 c 8,12.5 40,57.5 45,60 5,2.5 -32.5,-60 -47,-67"
           id="path340" />
        <path
           d="m -63.243,295.725 c 4.243,-12.544 23.366,-22.246 24.866,-30.5 1.432,-7.877 3.952,-6.663 3.952,0.84 0,5.8 -27.452,27.644 -26.202,30.598"
           id="path342" />
      </g>
      <use
         width="400"
         transform="matrix(-1,0,0,1,-1046.113,0)"
         xlink:href="#j"
         height="360"
         id="use345"
         x="0"
         y="0" />
    </g>
    <g
       transform="translate(-1.921573,7.22579)"
       id="g380">
      <g
         id="k"
         fill-rule="evenodd">
        <path
           d="m 219,178 c 29,0 85,-7 89,-4 4,3 -1,15 3.5,18.5 4.5,3.5 21,22 20.5,27.5 -0.5,5.5 -10.5,33.5 -14.5,37 -4,3.5 -54.5,26.5 -62,21 -7.5,-5.5 -46.89,-57.717 -46.5,-62 0.5,-5.5 11,-38 10,-38 z"
           fill="#c0c0c0"
           id="path349" />
        <path
           d="m 306.5,85.5 c -14.347,6.94 -74.894,57.183 -83,81.5 -3,9 13.5,12 32.5,11 19,-1 74,0 78,-9 4,-9 18,-80 24,-86.5 6,-6.5 -41.406,-1.882 -51.5,3 z"
           fill="#949494"
           id="path351" />
        <path
           d="m 208,221 c 8,12.5 40,57.5 45,60 5,2.5 3.5,-1 0,-6.5 C 249.5,269 220.5,221 206,214"
           fill="#474747"
           id="path353" />
        <path
           d="M 222,167.75 C 223.75,158 222.5,152.5 252.25,124 282,95.5 296.813,87.936 299,88 c 8.563,0.25 -22.84,29.87 -41.5,43 -14.248,10.026 -35,37.25 -35.5,36.75 z"
           fill="#474747"
           id="path355" />
        <path
           d="m 218.496,168.374 c 25.102,-11.667 31.466,-16.617 48.083,-27.93 16.61,-11.314 30.05,-25.81 28.28,-27.224 -1.77,-1.414 -20.51,-0.354 -20.51,-0.354 l 14.49,-13.08 c 0,0 5.3,4.24 10.96,6.363 5.65,2.12 30.05,0.35 30.05,0.35 l 3.89,5.3 c 0,0 -23.34,-0.36 -28.29,2.83 -4.95,3.18 -18.03,21.56 -32.53,31.46 -14.5,9.9 -52.68,27.22 -52.68,27.22"
           fill="#474747"
           id="path357" />
        <path
           d="m 294.864,120.998 c 14.31,3.225 24.78,1.887 36.062,0.707 3.375,-0.353 7.598,9.062 3.536,9.546 -23.183,2.77 -37.212,2.04 -47.73,-1.06"
           fill="#474747"
           id="path359" />
        <path
           d="m 274.71,140.09 c 24.043,7.424 44.55,9.9 54.448,8.84 9.9,-1.062 22.628,5.302 -0.707,4.948 -23.33,-0.353 -53.03,-6.717 -56.92,-9.192"
           fill="#474747"
           id="path361" />
        <path
           d="m 217.5,198.5 c 4,1 40,60.5 47,72.5 7,12 14.323,14.934 3,-4 -7.625,-12.75 -39,-65 -47.5,-70.5"
           fill="#474747"
           id="path363" />
        <path
           d="m 223,194 c 29,14.5 52.5,53 60,72 5.014,12.703 9.307,9.538 5.5,-0.5 -5.5,-14.5 -31,-61 -64.5,-76"
           fill="#474747"
           id="path365" />
        <path
           d="m 258.75,220.5 c 17.25,0.75 34.5,17.75 42.25,34 6.035,12.655 7.21,9.876 3,-1 C 298,238 276.25,214 255.25,216"
           fill="#474747"
           id="path367" />
        <path
           d="m 258.8,186.405 c 7.072,13.435 12.73,19.446 24.396,24.395 11.668,4.95 6.01,9.193 6.01,9.193 0,0 3.536,3.287 3.89,0.707 0.912,-6.655 -1.124,-10.45 33.587,0.707 3.515,1.13 4.112,-3.99 -2.12,-5.657 -32.754,-8.758 -43.4,-9.28 -55.155,-21.92 21.832,4.33 29.922,6.8 44.9,5.303 3.537,-0.353 -1.767,-5.303 -6.717,-4.95 -18.01,1.287 -49.14,-10.606 -49.14,-10.606"
           fill="#474747"
           id="path369" />
        <path
           d="m 317.844,238.024 c -14.85,-13.79 -21.92,-16.263 -25.102,-19.8 -3.182,-3.534 -13.788,7.426 -13.788,7.426 0,0 1.414,4.95 3.182,3.182 1.767,-1.768 7.07,-14.142 30.76,9.192"
           fill="#474747"
           id="path371" />
        <path
           d="m 207.884,152 c 4.243,-12.544 23.366,-22.247 24.866,-30.5 1.432,-7.878 3.952,-6.663 3.952,0.84 0,5.8 -27.077,27.33 -25.827,30.285"
           fill="#474747"
           id="path373" />
        <path
           d="m 204.44,148.5 c -6.11,13.445 -2.304,107.593 0.06,122.5 8.182,0 3.5,-44.5 6.5,-52 3,-7.5 18,-25 16,-28.5 -2,-3.5 -4.013,-9.5 5.5,-9.5 4.5,0 18.5,7 25.5,7 7,0 19.5,-9.5 29.5,-9.5 10,0 14,2 16,7 2,5 -0.5,9.5 1,12.5 1.5,3 11.5,0 14.5,7 3,7 9,26 5,28.5 -4,2.5 -12,-2 -14.5,1 -2.5,3 8.5,6.5 0.5,13.5 -8,7 -7.5,-1 -10,1 -2.5,2 0.5,9.5 -6,13 -6.5,3.5 -10.5,-4.5 -13.5,-3 -3,1.5 -2,10 -6.5,11 -4.5,1 -4.5,-7.5 -9,-6 -4.5,1.5 -2,5 -7.5,6 -5.5,1 -12,2.5 -9.5,6.5 2.5,4 5.5,10 27,10 21.5,0 30.5,-10.5 39.5,-19 9,-8.5 21.5,-22.5 21.5,-42 0,-19.5 -21.5,-35.5 -21.5,-40 0,-4.5 31.5,-7 31.5,-37 0,-30 27,-56.5 27,-71.5 0,-15 -25.5,-16 -50,-4.5 -28.142,13.21 -32.5,17 -32.5,21.5 0,5.22 40,13.5 40,20.5 0,7 -14.535,8.354 -14.535,13.475 0,5.84 14.535,4.025 14.535,10.025 0,11.662 -19.253,9.12 -19.253,13.207 0,4.1 18.503,0.41 18.503,10.043 0,6.753 -36.25,7.25 -51.75,9.75 -27.753,4.476 -45,4 -48,1 -3,-3 2,-20 -3,-20 -5,0 -0.5,12 -8,12 -7.5,0 -6.06,-15.5 -14.56,-15.5 z M 314.25,92.125 c 0,-7.28 6,-6.99 6,0 0,6.99 -6,7.28 -6,0 z m 18.25,10.625 c 18.505,0 3.01,-9.5 0,-9.5 -3.26,0 -18.255,9.5 0,9.5 z m 5.62,8.06 c -8.26,9.338 3.45,5.757 4.795,4.237 1.455,-1.645 3.35,-13.452 -4.796,-4.238 z"
           id="path375" />
      </g>
      <use
         width="400"
         transform="matrix(-1,0,0,1,409.5,0)"
         xlink:href="#k"
         height="360"
         id="use378"
         x="0"
         y="0" />
    </g>
  </g>
  <g
     transform="translate(112.79365,-36.121205)"
     id="g394">
    <g
       transform="matrix(0.8296887,0,0,0.8296887,66.127727,31.018593)"
       id="g390">
      <path
         d="m 175.943,193.622 34.26,-51.52 c 0,0 9.137,-15.812 11.797,-13.944 2.658,1.867 -9.14,15.812 -9.14,15.812 l -36.917,49.652"
         fill="#b3b3b3"
         fill-rule="evenodd"
         stroke="#000000"
         stroke-width="0.603"
         id="path384" />
      <ellipse
         transform="matrix(0.2656034,0.1865733,-0.4182815,0.5945354,227.79363,45.17935)"
         cx="132.5"
         cy="110"
         rx="2.5"
         ry="10"
         fill="#ffffff"
         stroke="#000000"
         stroke-width="1.241"
         stroke-linecap="round"
         stroke-miterlimit="2"
         id="ellipse386" />
      <path
         d="m 219.037,135.96 c 6.114,2.17 12.905,4.33 18.374,7.007 7.12,3.482 15.21,12.904 -37.12,27.577 -48.09,13.465 -36.77,5.303 -36.77,5.303 m 43.49,-57.806 c -9.73,8.71 -1.06,13.18 10.77,17.47"
         fill="none"
         stroke="#000080"
         stroke-width="1.205"
         id="path388" />
    </g>
    <circle
       transform="translate(260.48306,70.003571)"
       cx="-47.73"
       cy="120.693"
       r="5.303"
       fill="none"
       stroke="#000000"
       stroke-width="2"
       stroke-linecap="round"
       stroke-miterlimit="2"
       id="circle392" />
  </g>
  <g
     transform="translate(5.7173615,-35.121205)"
     id="g406">
    <g
       transform="translate(93.998973,5.5125887)"
       fill="#4a6270"
       fill-rule="evenodd"
       id="g400">
      <path
         d="m 28.488,124.977 v 5.154 h -0.243 v 0.77 h 0.247 v 0.32 l -0.118,0.44 h -0.125 c -0.13,0 -0.26,0.13 -0.26,0.25 v 0.25 h -0.12 c -0.11,0 -0.25,0.13 -0.25,0.26 v 0.75 h -0.13 c -0.13,0 -0.26,0.13 -0.26,0.26 v 1.01 h -0.13 c -0.13,0 -0.25,0.13 -0.25,0.25 v 1.13 h -0.13 c -0.13,0 -0.26,0.13 -0.26,0.26 v 2.14 h -0.26 c -0.12,0 -0.25,0.12 -0.25,0.25 v 3.02 h -0.25 c -0.13,0 -0.25,0.13 -0.25,0.25 v 5.14 h -0.25 c -0.13,0 -0.25,0.13 -0.25,0.26 v 6.53 c 0,0.12 -0.26,0.16 -0.26,0.26 v 33.59 h 22.2 v -33.6 c 0,-0.1 -0.25,-0.14 -0.25,-0.25 v -6.53 c 0,-0.12 -0.13,-0.25 -0.25,-0.25 h -0.25 v -5.14 c 0,-0.12 -0.13,-0.25 -0.26,-0.25 h -0.25 v -3.01 c 0,-0.13 -0.13,-0.25 -0.25,-0.25 h -0.26 v -2.14 c 0,-0.13 -0.13,-0.26 -0.26,-0.26 h -0.12 v -1.12 c 0,-0.12 -0.13,-0.25 -0.25,-0.25 h -0.13 v -1 c 0,-0.13 -0.12,-0.26 -0.25,-0.26 H 44 v -0.74 c 0,-0.13 -0.14,-0.25 -0.25,-0.25 h -0.12 v -0.25 c 0,-0.12 -0.127,-0.25 -0.25,-0.25 h -0.12 l -0.12,-0.43 v -0.32 h 0.243 v -0.76 H 43.138 V 125 h -0.464 v 5.153 h -0.24 v 0.76 h 0.25 v 0.323 l -0.12,0.434 h -0.128 c -0.127,0 -0.25,0.13 -0.25,0.25 v 0.25 h -0.12 c -0.11,0 -0.25,0.124 -0.25,0.252 v 0.745 h -0.13 c -0.13,0 -0.25,0.13 -0.25,0.255 v 1.004 h -0.13 c -0.12,0 -0.25,0.125 -0.25,0.25 v 1.125 h -0.123 c -0.13,0 -0.257,0.13 -0.257,0.26 v 2.14 h -0.25 c -0.12,0 -0.25,0.12 -0.25,0.25 v 3.02 h -0.247 c -0.12,0 -0.25,0.13 -0.25,0.25 v 5.14 h -0.25 c -0.12,0 -0.25,0.13 -0.25,0.26 v 6.53 c 0,0.12 -0.25,0.16 -0.25,0.26 v 9.28 h -6.22 v -9.28 c 0,-0.1 -0.26,-0.14 -0.26,-0.25 v -6.53 c 0,-0.12 -0.13,-0.26 -0.25,-0.26 h -0.25 v -5.14 c 0,-0.12 -0.13,-0.25 -0.26,-0.25 h -0.25 v -3.01 c 0,-0.13 -0.13,-0.24 -0.25,-0.24 h -0.26 v -2.14 c 0,-0.13 -0.13,-0.26 -0.26,-0.26 h -0.12 v -1.13 c 0,-0.12 -0.13,-0.25 -0.25,-0.25 h -0.13 v -1 c 0,-0.12 -0.12,-0.25 -0.25,-0.25 h -0.13 v -0.75 c 0,-0.13 -0.14,-0.25 -0.25,-0.25 h -0.13 v -0.25 c 0,-0.12 -0.13,-0.25 -0.25,-0.25 h -0.13 l -0.11,-0.43 v -0.33 h 0.24 v -0.76 h -0.24 V 125 h -0.3 z M 32.72,164.5 h 2.887 l 0.008,0.01 -2.895,5.724 z m 3.3,0 h 2.913 v 5.78 l -2.918,-5.773 z m -0.205,0.41 3.118,6.27 v 13.414 H 32.72 v -13.462 z"
         id="path396" />
      <path
         d="m 57.032,125.97 v 5.044 h -0.11 c -0.1,0 -0.255,0.134 -0.255,0.258 v 3.625 c 0,0.14 -0.152,0.112 -0.153,0.263 v 3.27 c 0,0.112 -0.12,0.137 -0.12,0.252 v 1.18 l -0.89,2.448 h -0.496 c -0.123,0 -0.255,0.13 -0.255,0.25 v 0.633 h -0.372 c -0.12,0 -0.25,0.126 -0.25,0.25 v 3.515 h -0.37 c -0.12,0 -0.25,0.12 -0.25,0.25 v 4.265 c 0,0.18 -0.37,0.26 -0.37,0.38 v 20.46 h -0.62 c -0.13,0 -0.25,0.124 -0.25,0.25 v 4.52 h -1.38 c -0.13,0 -0.25,0.126 -0.25,0.255 v 6.774 h -1.89 c -0.12,0 -0.25,0.124 -0.25,0.25 v 3.092 h 17.65 v -3.09 c 0,-0.128 -0.12,-0.252 -0.25,-0.252 h -1.89 v -6.774 c 0,-0.13 -0.12,-0.255 -0.25,-0.255 h -1.37 v -4.52 c 0,-0.126 -0.12,-0.25 -0.25,-0.25 h -0.63 v -20.46 c 0,-0.12 -0.38,-0.2 -0.38,-0.38 v -4.264 c 0,-0.14 -0.12,-0.26 -0.25,-0.26 h -0.37 v -3.52 c 0,-0.13 -0.13,-0.25 -0.25,-0.25 h -0.37 v -0.64 c 0,-0.12 -0.13,-0.25 -0.25,-0.25 h -0.5 l -0.89,-2.45 v -1.18 c 0,-0.12 -0.12,-0.14 -0.12,-0.26 v -3.27 c 0,-0.15 -0.15,-0.12 -0.15,-0.26 v -3.63 c 0,-0.12 -0.15,-0.26 -0.25,-0.26 h -0.11 v -5.05 h -0.32 z"
         id="path398" />
    </g>
    <text
       x="114.849"
       y="214.03101"
       font-size="12px"
       font-family="Arial"
       id="text404"><tspan
         x="114.849"
         y="214.03101"
         id="tspan402">Buildings</tspan></text>
  </g>
  <g
     stroke="#000000"
     transform="matrix(0.05,0,0,0.05,206.74302,96.790885)"
     stroke-width="5"
     id="g412">
    <path
       d="m -98.546,1179.505 c -29.61,-16.518 -16.258,-52.565 -44.497,-69.886 6.88,-44.09 8.522,-89.17 -4.676,-132.41 -1.94,-43.97 -26.46,-86.13 -12.88,-130.78 -9.91,-42.03 -14.78,-86.82 -16.56,-130.84 -2.9,-23.66 -21.2,-92.19 -20.93,-31.99 -5.95,42.54 6.17,86.15 -5.94,128.16 14.19,34.13 16.77,71.42 7.62,107.29 -6.6,42.69 -9.67,85.63 -1.12,128.43 14.57,38.26 -3.07,64.16 -41.21,69.99 -5.81,34.37 -75.09,62.74 -83.69,19.52 -1.13,-46.63 80.19,-48.74 66.5,-103.46 -10.58,-66.77 -36.23,-132.64 -26,-201.22 -12.63,-49.01 -26.99,-98.15 -27.53,-149.2 0.07,-42.26 -18.93,-85.65 -2.29,-126.8 7.31,-34.05 -0.13,-70.67 15.28,-103 10.29,-34.26 -13.12,-68.67 -12.33,-103.52 -22.46,7.62 -65.59,42.16 -101.6,35.97 -46.17,-1.55 -31.38,-65.45 -34.78,-97.63 -0.37,-31.62 9.41,-63.26 9.47,-94.33 -10.39,-34.12 -22.41,-75.47 -8.5,-109.08 15.48,8.89 22.59,-19.29 35.36,-17.96 26.4,-22.12 34.12,34.32 30,60.98 -0.25,18.14 41.47,-28 40.01,4.94 -31.52,32.88 -52.05,75.99 -45.73,122.91 -0.88,60.66 42.15,-5.51 61.3,-20.04 32.84,-17.9 106.01,-25.17 85.83,-79.2 -18.85,-33.23 -45.03,-87.21 -7.23,-115.5 23.82,-33.92 76.96,-41.38 104.33,-5.55 37.94,38.9 9.17,82.34 -6.08,122.32 -8.74,33.64 34.09,48.26 55.54,63.26 57.01,1.38 58.31,68.42 63.75,109.2 5.57,44.29 5.47,88.85 15.24,132.49 -0.99,60.66 -25.25,118.38 -26.74,179.13 2.05,33 -37.14,46.44 -32.44,78.5 -10.38,44.16 -21.8,91.4 -4.56,135.58 15.31,61.54 -2.13,123.92 -12.89,184.51 -8.8,39.97 21.47,71.24 33.09,107.03 -1.37,21.52 -21.94,37.85 -43.06,32.17 z m 12.55,-5.09 c -20.036,-4.244 -1.077,-39.424 8.65,-6.787 10.45,6.16 -18.878,-28.034 -1.345,-20.572 2.24,-17.664 25.1,29.513 7.56,-4.8 17.11,1.833 -14.21,-57.95 -31.74,-67.238 13.55,-33.786 13.1,-77.844 22.02,-115.825 7.99,-42.86 7.43,-90.937 -11.47,-129.927 2.44,-21.188 6.59,-42.18 -4.75,-45.53 8.11,-29.105 44.6,-87.005 -5.46,-88.24 2.49,-16.88 35.52,-77.99 -3.66,-46.354 -40.52,-7.65 25.03,-43.8 20,-69.162 2.31,-36.47 -17.36,-67.824 -10.85,-100.712 -15.94,-42.003 8.33,-81.942 2.7,-124.452 -3.33,-25.555 -50.38,6.805 -71.77,-6.114 -34.74,-15.67 -73.17,15.488 -113.12,-2.237 -18.57,-13.67 -29.53,-18.355 -22.14,9.9 10.371,45.455 17.821,90.635 4.941,134.955 16.57,15.22 -16.53,20.575 -5.348,46.28 -2.418,28.52 -16.97,56.16 -7.424,85.62 10.88,49.035 0.22,102.818 22.39,148.865 10.17,5.347 18.76,26.496 0.84,13.288 1.066,31.987 26.187,57.06 8.537,75.522 -2.485,65.477 25.966,127.167 28.865,191.88 0,31.576 -44.643,47.374 -56.405,57.537 21.95,5.517 -32.55,38.18 5.903,14.928 26.9,-10.28 -33.67,28.9 10.194,4.425 22.58,1.878 -51.685,29.943 -3.235,25.033 35.4,-3.97 41.22,-43.133 70,-59.245 35.95,20.617 16.45,-52.93 14.63,-77.475 -11.586,-35.02 5.53,-68.194 0.083,-100.426 14.553,-22.173 12.286,-84.916 -2.495,-87.7 -2.546,55.866 -13.83,-16.475 1.254,-31.998 9.57,-43.177 -4,-87.817 5.51,-131.16 6.17,-26.052 -38.51,-23.34 -23.08,-56.725 -3.6,-27.59 -37.03,-42.51 -39.89,-75.87 -19.25,-41.07 21.04,14.87 19.62,31.19 24.68,20.28 27.45,42.74 30.6,72.62 20.78,13.18 -14.36,-41.77 8.14,-43.51 -4.24,17.88 9.9,57.62 10.28,18.8 -3.48,-29.01 13.1,-25.22 6.99,1.32 -3.64,20.51 -4.24,40.04 5.41,7.98 -10.77,-21.25 15.42,-52.9 5.17,-13.79 -10.28,43.31 7.42,82.3 11.01,127.68 -0.01,48.27 9.12,95.3 33.02,137.47 9.65,53.39 -24.1,-61.47 -21.75,-2.33 -5.4,38.26 21.44,69.67 16.22,106.77 18.04,21.94 9.06,60.67 8.9,93.88 24.77,32.02 -3.21,92.28 44.28,103.32 l 2.15,-1.13 z m -130.11,-93.6 c -4.248,-14.172 6.405,-74.734 6.976,-30.457 -3.22,6.045 4.066,33.238 -6.975,30.458 z m 79.685,-223.008 c -10.97,-11.79 -16.94,-78.674 -3.18,-31.742 -5.7,13.202 28.98,38.113 3.18,31.742 z m 25.77,0.14 c 1.22,-37.662 21.42,-10.532 0,0 z m 3.35,-34.718 c -6.04,-23.81 16.29,-33.65 5.23,-3.73 0.87,2.27 -3.08,7.98 -5.24,3.72 z m -149.78,-1.59 c -5.54,-16.63 -20.11,-44.28 6.08,-21.2 28.51,8.27 -11.02,8.48 -6.08,21.19 z m 87.06,-233.71 c 17.9,-20.53 29.91,-56.99 48.12,-79.73 -8.31,26.43 -20.4,65.6 -48.12,79.72 z m -41.9,-97.43 c 2.96,-22.58 26.37,7.05 0,0 z m -43.14,-43.69 c 27.93,-13.55 19.05,-85.28 60.43,-72.28 -42.08,3.09 -20.09,69.46 -60.44,72.28 z m 106.13,-0.86 c -10.38,-19.59 -39.51,-63.82 -35.58,-72.71 18.6,18.43 32.95,56.59 40.37,74.16 l -4.8,-1.46 z m 77.57,711.95 c -7.44,-9.39 1.65,7.22 0,0 z m -240.51,-36.54 c 4.01,-7.63 -8.44,6.74 0,0 z m 187.68,-7.98 c -5.22,-47.53 -22.95,11.34 0,0 z m 32.55,-422.98 c 11.65,-14.57 35.42,-75.59 20.28,-24.57 -9.04,16.32 -13.64,34.44 1.68,8.37 -1.28,-28.29 31,-31.97 13.04,-1.17 24.25,-35.5 8.32,-80.95 24,-119.85 11.48,-45.01 22.63,-92.86 5.16,-138 -3.57,-27.63 2.37,-57.03 -6.78,-83.77 -19.25,26.83 10.03,-58.03 -13.65,-71.16 -6.23,-32.37 -52.64,-25.91 -60.7,-36.79 -2.48,-10.76 -40.34,-42.17 -41.26,-20.26 -5.3,-21.83 -0.34,-52.1 -24.85,-19.81 -21.78,31.87 -58.13,-26.49 -58.55,16.07 -17.94,7.92 -55.33,33.31 -11.33,27.07 20.93,-6.79 44.45,5.81 8.06,5.18 -36.05,0.12 -89.13,-9.68 -104.01,34.74 15.57,12.81 -56.92,16.22 -31.01,48.02 7.04,14.68 0.93,59.67 -4.12,19.51 -5.01,-39.52 -22.21,-77.1 -14.34,-117.81 -5.28,-33.38 40.7,-67.47 38.42,-87.88 -24.29,10.65 -51.31,39.52 -60.05,53.84 -11.25,-30.04 48.22,-33.31 26.51,-68.75 2.99,-19.14 -2.45,-56.63 -5.98,-15.42 8.45,36.61 -50.67,27.58 -29.85,-7.95 2.1,-35.24 -13.19,29.22 -8.25,38.76 -37.39,22.63 19.55,66.62 -2.97,97.49 -3.11,35.24 -14.89,76.79 -1.08,109.02 -16.1,61.39 62.54,49.37 88.11,16.36 18.68,-15.77 1.21,20.14 21.18,-4 31.71,-18.16 6.8,-68.1 8.38,-73.66 28.99,6.67 3.45,75.04 52.67,68.97 42.27,10.64 70.78,-21.26 109.02,-0.26 46,16.85 64.01,-29.92 72.78,-56.51 -9.18,42.19 -11.55,87.46 2.34,129.37 -0.27,16.23 34.58,41.72 16.63,51.65 -16.53,-45.16 -1.41,56.82 -4.73,74.17 12.93,38.37 -19.11,51.87 -32.04,81.26 -34.26,34.66 6,7.06 23.61,3.51 -0.3,14.79 -23.46,58.23 -16.38,64.23 z M -122,336.55 c -14.71,-22.02 32.77,-0.68 0,0 z m -150.96,-0.22 c -16.86,-21.49 30.454,-0.04 0,0 z m -55.39,-16.15 c 16.74,-33.08 25.986,-1.66 0,0 z m 138.155,-15.466 c 0.08,-27.97 18.75,1.55 0,0 z m 0.913,-19.77 c -3.76,-26.82 16.777,0.1 0,0 z m -89.503,-35.107 c 1.737,-18.16 26.887,-2.546 0,0 z m 168.88,-1.977 c -15.11,-34.084 27.35,16.11 0,0 z m -88.496,-11.426 c -10.03,-15.028 45.47,-7.82 0,0 z m 53.09,-3.49 c -21.06,1.39 -44.41,-14.3 -8.98,-8.24 20.08,0.2 58.36,6.847 15.58,9.105 l -6.61,-0.87 z m -49.95,-12.38 c -27.04,-20.294 17.55,2.43 17.41,-26.556 15.76,-10.27 -10.42,33.846 -17.41,26.56 z M -67.1,687.23 c 5.63,-12.778 -12.197,11.905 0,0 z m -8.492,-111.38 c 5.184,-47.803 1.068,-97.006 -4.806,-144.108 -8.554,-57.677 -24.225,15.42 -11.948,34.54 2.57,37.94 8.3,78.133 14.62,114.257 l 2.133,-4.69 z m -118.18,-390.076 c 25.48,-6.73 47.154,-38.194 35.057,-50.89 26.85,-24.388 -11.504,-45.16 -17.504,-63.8 -22.59,4.41 -39.52,-3.38 -56.25,19.07 -15.28,3.24 -18.93,-1.85 -6.1,13.753 -0.89,28.604 6.08,83.246 44.81,81.866 z m -11.04,-13.127 c -6.633,-14.24 31.66,4.087 0,0 z m -14.25,-9.937 c 0.616,-20.874 67.7,1.56 17.27,0.998 -5.705,-0.37 -11.744,1.243 -17.27,-0.997 z m 4.65,-14.606 c -14.923,-28.22 24.313,13.923 27.88,-14.41 17.116,18.95 -18.53,14.662 -27.88,14.41 z m 7.99,-9.584 c 15.756,-25.44 -51.035,-19.713 -16.18,-28.91 30.896,0.1 -41.116,-9.16 6.558,-8.486 16.09,0.88 19.31,30.25 9.62,37.396 z m 22.49,-19.088 c -17.583,-16.533 43.987,-6.093 8.776,0.06 l -8.772,-0.06 z m 15.007,-12.3 c -63.885,0.22 26.996,-11.54 0,0 z m -268.87,20.24 c 1.956,-18.76 -9.243,-49.117 -8.295,-14.103 1.45,2.79 1.735,25.48 8.295,14.1 z m 304.028,-10.165 c 1.862,-22.57 -20.643,28.163 0,0 z m -269.61,-19.27 c 3.806,-24.177 0.872,-44.008 -5.016,-8.918 -7.14,13.64 6,45.85 5.014,8.91 z m -12.702,3.196 c -1.34,-9.285 -0.89,11.857 0,0 z m 276.57,1.138 c -2.77,-16.72 8.91,-32.24 8.08,-6.39 15.15,-22.36 -14.67,-36.09 -16.85,-60.21 -10.25,-4.69 -13.24,27.89 -13.95,-1.68 -19.94,-40.55 -73.11,-0.91 -90.7,22.76 -3.58,14.71 -8.86,59.15 2.86,22.25 24.29,13.24 45.61,-32.75 65.56,-11.16 12.66,-11.21 29.99,-25.15 18.54,2.41 -2.43,13.61 19.42,31.09 26.5,32.05 z m -255.73,-16.9 c -1.63,-23.63 -3.32,29.16 0,0 z"
       id="path408" />
    <path
       d="m 385.138,1178.418 c -2.906,-1.353 -7.565,-4.617 -10.353,-7.254 -2.79,-2.638 -5.767,-4.795 -6.62,-4.795 -3.168,0 -8.84,-3.81 -11.764,-7.89 -1.66,-2.32 -5.71,-9.32 -9.01,-15.56 -6.19,-11.71 -8.66,-14.31 -15.07,-15.84 -6.39,-1.53 -14.73,-7.79 -17.49,-13.14 -1.79,-3.47 -1.76,-11.67 0.08,-17.71 1.99,-6.55 1.82,-14.85 -0.41,-20.54 -1.02,-2.6 -3.04,-8.44 -4.48,-12.96 -5.85,-18.4 -20.33,-47.39 -44.01,-88.14 -13.48,-23.2 -16.42,-29.63 -20.57,-44.98 -1.86,-6.87 -2.08,-9.91 -1.88,-25.4 l 0.23,-17.61 -4.56,-7.58 c -2.51,-4.17 -6.16,-10.2 -8.11,-13.39 -7.93,-13 -17.2,-36.63 -22.22,-56.66 -8.26,-32.91 -17.72,-61.74 -26.39,-80.38 -4.87,-10.47 -11.82,-26.13 -13.97,-31.48 -4.06,-10.08 -5.17,-12.23 -6.01,-11.7 -0.45,0.28 -1.08,6.51 -1.4,13.85 -0.32,7.34 -1.05,18.14 -1.62,23.99 -2.72,27.96 -2.79,38.62 -0.37,60.05 2.89,25.61 2.87,27.63 -0.32,41.16 -1.44,6.12 -2.56,12.66 -2.5,14.52 0.2,5.69 2.2,15.6 4.68,23.24 5.48,16.83 6.57,40.86 2.91,63.91 -1.09,6.84 -1.73,18.1 -1.97,34.38 -0.19,13.32 -1.12,34.87 -2.07,47.89 l -1.71,23.68 2.96,11.19 c 1.63,6.15 4.8,16.85 7.04,23.77 6.96,21.47 5.6,24.64 -14.91,34.69 -7.26,3.56 -14.32,7.67 -15.68,9.14 -2.98,3.21 -5.76,8.48 -8.21,15.61 -3.95,11.48 -9.29,17.74 -16.84,19.72 -2.65,0.69 -6.79,2.42 -9.18,3.83 -2.4,1.41 -7.47,3.5 -11.28,4.64 l -6.92,2.08 -6.15,-2.89 c -8.79,-4.12 -11.5,-7.26 -11.46,-13.28 0.02,-2.63 -0.03,-6.09 -0.11,-7.69 -0.27,-5.55 1.75,-18.5 3.45,-22.08 2.03,-4.28 6,-7.81 11.89,-10.58 5.44,-2.55 12.41,-9.32 17.01,-16.51 1.97,-3.07 3.58,-5.78 3.58,-6.02 0,-0.24 2.14,-3.83 4.74,-7.97 2.61,-4.15 5.03,-8.89 5.38,-10.54 0.84,-4 -0.9,-17.47 -3.9,-30.23 -3.08,-13.15 -15.62,-64.41 -16.88,-69.05 -0.52,-1.93 -0.95,-4.79 -0.95,-6.36 0,-1.57 -0.92,-6.31 -2.04,-10.54 -4.44,-16.7 -7.06,-31.93 -9.66,-56.11 -1.08,-10.04 -0.39,-21.66 1.97,-33.34 1.14,-5.61 1.41,-9.4 0.87,-12.1 -0.43,-2.17 -1.91,-10.16 -3.27,-17.75 -1.64,-9.15 -3.75,-17.02 -6.26,-23.33 -2.07,-5.24 -9.07,-25.39 -15.56,-44.79 -13.04,-39.01 -11.56,-36.12 -26.93,-52.59 -6.32,-6.77 -9.17,-10.79 -12.44,-17.52 -2.33,-4.81 -5.7,-11.5 -7.49,-14.87 -5.06,-9.55 -5.07,-13.16 -0.05,-20.5 3.41,-4.99 8.06,-19.82 9.74,-31.06 1.26,-8.4 1.32,-14.18 0.44,-39.51 -2.44,-70.2 -0.63,-104.99 6.28,-121.19 5.32,-12.47 10.41,-26.83 11.79,-33.27 1.12,-5.25 1.65,-17.25 2.2,-49.54 0.66,-38.87 0.91,-43.41 2.83,-51.62 2.65,-11.32 7.55,-21.14 13.28,-26.63 4.62,-4.44 15.22,-10.77 22.7,-13.57 10.07,-3.77 12.86,-7.21 15.37,-18.91 0.6,-2.81 1.82,-6.5 2.7,-8.2 1.29,-2.49 1.59,-5.87 1.54,-17.15 -0.07,-15.78 -1.23,-21.8 -7.85,-40.83 -5.03,-14.48 -5.52,-18.52 -3.59,-29.62 0.86,-4.92 2.21,-15.16 3,-22.76 1.59,-15.31 3.4,-20.17 11.44,-30.68 9.99,-13.05 16.22,-17.39 49.22,-34.22 10.21,-5.21 28.79,-5.19 37.54,0.03 6.34,3.79 16.31,14.68 23.7,25.88 3.51,5.33 7.64,11.43 9.17,13.56 1.54,2.13 4.66,7.36 6.93,11.62 2.28,4.26 4.5,8.4 4.94,9.2 2.44,4.45 5.79,17.23 6.62,25.28 0.53,5.08 0.96,22.34 0.97,38.36 0.01,27.76 0.12,29.66 2.52,40.6 1.39,6.31 3.1,14.31 3.82,17.77 1.9,9.17 1.95,9.24 9.9,13.61 10.22,5.61 14.8,10.22 22.68,22.85 7.79,12.48 10.82,20.92 12.39,34.51 2.5,21.67 2.81,26.03 2.92,40.78 0.18,24.18 2.41,45.98 6.81,66.76 1.04,4.89 2.32,11.94 2.86,15.67 0.53,3.73 1.48,9.83 2.11,13.56 1.44,8.58 1.48,40.4 0.07,53.75 -1.17,11.06 -3.13,19.65 -9.04,39.61 -2.27,7.67 -4.61,18.55 -5.72,26.63 -1.03,7.51 -2.51,15.95 -3.28,18.75 -1.28,4.65 -1.24,5.72 0.46,12.19 3.54,13.53 5.52,29.47 4.77,38.4 -0.4,4.8 -0.28,10.24 0.29,13.05 0.54,2.64 0.72,8.32 0.39,12.62 -0.42,5.48 -0.07,11.1 1.19,18.91 1.42,8.82 1.83,17.47 2,42.1 0.34,48.56 1.35,62.88 5.41,76.99 2.51,8.7 3.39,12.68 4.47,20.33 3.63,25.62 4.44,28.97 8.54,35.25 5.45,8.36 13.31,26.28 15.46,35.24 0.99,4.1 2.7,10.51 3.8,14.24 2.25,7.59 4.57,20.78 5.45,30.99 1.04,12.02 2.61,25.07 6.46,53.75 2.26,16.79 4.89,32.8 6.23,37.89 2.68,10.17 8.86,23.57 15.26,33.1 9.05,13.47 10.42,15.1 23.67,28.18 15.1,14.92 17.24,18.99 16.84,32.05 -0.66,21.73 -1.67,26.78 -6.07,30.56 -3.23,2.78 -8.26,4.78 -11.97,4.78 -1.06,0 -4.31,-1.11 -7.22,-2.46 z m 15.346,-4.724 c 3.312,-3.31 2.254,-5.013 -5.456,-8.778 -9.196,-4.49 -15.133,-11.286 -11.185,-12.8 0.995,-0.383 2.633,0.782 4.847,3.448 2.368,2.85 4.087,4.026 5.887,4.026 2.523,0 2.512,-0.03 -1.41,-4.117 -5.1,-5.312 -6.11,-9.75 -2.72,-11.97 1.317,-0.862 2.395,-2.375 2.395,-3.36 0,-0.986 0.872,-2.258 1.937,-2.828 1.11,-0.596 1.93,-2.028 1.93,-3.367 0,-3.835 2.04,-4.024 5.01,-0.465 2.01,2.416 2.73,2.827 2.73,1.568 0,-2.79 -2.86,-7.63 -7.09,-12.02 -4.86,-5.03 -6.72,-5.32 -6.3,-0.97 0.25,2.65 -0.05,3.2 -1.9,3.46 -1.88,0.27 -2.62,-0.64 -5.13,-6.29 -5.32,-11.99 -7.95,-16.85 -11.59,-21.44 -5.19,-6.55 -10.64,-15.34 -9.94,-16.04 0.33,-0.33 0.06,-0.6 -0.59,-0.6 -1.36,0 -7.65,-12.98 -10.68,-22.03 -3.36,-10 -9.49,-50.35 -13.08,-85.95 -2.08,-20.63 -4.16,-33.33 -6.89,-42.13 -1.24,-3.99 -2.57,-9 -2.95,-11.13 -1.73,-9.64 -12.13,-33.86 -14.24,-33.16 -0.64,0.22 -1.55,2.45 -2.01,4.96 -0.72,3.91 -1.14,4.53 -2.91,4.28 -2,-0.28 -2.09,-0.91 -2.72,-17.72 -0.36,-9.59 -1.12,-18.95 -1.7,-20.81 -0.58,-1.86 -1.05,-5.59 -1.05,-8.29 0,-4.46 -0.76,-7.95 -5.37,-24.64 -3.61,-13.04 -4.43,-24.06 -4.89,-65.85 -0.41,-36.39 -1.28,-53.26 -2.99,-57.72 -1.34,-3.48 -4.97,-0.34 -10.41,9 -1.92,3.3 -4.3,6.25 -5.3,6.57 -1,0.31 -3.37,2.08 -5.27,3.93 -1.91,1.85 -4.13,3.37 -4.93,3.37 -0.81,0 -3,-1.53 -4.86,-3.39 -1.87,-1.86 -3.81,-3.39 -4.32,-3.39 -0.52,0 -1.62,-0.68 -2.46,-1.52 -2.43,-2.43 -1.88,-9.66 1.35,-17.85 3.11,-7.87 3.82,-16.62 1.92,-23.49 -1.62,-5.82 -3.53,-4.33 -6.29,4.92 -2.44,8.17 -9.1,12.92 -13.06,9.33 -1.71,-1.54 -1.9,-3.01 -1.87,-14.4 0.02,-7.28 0.62,-15.36 1.42,-18.97 0.76,-3.46 1.4,-9.26 1.42,-12.88 0.06,-11.53 3.15,-22.11 9.26,-31.64 1.2,-1.87 2.65,-5.59 3.22,-8.25 0.95,-4.44 2.76,-34.05 2.77,-45.52 0,-2.66 0.29,-11.26 0.64,-19.11 l 0.64,-14.27 -3.33,-10.07 c -3.62,-10.92 -7.85,-20.2 -14.47,-31.71 -9.12,-15.84 -9.07,-16.67 3.12,-55.5 2.78,-8.86 4,-18.98 2.28,-18.96 -0.4,0.01 -3.18,2.11 -6.17,4.67 -11.24,9.62 -22.62,11.66 -37.66,6.75 -8.14,-2.66 -19.76,-10.48 -22.52,-15.16 -3.31,-5.59 1.26,-8.42 5.03,-3.12 3.07,4.3 12.69,10.26 21.1,13.06 4.14,1.38 8.24,2.51 9.11,2.51 1.96,0 10.73,-2.59 15.63,-4.62 3.79,-1.57 11.35,-8.95 11.37,-11.1 0,-0.67 1.08,-3.41 2.39,-6.07 4.34,-8.84 2.82,-22.32 -3.53,-31.11 -4.56,-6.31 -5.03,-7.92 -3.18,-10.75 1.16,-1.77 1.36,-3.37 0.81,-6.4 -1.27,-6.94 -0.18,-8.61 5.16,-7.96 4.89,0.6 5.21,1.14 5.05,8.61 -0.16,7.23 1.47,23.21 2.54,24.94 0.34,0.55 0.98,9.36 1.42,19.59 0.5,11.71 1.33,20.19 2.23,22.94 0.79,2.4 1.91,7.21 2.49,10.7 1.56,9.4 3.6,15.55 6.41,19.34 4.29,5.79 10.85,22.28 9.64,24.24 -0.76,1.23 -4.06,1.2 -4.82,-0.03 -2.07,-3.34 -2.39,0.78 -1.8,22.55 0.45,16.45 0.3,25.4 -0.5,29.78 -0.63,3.45 -1.32,10.62 -1.54,15.95 -0.22,5.33 -0.84,11.86 -1.36,14.53 -0.53,2.67 -1.21,14.43 -1.5,26.15 -0.63,24.44 -1.85,31.38 -6.86,38.73 -4.01,5.89 -7.27,17.23 -7.27,25.31 0,3.31 -1.12,10.22 -2.51,15.52 -2.03,7.73 -2.43,11.16 -2.13,18 0.41,9.12 0.93,10.44 3.46,8.85 2.62,-1.64 8.22,-20.59 9.8,-33.15 0.48,-3.85 1.4,-7.62 2.04,-8.39 2.29,-2.76 3.01,-0.31 2.39,8.11 -0.55,7.49 -0.35,9.15 1.93,15.64 1.67,4.77 2.74,10.26 3.1,15.98 0.5,7.96 0.32,9.3 -2.1,15.35 -2.81,7.01 -4.25,14.24 -2.81,14.12 0.86,-0.07 8.16,-14.34 10.12,-19.78 0.57,-1.6 1.43,-7.62 1.9,-13.39 0.89,-10.92 3.08,-17.6 5.79,-17.6 1.07,0 1.43,1.07 1.37,4.12 -0.05,2.27 0.04,4.12 0.2,4.12 0.15,0 1.45,-1.17 2.88,-2.6 l 2.6,-2.6 1.71,2.12 c 1.93,2.39 3.36,2.68 4.46,0.9 1.33,-2.15 2.1,-13.66 1.24,-18.64 -0.46,-2.67 -1.53,-8.95 -2.38,-13.97 -0.85,-5.03 -2.83,-12.15 -4.4,-15.84 -3.62,-8.51 -3.63,-10.22 -0.04,-11.47 3.3,-1.15 3.57,-2 5.03,-15.52 0.69,-6.42 2.92,-16.47 6.18,-27.94 7.24,-25.4 8.02,-29.45 9.31,-48.2 1.77,-25.64 0.15,-46.52 -5.8,-74.83 -3.36,-16 -4.9,-31.53 -6.4,-64.51 -1.57,-34.66 -2.51,-43.99 -5.37,-53.38 -2.19,-7.2 -2.52,-7.87 -9.47,-19.12 -6.76,-10.95 -10.56,-15.02 -17.84,-19.07 -3.17,-1.76 -6.71,-3.78 -7.86,-4.47 -2.58,-1.56 -11.01,-0.91 -17.1,1.32 -11.23,4.12 -18.13,5.37 -32.65,5.94 -15.79,0.61 -18.65,0.01 -16.74,-3.56 0.79,-1.49 2.82,-1.77 15.23,-2.18 11.33,-0.37 16.44,-1.01 24.48,-3.09 5.59,-1.44 10.82,-3.27 11.62,-4.07 1.46,-1.46 0.64,-2.49 -6.517,-8.17 -3.808,-3.02 -13.22,-7.76 -17.17,-8.65 -6.39,-1.43 -9.13,-3.02 -14.49,-8.41 -6.01,-6.05 -7.8,-10.19 -9.73,-22.59 -0.874,-5.59 -2.134,-10.72 -2.8,-11.39 -0.975,-0.99 -2.334,-0.35 -6.97,3.26 -12.12,9.43 -26.72,15.22 -40.625,16.12 l -3.87,0.25 -0.72,8.23 c -1.91,21.87 -1.88,21.75 -5.08,22.12 -1.656,0.19 -4.56,1.86 -6.78,3.9 -2.14,1.97 -7.05,5.75 -10.91,8.39 -3.86,2.65 -7.02,5.35 -7.02,6.01 0,0.9 5.07,1.26 20.56,1.45 18.69,0.24 20.6,0.42 20.9,1.96 0.55,2.83 -3.26,3.42 -24.4,3.78 l -20.13,0.34 -2.29,-2.66 c -2.23,-2.59 -5.61,-3.52 -6.66,-1.83 -0.28,0.46 -4.12,2.27 -8.53,4.02 -19.85,7.88 -27.3,16.3 -31.863,36.01 -1.92,8.3 -2.11,12.07 -2.35,47.27 -0.29,41.93 -1.35,53.767 -5.89,65.728 -1.34,3.54 -3.48,9.35 -4.74,12.93 -1.27,3.58 -2.93,7.72 -3.69,9.2 -6.41,12.48 -7.66,37.31 -6.41,127.64 0.39,28.02 0.23,32.85 -1.25,39.22 -2.04,8.75 -8.07,24.67 -10.71,28.26 -2.608,3.54 -1.76,7.06 4.02,16.72 2.56,4.29 5.49,9.97 6.5,12.63 1.22,3.218 4.102,7.2 8.59,11.868 3.713,3.867 7.08,7.03 7.48,7.03 1.6,0 -2.55,-7.5 -6.68,-12.08 -5.358,-5.93 -6.55,-8.65 -8.978,-20.443 -1.04,-5.05 -2.336,-10.02 -2.876,-11.03 -2.49,-4.66 0.26,-8.61 3.78,-5.42 1.81,1.64 3.74,7.73 5.92,18.71 0.66,3.33 1.765,6.82 2.45,7.75 2.52,3.42 2.76,-1.66 0.58,-12.25 -2.2,-10.74 -2.69,-26.24 -1.16,-36.89 0.65,-4.5 4.99,-25.49 8.61,-41.64 1.27,-5.64 1.91,-13.43 3.09,-37.77 0.68,-14 1.56,-22.29 2.98,-28.09 2.08,-8.54 8.65,-22.1 15.48,-31.96 2.67,-3.86 4.1,-7.33 5.18,-12.59 0.817,-4 2.14,-9.66 2.947,-12.59 3.45,-12.6 7.4,-33.19 7.99,-41.67 0.46,-6.69 0.31,-7.52 -1.87,-10.17 -3.76,-4.57 -9.15,-14.09 -10.85,-19.13 -3.04,-9.08 -0.855,-26.57 4.7,-37.55 2.29,-4.53 2.61,-6.11 2.21,-11.18 -0.51,-6.51 0.39,-9.1 3.14,-9.1 1.89,0 2.29,1.14 3.48,9.84 0.53,3.84 0.12,5.62 -2.78,12.1 -4.27,9.55 -6.91,22.18 -6.03,28.83 0.71,5.34 4.78,13.73 9.34,19.26 3.514,4.27 8.12,5.72 18.36,5.81 6.2,0.05 8.28,-0.38 13.56,-2.87 3.43,-1.61 9.16,-5.18 12.74,-7.93 7.08,-5.44 8,-5.79 8.91,-3.41 0.91,2.36 -1.72,5.71 -8.22,10.5 -9.35,6.89 -15.06,9.24 -24.25,10 l -8.12,0.67 0.31,14.53 c 0.26,12.12 -0.01,15.755 -1.64,21.95 -3.49,13.335 -8.46,22.08 -20.1,35.32 -3.81,4.33 -8.7,10.875 -10.88,14.535 -8.23,13.85 -9.13,18.96 -11.69,66.2 -0.475,8.79 -1.323,17.17 -1.88,18.62 -0.56,1.45 -1.68,6.46 -2.5,11.13 -0.82,4.675 -2.59,13.295 -3.93,19.155 -3.35,14.624 -4.02,28.46 -1.94,40.19 0.9,5.06 2.21,12.69 2.92,16.95 1.58,9.51 2.63,13.564 5.75,22.27 1.34,3.73 2.45,8.753 2.46,11.17 0.03,5.63 0.81,8.28 12.43,42.58 11.41,33.643 16.02,45.51 21.72,55.83 7.26,13.143 8.06,16.8 3.68,16.8 -1.63,0 -1.966,0.63 -1.96,3.64 0.01,5.792 3.424,15.47 6.94,19.67 1.77,2.12 5.11,5.8 7.41,8.18 5.16,5.323 5.14,7.87 -0.05,7.47 -3.53,-0.27 -3.54,-0.26 -3.004,3.03 1.084,6.69 -3.37,5.55 -7.6,-1.938 -2.38,-4.22 -3.21,-5.01 -4.29,-4.11 -1.864,1.55 -1.82,18.85 0.086,31.39 0.81,5.32 2.12,14.04 2.9,19.37 0.79,5.32 2.33,13.38 3.43,17.91 1.09,4.53 2.64,11.5 3.44,15.5 2.75,13.71 9.52,43.34 11.63,50.843 0.74,2.664 2.2,8.55 3.24,13.075 1.03,4.53 3.083,13.25 4.56,19.37 2.28,9.48 2.68,13.16 2.66,24.7 -0.02,16.31 -0.71,20.82 -3.2,20.82 -0.97,0 -2.32,-0.66 -2.99,-1.466 -1.63,-1.97 -2.97,-0.77 -7.42,6.67 -5.86,9.82 -11.11,15.27 -19.39,20.18 -4.76,2.83 -8.14,5.55 -8.87,7.14 -1.24,2.73 -1.42,2.68 3.15,0.83 1.48,-0.61 6.394,4.11 6.394,6.14 0,2.53 -2.98,8.27 -6.76,13.02 -5.17,6.49 -4.94,8.38 0.26,2.22 8.98,-10.61 10.18,-11.71 11.45,-10.45 1.52,1.5 0.39,4.15 -4.5,10.55 -2.1,2.75 -3.1,4.8 -2.44,5.02 1.58,0.528 7.19,-3.52 9.37,-6.752 1.94,-2.89 3.88,-4.07 5.27,-3.21 2.33,1.44 -3.57,9.32 -10.13,13.52 -6.01,3.84 -7.76,5.78 -7,7.77 1.44,3.73 7.15,2.64 18.65,-3.56 3.8,-2.045 7.66,-3.72 8.59,-3.72 3.17,0 8.79,-3.99 11.34,-8.05 2.69,-4.28 5.27,-10.94 8.9,-22.94 1.21,-3.99 3.1,-9.01 4.21,-11.14 2.61,-5.01 7.72,-10.17 10.08,-10.17 2.41,0 3.39,2.65 1.88,5.06 -0.653,1.05 -0.95,2.15 -0.66,2.44 0.83,0.83 9.28,-2.58 14.458,-5.83 7.65,-4.8 7.986,-8.69 2.175,-24.97 -3.43,-9.61 -5.38,-11.96 -5.44,-6.55 -0.04,3.9 -2.24,14.5 -3.4,16.38 -0.46,0.74 -0.72,2.69 -0.58,4.34 0.15,1.75 -0.34,3.49 -1.19,4.194 -1.19,0.99 -1.7,0.8 -2.9,-1.04 -1.29,-1.99 -1.293,-3.14 -0.05,-9.99 1.85,-10.21 1.846,-18.54 -0.01,-24.8 -2.3,-7.73 -2,-12.14 1,-14.92 2.37,-2.2 2.586,-3.2 3.86,-18.11 1.22,-14.24 3.02,-59.21 2.964,-73.9 -0.01,-3.19 0.73,-10.82 1.65,-16.95 2.68,-17.89 3.06,-31.78 1.2,-44.36 -1.51,-10.197 -5.4,-23.627 -7.49,-25.84 -1.69,-1.786 -2.73,1.78 -2.75,9.36 -0.02,8.71 -0.54,10.49 -3.06,10.49 -2.64,0 -3.5,-3.18 -3.28,-12.11 0.14,-5.79 0.83,-9.344 2.72,-14.046 1.39,-3.47 3.904,-11.09 5.58,-16.95 4.293,-15.02 4.63,-24.42 1.843,-51.39 -2.24,-21.66 -2.24,-21.86 -0.59,-41.36 2.64,-31.23 3.81,-57.38 3.06,-68.34 l -0.69,-10.15 -7.88,-8.33 c -4.34,-4.58 -9.41,-9.994 -11.28,-12.04 -3.59,-3.93 -15.79,-21.23 -19.82,-28.1 -1.32,-2.25 -7.42,-9.43 -13.55,-15.95 C 89,582.44 87.92,580.85 90,578.77 c 0.937,-0.936 1.962,-1.152 2.914,-0.613 4.146,2.346 24.978,26.25 32.338,37.107 4.53,6.68 9.464,13.89 10.965,16.02 4.236,6.014 17.386,19.105 18.688,18.605 0.64,-0.25 1.713,-2.49 2.38,-4.99 2.514,-9.4 17.106,-27.19 21.738,-26.51 3.6,0.53 2.946,2.35 -3.415,9.51 -9.87,11.12 -12.37,15.92 -12.99,24.93 -0.434,6.35 -0.188,8.36 1.483,12.14 1.11,2.49 3.38,9.37 5.06,15.29 1.68,5.92 5.19,15.51 7.81,21.31 2.62,5.8 4.76,10.79 4.76,11.1 0,0.31 2.15,4.99 4.78,10.42 5.51,11.37 13.86,32.91 16.59,42.78 1.03,3.73 2.78,9.83 3.88,13.56 2.17,7.34 3.03,10.51 7.58,27.87 6.83,26.04 16.56,49.08 27.36,64.82 0.99,1.44 1.81,2.97 1.81,3.39 0.01,0.42 1.61,2.51 3.58,4.64 3.77,4.09 10.91,18.81 10.94,22.55 0.03,3.23 -2.81,3.9 -5.01,1.18 -3.11,-3.84 -3.95,-1.32 -3.45,10.32 0.74,17.07 6.45,32.57 20.47,55.53 2.44,3.99 6.68,11.62 9.42,16.94 2.74,5.32 5.75,10.77 6.69,12.1 2.17,3.08 18.08,34.81 22.58,45.04 1.87,4.26 5.17,12.97 7.31,19.37 6.77,20.15 7.52,22.07 12.11,31.13 4.51,8.91 5.23,11.39 3.61,12.39 -1.82,1.13 -4.13,-0.83 -6.51,-5.52 -2.25,-4.45 -2.59,-4.72 -4.01,-3.3 -0.95,0.96 -1.71,3.82 -1.98,7.46 -0.39,5.45 -0.21,6.12 2.33,8.77 3.14,3.28 10.2,7.65 12.35,7.65 2.15,0 2.46,-2.04 0.84,-5.48 -2.75,-5.82 0.93,-8.45 4.6,-3.29 2.65,3.72 4.7,8.67 6.99,16.92 2.04,7.32 11.32,24.49 15.49,28.67 1.45,1.45 4.62,3.13 7.05,3.74 3.16,0.79 5.79,2.48 9.24,5.9 9.1,9.05 16.69,10.9 22.19,5.41 z M 296.982,887.954 c -0.906,-1.09 -0.745,-2.484 0.748,-6.488 2.26,-6.06 4.298,-7.77 6.56,-5.506 1.424,1.423 1.374,1.966 -0.602,6.56 -2.42,5.626 -4.888,7.626 -6.706,5.435 z m -23.353,-5.557 c -7.51,-7.732 -12.13,-21.663 -8.26,-24.876 2.31,-1.92 4.47,0.3 4.48,4.63 0.01,4.88 3.84,12.48 8.59,17.03 4.62,4.43 5.23,7.31 1.56,7.31 -1.58,0 -3.81,-1.43 -6.39,-4.08 z m -165.56,-5.52 c -2.34,-1.976 -2.35,-2.046 -0.51,-3.47 1.03,-0.8 2.87,-1.454 4.08,-1.454 3.39,0 4.25,-2.91 3.98,-13.47 -0.21,-8.045 0.02,-9.963 1.39,-11.34 3.08,-3.103 4.3,-0.37 5,11.263 0.5,8.308 0.34,11.255 -0.73,13.32 -3.22,6.232 -9.2,8.558 -13.23,5.15 z m 75.87,-262.184 c -0.89,-2.303 0.96,-4.665 3.91,-5.017 2.14,-0.256 2.56,0.074 2.56,1.985 0,4.15 -5.13,6.55 -6.48,3.04 z m 20.68,-44.347 c -0.29,-0.76 0.35,-3.702 1.42,-6.538 1.07,-2.835 2.36,-6.524 2.86,-8.198 1.25,-4.213 3.31,-5.816 5.31,-4.15 1.07,0.888 1.36,2.17 0.96,4.233 -0.68,3.502 -4.36,13.097 -5.68,14.824 -1.26,1.637 -4.24,1.533 -4.89,-0.172 z M 84.35,560.88 c -3.56,-4.198 -9.366,-16.793 -8.983,-19.482 0.214,-1.505 0.973,-2.114 2.635,-2.114 1.967,0 2.778,1.048 5.16,6.67 1.553,3.67 3.92,8.325 5.255,10.344 4.346,6.568 0.903,10.445 -4.068,4.58 z m 49.016,-27.493 c -3.546,-2.984 -3.88,-6.438 -0.827,-8.576 2.7,-1.89 4.92,-1.9 8.54,-0.03 3.47,1.8 3.91,6.19 0.92,9.18 -2.6,2.6 -5.07,2.44 -8.64,-0.57 z m 74.593,-56.49 c -1.05,-0.665 -1.22,-2.252 -0.73,-6.965 0.92,-8.8 6.3,-18.295 10.37,-18.295 2.84,0 2.82,2.547 -0.04,7.058 -1.51,2.38 -3.3,6.888 -3.97,10.015 -1.88,8.713 -2.77,10.012 -5.66,8.186 z m -124.28,-75.38 c -1.46,-0.897 -2.83,-2.12 -3.06,-2.718 -0.68,-1.77 0.99,-3.64 3.43,-3.82 1.92,-0.14 2.22,-0.62 1.96,-3.11 -0.35,-3.41 1.48,-4.59 5.06,-3.23 2.9,1.1 3.58,2.19 3.69,5.92 0.05,1.94 -0.72,3.74 -2.25,5.21 -3.24,3.13 -5.76,3.62 -8.84,1.72 z m 133.62,-2.255 c -0.93,-0.543 -1.7,-1.51 -1.69,-2.15 0.01,-3.016 2.24,-8.65 4.47,-11.3 4.36,-5.186 8.14,-3.077 8.07,4.505 -0.04,3.865 -1.97,6.984 -5.52,8.88 -2.5,1.337 -3.15,1.345 -5.35,0.065 z m -67.61,-107.488 c -1.65,-1.65 -1.79,-2.26 -0.78,-3.473 0.77,-0.93 2.15,-1.28 3.77,-0.96 1.79,0.36 3.81,-0.32 6.83,-2.33 5,-3.31 10.01,-3.78 11.47,-1.06 1.08,2.03 -0.3,4.02 -2.78,4.02 -0.83,0 -3.9,1.29 -6.83,2.87 -6.35,3.42 -9,3.63 -11.69,0.94 z m 4.21,-11.576 c -2.22,-0.892 -3.85,-4.896 -2.73,-6.705 0.34,-0.563 1.97,-1.023 3.61,-1.023 4.33,0 5.81,-2.31 11.52,-17.917 3.65,-9.982 6.14,-14.043 8.61,-14.043 2.6,0 2.51,2.356 -0.33,8.838 -1.26,2.863 -3.24,8.116 -4.42,11.674 -3.07,9.312 -7.52,17.047 -10.77,18.73 -1.53,0.788 -2.91,1.406 -3.07,1.373 -0.16,-0.034 -1.26,-0.45 -2.44,-0.927 z m -13.1,-18.14 c -0.83,-0.932 -2.71,-5.745 -4.19,-10.697 -2.51,-8.4 -2.58,-9.11 -1.07,-10.61 1.41,-1.41 1.77,-1.44 2.91,-0.19 1.43,1.56 3.5,7.08 5.95,15.85 1.31,4.69 1.37,5.86 0.32,6.53 -1.81,1.15 -2.25,1.06 -3.94,-0.85 z m 255.57,887.404 c -0.32,-0.822 -1.03,-1.494 -1.58,-1.494 -0.64,0 -0.58,0.694 0.17,1.893 1.33,2.14 2.27,1.88 1.4,-0.39 z m 4.56,-6.82 c -0.59,-1.537 -2.29,-2.016 -2.29,-0.646 0,1.024 1.06,2.098 2.07,2.098 0.43,0 0.53,-0.654 0.22,-1.453 z m -320.91,-21.807 c 0,-1.793 -1.77,-0.954 -4.28,2.034 -3.45,4.09 -2.02,5.96 1.53,1.99 1.51,-1.7 2.75,-3.51 2.75,-4.03 z m 187.45,-409.72 c 0.59,-2.89 2.48,-7.738 4.2,-10.774 2.04,-3.59 3.33,-7.39 3.69,-10.89 0.64,-6.21 -1.16,-7.62 -2.22,-1.74 -0.76,4.14 -5.55,16.71 -7.6,19.9 -0.75,1.18 -1.45,3.01 -1.56,4.07 -0.72,7.27 1.96,6.84 3.47,-0.55 z m 12.05,-10.695 c 0,-0.533 -0.43,-0.7 -0.96,-0.37 -0.54,0.33 -0.97,1.034 -0.97,1.567 0,0.532 0.43,0.7 0.97,0.37 0.53,-0.33 0.96,-1.035 0.96,-1.567 z m 10.64,-17.618 c 0.01,-2.56 -0.36,-4.423 -0.82,-4.137 -1.16,0.714 -2.21,7.79 -1.45,9.767 1.02,2.677 2.25,-0.364 2.27,-5.63 z m -7.36,-4.852 c 0.42,-3.726 0.3,-5.43 -0.35,-5.028 -0.55,0.335 -0.99,3.053 -0.99,6.04 0,6.745 0.5,6.364 1.33,-1.012 z m -26.93,-208.593 c -1.17,-13.853 -2.12,-19.594 -4.87,-29.254 -1.88,-6.61 -3.67,-12.263 -3.97,-12.562 -0.96,-0.95 -2.24,2.03 -6.37,14.81 -2.38,7.36 -4.23,15.17 -4.5,18.99 -0.45,6.23 -0.3,6.79 3.95,14.72 2.43,4.54 5.7,10.16 7.26,12.5 1.56,2.34 3.17,5.34 3.57,6.67 0.4,1.34 1.87,4.6 3.27,7.27 l 2.53,4.84 0.27,-10.36 c 0.15,-5.7 -0.38,-18.12 -1.17,-27.6 z m -171.85,-1.852 c 3.81,-8.24 5.67,-16.925 5.58,-26.037 -0.09,-8.3 -1.12,-13.69 -2.14,-11.137 -0.32,0.8 -2.13,9.1 -4.02,18.45 -1.89,9.35 -3.88,18.5 -4.4,20.33 -0.53,1.84 -0.96,4.16 -0.96,5.16 0,3.13 2.87,-0.14 5.93,-6.76 z m 26.68,-199.15 c 10.4,-8.407 13.87,-13.163 13.87,-19.026 0,-2.53 0.46,-7.1 1.03,-10.17 0.57,-3.07 0.74,-6.91 0.38,-8.54 -0.36,-1.64 -3.5,-7.16 -6.99,-12.28 -11.68,-17.17 -16.92,-32.08 -14.79,-42.03 0.55,-2.58 0.74,-6.31 0.43,-8.3 -0.89,-5.57 1.25,-23.49 3.53,-29.59 1.79,-4.79 2.92,-6.11 9.17,-10.73 8.17,-6.05 11.61,-11.11 13.13,-19.34 1.41,-7.65 0.86,-8.81 -3.21,-6.73 -1.74,0.89 -3.38,1.91 -3.65,2.27 -0.27,0.36 -2.51,2.03 -4.99,3.71 -4.59,3.12 -7.89,6.82 -14.03,15.75 -5.26,7.64 -6.07,10.38 -7.67,25.84 -0.82,7.85 -2.13,18.09 -2.92,22.75 -1.65,9.65 -1.08,13.09 4.88,29.3 5.29,14.39 6.7,22.45 6.75,38.74 0.05,13.55 -0.13,15 -2.61,21.61 -2.99,7.94 -3.46,12.77 -1.24,12.77 0.78,0 4.8,-2.73 8.92,-6.06 z m 128.98,-16.38 -3.25,-13.886 -0.07,-31.96 c -0.08,-35.84 -0.57,-42.43 -3.91,-52.7 -2.55,-7.84 -10.62,-23.68 -14.82,-29.11 -1.46,-1.89 -5.53,-7.78 -9.05,-13.11 -6.91,-10.46 -15.95,-20.37 -22.18,-24.3 -11.71,-7.39 -32.37,-3.33 -41.3,8.12 -3.42,4.38 -8.92,15.14 -8.91,17.42 0.02,3.23 4.57,11.4 8.06,14.46 3.71,3.26 6.68,4.31 17.31,6.13 8.92,1.52 13.86,6.2 16.71,15.85 2.43,8.21 5.51,12.24 12.29,16.07 7.24,4.09 12.81,10.84 14.4,17.46 0.72,3.01 0.89,11.8 0.51,26.68 -0.61,23.85 0.33,33.16 3.91,38.62 1.13,1.72 4.4,3.97 8.62,5.92 3.74,1.73 10.5,5.56 15.03,8.51 4.63,3.01 8.59,4.99 9.06,4.52 0.47,-0.47 -0.59,-6.92 -2.42,-14.73 z m -40.19,-30.108 c -0.24,-23.314 -0.08,-21.068 -1.56,-21.05 -3.21,0.04 -3.84,1.745 -4.15,11.245 -0.44,13.712 0.46,22.99 2.57,26.468 0.99,1.622 2.14,2.95 2.57,2.95 0.43,0 0.68,-8.827 0.57,-19.613 z m -52.53,6.597 c 8.03,-1.702 16.73,-6.012 25.76,-12.76 7.74,-5.786 9.27,-8.076 11.38,-17.032 1.86,-7.868 1.96,-7.384 -1.67,-7.735 -4.36,-0.42 -4.44,-2.572 -0.37,-9.247 5.28,-8.65 5.29,-9.656 0.09,-15.06 -2.52,-2.623 -5.72,-7.46 -7.36,-11.138 -6.73,-15.108 -6.69,-15.063 -17.6,-17.15 -10.4,-1.992 -15.64,-4.727 -20.24,-10.57 -2.13,-2.712 -4.26,-5.074 -4.73,-5.25 -0.46,-0.174 -4.74,2.79 -9.49,6.586 -9.45,7.548 -11.22,10.39 -12.33,19.864 -0.74,6.294 0.41,8.248 4.84,8.253 3.58,0.004 9.32,3.243 9.32,5.26 0,0.78 -0.73,1.824 -1.61,2.32 -1.45,0.812 -1.42,1 0.33,1.938 1.47,0.787 2.44,0.692 3.99,-0.394 1.88,-1.32 2.17,-1.25 3.59,0.91 2.22,3.39 1.69,16.43 -0.7,16.89 -1.1,0.21 -1.87,-0.51 -2.27,-2.13 -0.9,-3.57 -2.99,-4.86 -7.43,-4.6 -3.12,0.18 -4.49,-0.3 -6.6,-2.32 -1.75,-1.67 -2.89,-2.18 -3.33,-1.47 -3.06,4.94 -2.13,15.4 2.17,24.55 4.23,8.99 17.48,28.6 20.41,30.19 3.25,1.76 5.82,1.77 13.83,0.08 z m -14.46,-11.39 c -2.64,-2.643 -1.23,-3.46 5.78,-3.328 7.61,0.144 9.63,1.648 4.58,3.41 -4.06,1.413 -8.91,1.374 -10.36,-0.083 z m -8.57,-7.484 c -1.15,-0.497 -2.31,-1.282 -2.6,-1.744 -2.56,-4.128 15.49,-9 20.46,-5.523 1.49,1.046 3.13,1.32 5.18,0.87 3.55,-0.78 7.6,1.06 7.6,3.46 0,1.16 -1.08,1.816 -3.64,2.21 -7.32,1.13 -25,1.606 -27.02,0.727 z m 2.56,-13.307 c -2.58,-1.02 -4.85,-3.482 -4.85,-5.258 0,-2.752 1.89,-3.188 4.25,-0.977 2.59,2.432 6.54,2.625 9.82,0.48 1.49,-0.98 3.29,-1.33 4.83,-0.946 1.84,0.462 2.58,0.188 2.99,-1.103 1.72,-5.46 2.34,-6.3 3.8,-5.09 1.74,1.44 1.88,7.74 0.21,9.88 -0.7,0.89 -3.29,1.79 -6.06,2.09 -2.66,0.29 -6.8,0.75 -9.2,1.01 -2.4,0.26 -5.01,0.21 -5.81,-0.1 z m 18.84,-20.732 c -0.35,-0.56 -0.36,-2.47 -0.03,-4.24 0.43,-2.32 1.33,-3.49 3.24,-4.22 4.41,-1.67 9.22,-2.11 13.17,-1.2 7.84,1.82 7.15,4.89 -1.84,8.24 -6.29,2.35 -13.54,3.06 -14.55,1.43 z m -5.9,-12.98 c -0.88,-2.27 0.43,-3.21 6.76,-4.86 10.12,-2.63 18.06,-1.67 18.06,2.19 0,1.02 -1.24,1.17 -5.67,0.67 -5.16,-0.58 -11.04,0.47 -17.33,3.11 -0.67,0.28 -1.49,-0.21 -1.82,-1.09 z m 58.05,27.38 c 1.18,-2.42 1.47,-4.11 0.88,-5.17 -0.75,-1.34 -1.24,-1.13 -3.46,1.5 -3.01,3.58 -3.54,8.08 -0.89,7.59 0.93,-0.17 2.49,-1.93 3.45,-3.91 z m -78.87,-24.65 2.3,-0.61 -2.3,-1.27 c -1.27,-0.7 -3.45,-1.29 -4.85,-1.31 -2.59,-0.03 -5.23,2.04 -4.07,3.2 0.81,0.81 5.89,0.81 8.91,0 z"
       id="path410" />
  </g>
  <text
     x="185.50937"
     y="178.90981"
     font-size="12px"
     font-family="Arial"
     id="text416"><tspan
       x="185.50937"
       y="178.90981"
       id="tspan414">Humans</tspan></text>
  <text
     y="178.90981"
     x="250.35837"
     font-size="12px"
     font-family="Arial"
     id="text420"><tspan
       y="178.90981"
       x="250.35837"
       id="tspan418">Butterflies</tspan></text>
  <text
     y="178.90981"
     x="315.25537"
     font-size="12px"
     font-family="Arial"
     id="text424"><tspan
       y="178.90981"
       x="315.25537"
       id="tspan422">Needle Point</tspan></text>
  <text
     y="178.90981"
     x="390.41534"
     font-size="12px"
     font-family="Arial"
     id="text428"><tspan
       y="178.90981"
       x="390.41534"
       id="tspan426">Protozoans</tspan></text>
  <text
     y="178.90981"
     x="464.74133"
     font-size="12px"
     font-family="Arial"
     id="text432"><tspan
       y="178.90981"
       x="464.74133"
       id="tspan430">Molecules</tspan></text>
  <text
     y="178.90981"
     x="542.68237"
     font-size="12px"
     font-family="Arial"
     id="text436"><tspan
       y="178.90981"
       x="542.68237"
       id="tspan434">Atoms</tspan></text>
  <text
     y="178.90981"
     x="595.14233"
     font-size="12px"
     font-family="Arial"
     id="text440"><tspan
       y="178.90981"
       x="595.14233"
       id="tspan438">Atomic Nuclei</tspan></text>
  <g
     transform="translate(97.717361,-35.121205)"
     id="g528">
    <path
       fill="url(#l)"
       stroke="#000000"
       stroke-miterlimit="2"
       d="m 11,235.5 h 548.335 v 25 H 11 Z"
       id="path442"
       style="fill:url(#l)" />
    <path
       d="M 25.335,225.063 V 270"
       fill="none"
       stroke="#000000"
       id="path444" />
    <path
       d="m 115,225 v 45"
       fill="none"
       stroke="#000000"
       id="path446" />
    <path
       d="m 220,225 v 45"
       fill="none"
       stroke="#000000"
       id="path448" />
    <path
       d="m 325,225 v 45"
       fill="none"
       stroke="#000000"
       id="path450" />
    <path
       d="m 385,225 v 45"
       fill="none"
       stroke="#000000"
       id="path452" />
    <path
       d="m 450,225 v 45"
       fill="none"
       stroke="#000000"
       id="path454" />
    <path
       d="m 520,225 v 45"
       fill="none"
       stroke="#000000"
       id="path456" />
    <g
       transform="translate(-11.5,-10)"
       font-size="12px"
       font-family="Arial"
       id="g466">
      <text
         x="27"
         y="297.25"
         id="text460"><tspan
           x="27"
           y="297.25"
           id="tspan458">10</tspan></text>
      <text
         x="41.43"
         y="291.44199"
         id="text464"><tspan
           x="41.43"
           y="291.44199"
           font-size="9px"
           id="tspan462">4</tspan></text>
    </g>
    <g
       transform="translate(58.5,-10)"
       font-size="12px"
       font-family="Arial"
       id="g496">
      <text
         x="46.193001"
         y="297.854"
         id="text470"><tspan
           x="46.193001"
           y="297.854"
           id="tspan468">10</tspan></text>
      <text
         x="60.623001"
         y="292.04599"
         id="text474"><tspan
           x="60.623001"
           y="292.04599"
           font-size="9px"
           id="tspan472">8</tspan></text>
      <g
         transform="translate(121.5)"
         id="g484">
        <text
           x="28"
           y="297.25"
           id="text478"><tspan
             x="28"
             y="297.25"
             id="tspan476">10</tspan></text>
        <text
           x="40.43"
           y="291.44199"
           id="text482"><tspan
             x="40.43"
             y="291.44199"
             font-size="9px"
             id="tspan480">12</tspan></text>
      </g>
      <g
         transform="translate(227.07031,0.0576172)"
         id="g494">
        <text
           x="28"
           y="297.25"
           id="text488"><tspan
             x="28"
             y="297.25"
             id="tspan486">10</tspan></text>
        <text
           x="40.43"
           y="291.44199"
           id="text492"><tspan
             x="40.43"
             y="291.44199"
             font-size="9px"
             id="tspan490">15</tspan></text>
      </g>
    </g>
    <g
       transform="translate(345,-9.9999998)"
       font-size="12px"
       font-family="Arial"
       id="g506">
      <text
         x="28"
         y="297.25"
         id="text500"><tspan
           x="28"
           y="297.25"
           id="tspan498">10</tspan></text>
      <text
         x="40.43"
         y="291.44199"
         id="text504"><tspan
           x="40.43"
           y="291.44199"
           font-size="9px"
           id="tspan502">16</tspan></text>
    </g>
    <g
       transform="translate(410,-9.9999998)"
       font-size="12px"
       font-family="Arial"
       id="g516">
      <text
         x="28"
         y="297.25"
         id="text510"><tspan
           x="28"
           y="297.25"
           id="tspan508">10</tspan></text>
      <text
         x="40.43"
         y="291.44199"
         id="text514"><tspan
           x="40.43"
           y="291.44199"
           font-size="9px"
           id="tspan512">18</tspan></text>
    </g>
    <g
       transform="translate(480.5,-9.9999998)"
       font-size="12px"
       font-family="Arial"
       id="g526">
      <text
         x="28"
         y="297.25"
         id="text520"><tspan
           x="28"
           y="297.25"
           id="tspan518">10</tspan></text>
      <text
         x="40.43"
         y="291.44199"
         id="text524"><tspan
           x="40.43"
           y="291.44199"
           font-size="9px"
           id="tspan522">20</tspan></text>
    </g>
  </g>
  <g
     transform="translate(-2.2826385,27.378795)"
     font-size="12px"
     font-family="Arial"
     id="g668">
    <text
       x="125.5"
       y="46.5"
       style="line-height:125%;text-align:start"
       font-weight="bold"
       id="text564"><tspan
         x="125.5"
         y="46.5"
         id="tspan562">Radio</tspan></text>
    <text
       x="222.724"
       y="46.5"
       style="line-height:125%;text-align:start"
       font-weight="bold"
       id="text568"><tspan
         x="222.724"
         y="46.5"
         id="tspan566">Microwave</tspan></text>
    <text
       x="317.478"
       y="46.5"
       style="line-height:125%;text-align:start"
       font-weight="bold"
       id="text572"><tspan
         x="317.478"
         y="46.5"
         id="tspan570">Infrared</tspan></text>
    <text
       x="393.005"
       y="46.5"
       style="line-height:125%;text-align:start"
       font-weight="bold"
       id="text576"><tspan
         x="393.005"
         y="46.5"
         id="tspan574">Visible</tspan></text>
    <text
       x="456.02802"
       y="46.5"
       style="line-height:125%;text-align:start"
       font-weight="bold"
       id="text580"><tspan
         x="456.02802"
         y="46.5"
         id="tspan578">Ultraviolet</tspan></text>
    <text
       x="537.00403"
       y="46.5"
       style="line-height:125%;text-align:start"
       font-weight="bold"
       id="text584"><tspan
         x="537.00403"
         y="46.5"
         id="tspan582">X-ray</tspan></text>
    <text
       x="593.88702"
       y="46.5"
       style="line-height:125%;text-align:start"
       font-weight="bold"
       id="text588"><tspan
         x="593.88702"
         y="46.5"
         id="tspan586">Gamma ray</tspan></text>
    <g
       transform="translate(104.36157,-233.68506)"
       id="g598">
      <text
         y="297.25"
         x="28"
         id="text592"><tspan
           y="297.25"
           x="28"
           id="tspan590">10</tspan></text>
      <text
         y="291.44199"
         x="40.43"
         id="text596"><tspan
           y="291.44199"
           x="40.43"
           font-size="9px"
           id="tspan594">3</tspan></text>
    </g>
    <g
       transform="translate(211.86157,-233.68506)"
       id="g608">
      <text
         y="297.25"
         x="28"
         id="text602"><tspan
           y="297.25"
           x="28"
           id="tspan600">10</tspan></text>
      <text
         y="291.44199"
         x="41.43"
         id="text606"><tspan
           y="291.44199"
           x="41.43"
           font-size="9px"
           id="tspan604">2</tspan></text>
    </g>
    <g
       transform="translate(299.86157,-233.68506)"
       id="g618">
      <text
         y="297.25"
         x="28"
         id="text612"><tspan
           y="297.25"
           x="28"
           id="tspan610">10</tspan></text>
      <text
         y="291.44199"
         x="41.43"
         id="text616"><tspan
           y="291.44199"
           x="41.43"
           font-size="9px"
           id="tspan614">5</tspan></text>
    </g>
    <g
       transform="translate(387.36157,-233.68506)"
       id="g628">
      <text
         y="297.25"
         x="1"
         id="text622"><tspan
           y="297.25"
           x="1"
           id="tspan620">0.510</tspan></text>
      <text
         y="291.44199"
         x="40.43"
         id="text626"><tspan
           y="291.44199"
           x="40.43"
           font-size="9px"
           id="tspan624">6</tspan></text>
    </g>
    <g
       transform="translate(447.36157,-233.68506)"
       id="g638">
      <text
         y="297.25"
         x="28"
         id="text632"><tspan
           y="297.25"
           x="28"
           id="tspan630">10</tspan></text>
      <text
         y="291.44199"
         x="40.93"
         id="text636"><tspan
           y="291.44199"
           x="40.93"
           font-size="9px"
           id="tspan634">8</tspan></text>
    </g>
    <g
       transform="translate(510.36157,-233.68506)"
       id="g648">
      <text
         y="297.25"
         x="28"
         id="text642"><tspan
           y="297.25"
           x="28"
           id="tspan640">10</tspan></text>
      <text
         y="291.44199"
         x="40.93"
         id="text646"><tspan
           y="291.44199"
           x="40.93"
           font-size="9px"
           id="tspan644">10</tspan></text>
    </g>
    <g
       transform="translate(588.36157,-233.68506)"
       id="g658">
      <text
         y="297.25"
         x="28"
         id="text652"><tspan
           y="297.25"
           x="28"
           id="tspan650">10</tspan></text>
      <text
         y="291.44199"
         x="40.93"
         id="text656"><tspan
           y="291.44199"
           x="40.93"
           font-size="9px"
           id="tspan654">12</tspan></text>
    </g>
    <text
       y="46.603001"
       x="102.976"
       style="text-align:end"
       text-anchor="end"
       id="text662"><tspan
         y="46.603001"
         x="102.976"
         id="tspan660">Radiation Type</tspan></text>
    <text
       y="63.5"
       x="19.865999"
       id="text666"><tspan
         y="63.5"
         x="19.865999"
         id="tspan664">Wavelength (m)</tspan></text>
  </g>
  <text
     style="text-align:end"
     x="100.69336"
     y="122.21178"
     font-size="12px"
     font-family="Arial"
     text-anchor="end"
     id="text674"><tspan
       x="100.69336"
       y="122.21178"
       id="tspan670">Approximate Scale</tspan><tspan
       x="100.69336"
       y="137.21179"
       id="tspan672">of Wavelength</tspan></text>
  <text
     style="text-align:end"
     x="100.44736"
     y="215.9818"
     font-size="12px"
     font-family="Arial"
     text-anchor="end"
     id="text678"><tspan
       x="100.44736"
       y="215.9818"
       id="tspan676">Frequency (Hz)</tspan></text>
</svg>
