<?xml version="1.0" encoding="UTF-8" standalone="no"?>
<svg
   xmlns:dc="http://purl.org/dc/elements/1.1/"
   xmlns:cc="http://creativecommons.org/ns#"
   xmlns:rdf="http://www.w3.org/1999/02/22-rdf-syntax-ns#"
   xmlns:svg="http://www.w3.org/2000/svg"
   xmlns="http://www.w3.org/2000/svg"
   xmlns:sodipodi="http://sodipodi.sourceforge.net/DTD/sodipodi-0.dtd"
   xmlns:inkscape="http://www.inkscape.org/namespaces/inkscape"
   width="542.11261"
   height="506.2738"
   id="svg4745"
   sodipodi:version="0.32"
   inkscape:version="1.0.1 (3bc2e813f5, 2020-09-07, custom)"
   version="1.0"
   sodipodi:docname="Incoming_spectral_reflectance_from_different_objects_to_a_sensor_system.svg"
   inkscape:output_extension="org.inkscape.output.svg.inkscape">
  <defs
     id="defs4747">
    <inkscape:perspective
       sodipodi:type="inkscape:persp3d"
       inkscape:vp_x="0 : 432.45489 : 1"
       inkscape:vp_y="0 : 1000 : 0"
       inkscape:vp_z="744.09448 : 432.45489 : 1"
       inkscape:persp3d-origin="372.04724 : 257.06119 : 1"
       id="perspective4753" />
    <marker
       inkscape:stockid="Arrow1Lstart"
       orient="auto"
       refY="0"
       refX="0"
       id="Arrow1Lstart"
       style="overflow:visible">
      <path
         inkscape:connector-curvature="0"
         id="path5246"
         d="M 0,0 5,-5 -12.5,0 5,5 Z"
         style="fill-rule:evenodd;stroke:#000000;stroke-width:1pt;marker-start:none"
         transform="matrix(0.8,0,0,0.8,10,0)" />
    </marker>
    <marker
       inkscape:stockid="Arrow1Lend"
       orient="auto"
       refY="0"
       refX="0"
       id="Arrow1Lend"
       style="overflow:visible">
      <path
         inkscape:connector-curvature="0"
         id="path5249"
         d="M 0,0 5,-5 -12.5,0 5,5 Z"
         style="fill-rule:evenodd;stroke:#000000;stroke-width:1pt;marker-start:none"
         transform="matrix(-0.8,0,0,-0.8,-10,0)" />
    </marker>
  </defs>
  <sodipodi:namedview
     id="base"
     pagecolor="#ffffff"
     bordercolor="#666666"
     borderopacity="1.0"
     inkscape:pageopacity="0.0"
     inkscape:pageshadow="2"
     inkscape:zoom="0.69082518"
     inkscape:cx="244.91883"
     inkscape:cy="341.32949"
     inkscape:document-units="px"
     inkscape:current-layer="layer1"
     showgrid="false"
     inkscape:window-width="1588"
     inkscape:window-height="1750"
     inkscape:window-x="1600"
     inkscape:window-y="38"
     inkscape:window-maximized="1"
     inkscape:document-rotation="0"
     fit-margin-top="0"
     fit-margin-left="0"
     fit-margin-right="0"
     fit-margin-bottom="0" />
  <metadata
     id="metadata4750">
    <rdf:RDF>
      <cc:Work
         rdf:about="">
        <dc:format>image/svg+xml</dc:format>
        <dc:type
           rdf:resource="http://purl.org/dc/dcmitype/StillImage" />
        <dc:title></dc:title>
      </cc:Work>
    </rdf:RDF>
  </metadata>
  <g
     inkscape:label="Livello 1"
     inkscape:groupmode="layer"
     id="layer1"
     transform="translate(-37.901989,-69.348378)">
    <rect
       style="fill:none;stroke:#000000;stroke-width:2.43858;stroke-linecap:butt;stroke-linejoin:miter;stroke-miterlimit:4;stroke-dasharray:none;stroke-dashoffset:0;stroke-opacity:1"
       id="rect3455"
       width="450.34677"
       height="437.90384"
       x="109.57841"
       y="80.93943"
       ry="1.528919" />
    <text
       xml:space="preserve"
       style="font-style:normal;font-weight:normal;line-height:0%;font-family:'Trebuchet MS';fill:#000000;fill-opacity:1;stroke:none"
       x="109.17971"
       y="539.53888"
       id="text3610"><tspan
         sodipodi:role="line"
         id="tspan3612"
         x="109.17971"
         y="539.53888"
         style="font-size:20px;line-height:1.25">250</tspan></text>
    <text
       xml:space="preserve"
       style="font-style:normal;font-weight:normal;line-height:0%;font-family:'Trebuchet MS';fill:#000000;fill-opacity:1;stroke:none"
       x="180.03419"
       y="539.53888"
       id="text3614"><tspan
         sodipodi:role="line"
         id="tspan3616"
         x="180.03419"
         y="539.53888"
         style="font-size:20px;line-height:1.25">500</tspan></text>
    <text
       xml:space="preserve"
       style="font-style:normal;font-weight:normal;line-height:0%;font-family:'Trebuchet MS';fill:#000000;fill-opacity:1;stroke:none"
       x="251.44044"
       y="539.53888"
       id="text3618"><tspan
         sodipodi:role="line"
         id="tspan3620"
         x="251.44044"
         y="539.53888"
         style="font-size:20px;line-height:1.25">750</tspan></text>
    <text
       xml:space="preserve"
       style="font-style:normal;font-weight:normal;line-height:0%;font-family:'Trebuchet MS';fill:#000000;fill-opacity:1;stroke:none"
       x="316.86035"
       y="539.53888"
       id="text3622"><tspan
         sodipodi:role="line"
         id="tspan3624"
         x="316.86035"
         y="539.53888"
         style="font-size:20px;line-height:1.25">1000</tspan></text>
    <text
       xml:space="preserve"
       style="font-style:normal;font-weight:normal;line-height:0%;font-family:'Trebuchet MS';fill:#000000;fill-opacity:1;stroke:none"
       x="388.06152"
       y="539.53888"
       id="text3626"><tspan
         sodipodi:role="line"
         id="tspan3628"
         x="388.06152"
         y="539.53888"
         style="font-size:20px;line-height:1.25">1250</tspan></text>
    <text
       xml:space="preserve"
       style="font-style:normal;font-weight:normal;line-height:0%;font-family:'Trebuchet MS';fill:#000000;fill-opacity:1;stroke:none"
       x="459.2627"
       y="539.53888"
       id="text3630"><tspan
         sodipodi:role="line"
         id="tspan3632"
         x="459.2627"
         y="539.53888"
         style="font-size:20px;line-height:1.25">1500</tspan></text>
    <text
       xml:space="preserve"
       style="font-style:normal;font-weight:normal;line-height:0%;font-family:'Trebuchet MS';fill:#000000;fill-opacity:1;stroke:none"
       x="530.44427"
       y="539.53888"
       id="text3634"><tspan
         sodipodi:role="line"
         id="tspan3636"
         x="530.44427"
         y="539.53888"
         style="font-size:20px;line-height:1.25">1750</tspan></text>
    <text
       xml:space="preserve"
       style="font-style:normal;font-variant:normal;font-weight:normal;font-stretch:normal;line-height:0%;font-family:'Trebuchet MS';-inkscape-font-specification:'Trebuchet MS';text-align:start;writing-mode:lr-tb;text-anchor:start;fill:#000000;fill-opacity:1;stroke:none"
       x="201.66856"
       y="569.79797"
       id="text3672"><tspan
         sodipodi:role="line"
         id="tspan3674"
         x="201.66856"
         y="569.79797"
         style="font-size:28px;line-height:1.25">Wavelength (nm)</tspan></text>
    <g
       id="g3596"
       transform="translate(72.009356,-172.95341)">
      <text
         id="text3572"
         y="694.72571"
         x="19.722553"
         style="font-style:normal;font-weight:normal;line-height:0%;font-family:'Trebuchet MS';fill:#000000;fill-opacity:1;stroke:none"
         xml:space="preserve"><tspan
           y="694.72571"
           x="19.722553"
           id="tspan3574"
           sodipodi:role="line"
           style="font-size:20px;line-height:1.25">0</tspan></text>
      <text
         id="text3576"
         y="607.20966"
         x="2.4178658"
         style="font-style:normal;font-weight:normal;line-height:0%;font-family:'Trebuchet MS';fill:#000000;fill-opacity:1;stroke:none"
         xml:space="preserve"><tspan
           y="607.20966"
           x="2.4178658"
           id="tspan3578"
           sodipodi:role="line"
           style="font-size:20px;line-height:1.25">0.5</tspan></text>
      <text
         id="text3580"
         y="519.88892"
         x="22.798725"
         style="font-style:normal;font-weight:normal;line-height:0%;font-family:'Trebuchet MS';fill:#000000;fill-opacity:1;stroke:none"
         xml:space="preserve"><tspan
           y="519.88892"
           x="22.798725"
           id="tspan3582"
           sodipodi:role="line"
           style="font-size:20px;line-height:1.25">1</tspan></text>
      <text
         id="text3584"
         y="432.17758"
         x="2.4178658"
         style="font-style:normal;font-weight:normal;line-height:0%;font-family:'Trebuchet MS';fill:#000000;fill-opacity:1;stroke:none"
         xml:space="preserve"><tspan
           y="432.17758"
           x="2.4178658"
           id="tspan3586"
           sodipodi:role="line"
           style="font-size:20px;line-height:1.25">1.5</tspan></text>
      <text
         id="text3588"
         y="344.85687"
         x="20.152241"
         style="font-style:normal;font-weight:normal;line-height:0%;font-family:'Trebuchet MS';fill:#000000;fill-opacity:1;stroke:none"
         xml:space="preserve"><tspan
           y="344.85687"
           x="20.152241"
           id="tspan3590"
           sodipodi:role="line"
           style="font-size:20px;line-height:1.25">2</tspan></text>
      <text
         id="text3592"
         y="257.14554"
         x="2.4178658"
         style="font-style:normal;font-weight:normal;line-height:0%;font-family:'Trebuchet MS';fill:#000000;fill-opacity:1;stroke:none"
         xml:space="preserve"><tspan
           y="257.14554"
           x="2.4178658"
           id="tspan3594"
           sodipodi:role="line"
           style="font-size:20px;line-height:1.25">2.5</tspan></text>
    </g>
    <text
       xml:space="preserve"
       style="font-style:normal;font-variant:normal;font-weight:normal;font-stretch:normal;line-height:0%;font-family:'Trebuchet MS';-inkscape-font-specification:'Trebuchet MS';text-align:start;writing-mode:lr-tb;text-anchor:start;fill:#000000;fill-opacity:1;stroke:none"
       x="-464.33279"
       y="59.175426"
       id="text3676"
       transform="rotate(-90)"><tspan
         sodipodi:role="line"
         id="tspan3678"
         x="-464.33279"
         y="59.175426"
         style="font-size:28px;line-height:1">Percentage Reflectance</tspan></text>
    <path
       style="fill:none;stroke:#000000;stroke-width:1;stroke-linecap:butt;stroke-linejoin:miter;stroke-miterlimit:4;stroke-dasharray:3, 3;stroke-dashoffset:0;stroke-opacity:1"
       d="M 166.49372,79.34711 V 517.45373"
       id="path3451"
       inkscape:connector-curvature="0" />
    <path
       style="fill:none;stroke:#000000;stroke-width:1;stroke-linecap:butt;stroke-linejoin:miter;stroke-miterlimit:4;stroke-dasharray:3, 3;stroke-dashoffset:0;stroke-opacity:1"
       d="M 252.04674,79.58215 V 518.39388"
       id="path3453"
       inkscape:connector-curvature="0" />
    <path
       style="fill:none;stroke:#000000;stroke-width:1px;stroke-linecap:butt;stroke-linejoin:miter;stroke-opacity:1"
       d="m 109.04407,430.30758 -5.74524,0.0884"
       id="path3457"
       inkscape:connector-curvature="0" />
    <path
       style="fill:none;stroke:#000000;stroke-width:1px;stroke-linecap:butt;stroke-linejoin:miter;stroke-opacity:1"
       d="m 109.48601,342.27279 h -5.39168"
       id="path3459"
       inkscape:connector-curvature="0" />
    <path
       style="fill:none;stroke:#000000;stroke-width:1px;stroke-linecap:butt;stroke-linejoin:miter;stroke-opacity:1"
       d="m 109.5744,254.67993 h -5.39169"
       id="path3461"
       inkscape:connector-curvature="0" />
    <path
       style="fill:none;stroke:#000000;stroke-width:1px;stroke-linecap:butt;stroke-linejoin:miter;stroke-opacity:1"
       d="m 109.04407,166.37997 -4.68458,-0.0884"
       id="path3463"
       inkscape:connector-curvature="0" />
    <path
       style="fill:none;stroke:#000000;stroke-width:1px;stroke-linecap:butt;stroke-linejoin:miter;stroke-opacity:1"
       d="m 110.28151,81.08522 -5.65685,0.0884"
       id="path3465"
       inkscape:connector-curvature="0" />
    <path
       style="fill:none;stroke:#000000;stroke-width:1px;stroke-linecap:butt;stroke-linejoin:miter;stroke-opacity:1"
       d="m 110.19312,518.69593 v 0 l -5.39169,0.0884 v 0"
       id="path3467"
       inkscape:connector-curvature="0" />
    <path
       style="fill:none;stroke:#000000;stroke-width:1px;stroke-linecap:butt;stroke-linejoin:miter;stroke-opacity:1"
       d="m 123.53976,519.22626 v 3.53553"
       id="path3469"
       inkscape:connector-curvature="0" />
    <path
       style="fill:none;stroke:#000000;stroke-width:1px;stroke-linecap:butt;stroke-linejoin:miter;stroke-opacity:1"
       d="m 195.13433,519.13787 v 3.71231"
       id="path3471"
       inkscape:connector-curvature="0" />
    <path
       style="fill:none;stroke:#000000;stroke-width:1px;stroke-linecap:butt;stroke-linejoin:miter;stroke-opacity:1"
       d="m 266.28695,519.13787 v 3.71231"
       id="path3473"
       inkscape:connector-curvature="0" />
    <path
       style="fill:none;stroke:#000000;stroke-width:1px;stroke-linecap:butt;stroke-linejoin:miter;stroke-opacity:1"
       d="m 336.99763,519.22626 v 3.27037"
       id="path3475"
       inkscape:connector-curvature="0" />
    <path
       style="fill:none;stroke:#000000;stroke-width:1px;stroke-linecap:butt;stroke-linejoin:miter;stroke-opacity:1"
       d="m 408.32702,519.04948 v 3.0052"
       id="path3477"
       inkscape:connector-curvature="0" />
    <path
       style="fill:none;stroke:#000000;stroke-width:1px;stroke-linecap:butt;stroke-linejoin:miter;stroke-opacity:1"
       d="m 479.56803,519.31465 v 3.53553"
       id="path3479"
       inkscape:connector-curvature="0" />
    <path
       style="fill:none;stroke:#000000;stroke-width:1px;stroke-linecap:butt;stroke-linejoin:miter;stroke-opacity:1"
       d="m 550.72065,519.31465 v 3.35875"
       id="path3481"
       inkscape:connector-curvature="0" />
    <text
       xml:space="preserve"
       style="font-style:normal;font-weight:normal;line-height:0%;font-family:'Trebuchet MS';fill:#000000;fill-opacity:1;stroke:none"
       x="122.83028"
       y="107.31487"
       id="text3810"><tspan
         sodipodi:role="line"
         id="tspan3812"
         x="122.83028"
         y="107.31487"
         style="font-size:20px;line-height:1.25">UV</tspan></text>
    <text
       xml:space="preserve"
       style="font-style:normal;font-weight:normal;line-height:0%;font-family:'Trebuchet MS';fill:#000000;fill-opacity:1;stroke:none"
       x="177.54121"
       y="107.75433"
       id="text3814"><tspan
         sodipodi:role="line"
         id="tspan3816"
         x="177.54121"
         y="107.75433"
         style="font-size:20px;line-height:1.25">Visible</tspan></text>
    <text
       xml:space="preserve"
       style="font-style:normal;font-weight:normal;line-height:0%;font-family:'Trebuchet MS';fill:#000000;fill-opacity:1;stroke:none"
       x="271.37488"
       y="107.75433"
       id="text3818"><tspan
         sodipodi:role="line"
         id="tspan3820"
         x="271.37488"
         y="107.75433"
         style="font-size:20px;line-height:1.25">Infrared</tspan></text>
    <path
       style="fill:none;stroke:#000000;stroke-width:1px;stroke-linecap:butt;stroke-linejoin:miter;stroke-opacity:1;marker-start:none;marker-mid:none;marker-end:none"
       d="m 372.66863,100.54722 27.18294,-0.0215"
       id="path3822"
       inkscape:connector-curvature="0" />
    <path
       id="path5716"
       style="font-size:12px;fill-rule:evenodd;stroke-width:0.625;stroke-linejoin:round"
       d="m 397.73207,90.76793 14.67784,8.86337 -14.3919,9.38751 c 2.23766,-5.42953 2.1088,-12.80054 -0.28594,-18.25088 z"
       inkscape:connector-curvature="0" />
    <path
       inkscape:connector-curvature="0"
       d="m 111.76141,499.54873 4.23412,-1.84882 3.58193,-1.81572 3.0226,-1.7857 2.5483,-1.74614 2.16194,-1.71021 1.86397,-1.66474 1.65115,-1.61927 1.52427,-1.5772 1.47417,-1.52273 1.43676,-1.48626 1.39744,-1.45343 1.3625,-1.42901 1.32781,-1.41075 1.2901,-1.40487 1.25515,-1.40798 1.22078,-1.41104 1.18584,-1.42901 1.15243,-1.43488 1.11188,-1.43209 1.07261,-1.42622 1.03175,-1.40177 0.98939,-1.37456 0.94111,-1.33558 0.89721,-1.28081 0.85045,-1.23563 0.81275,-1.16944 0.79013,-1.11777 0.77963,-1.06643 0.77775,-1.00298 0.79325,-0.95784 0.81862,-0.90336 0.85356,-0.84894 0.90492,-0.80374 0.95318,-0.73417 1.00454,-0.67071 1.05127,-0.59215 1.09516,-0.50149 1.14378,-0.40188 1.18892,-0.30195 1.23409,-0.18128 1.27184,-0.0605 1.30837,0.0664 1.32783,0.18128 1.33835,0.30224 1.34455,0.41675 1.33062,0.53801 1.31145,0.64627 1.27925,0.7555 1.24338,0.86995 1.20997,0.95783 1.18429,1.04538 1.17068,1.1119 1.16479,1.1781 1.16602,1.2208 1.17841,1.25356 1.1979,1.28423 1.2236,1.287 1.24029,1.30526 1.24335,1.31423 1.23255,1.34145 1.21306,1.35041 1.1781,1.37456 1.1286,1.3928 1.07107,1.42311 0.9999,1.45006 0.93524,1.44107 0.87459,1.42003 0.8217,1.37485 0.775,1.287 0.7357,1.18738 0.70103,1.06025 0.67197,0.89439 0.65122,0.72518 0.63454,0.55594 0.61781,0.40465 0.6101,0.25681 0.60419,0.13618 0.59679,0.0279 0.59834,-0.0695 0.60266,-0.1573 0.61039,-0.21736 0.61627,-0.2871 0.62528,-0.34435 0.63607,-0.39877 0.6435,-0.44706 0.65709,-0.48941 0.66486,-0.53183 0.67969,-0.56492 0.69177,-0.59523 0.71467,-0.61626 0.74466,-0.62557 0.78549,-0.62216 0.83377,-0.61347 0.88977,-0.58597 0.95782,-0.55907 1.03331,-0.51044 1.11314,-0.46253 1.18892,-0.39877 1.25235,-0.33537 1.3006,-0.27163 1.34457,-0.19338 1.37175,-0.121 1.39125,-0.0363 1.39716,0.0513 1.39744,0.13574 1.38507,0.21758 1.37487,0.28399 1.35197,0.33847 1.32939,0.38362 1.30214,0.41085 1.26443,0.42911 1.22513,0.42909 1.18118,0.43498 1.13912,0.42603 1.09641,0.4198 1.05314,0.42324 1.0135,0.42878 0.9773,0.42324 0.93835,0.43188 0.90462,0.44427 0.87181,0.45291 0.83222,0.45016 0.7991,0.44733 0.76602,0.42911 0.72798,0.41085 0.68895,0.38364 0.65712,0.34124 0.61473,0.29915 0.58317,0.24163 0.5544,0.19052 0.54235,0.13574 0.53924,0.0876 0.54976,0.0279 0.57109,-0.0176 0.60421,-0.0726 0.65279,-0.12694 0.70384,-0.1694 0.7524,-0.21758 0.7929,-0.24781 0.8217,-0.27781 0.8415,-0.29018 0.85204,-0.29887 0.85046,-0.29608 0.84427,-0.2902 0.82636,-0.27782 0.81583,-0.25399 0.81118,-0.22644 0.80962,-0.19338 0.81273,-0.154 0.82201,-0.11792 0.84273,-0.0634 0.86255,-0.009 0.88975,0.0392 0.917,0.0935 0.93958,0.1331 0.96525,0.18128 0.98659,0.2145 1.00452,0.23883 1.02559,0.26886 1.04104,0.27502 1.05869,0.28679 1.07879,0.29916 1.1088,0.30813 1.14189,0.31434 1.18276,0.32021 1.22976,0.32639 1.28392,0.33535 1.34453,0.33539 1.40798,0.34122 1.45466,0.33847 1.48192,0.32916 1.49241,0.32329 1.48346,0.30536 1.45469,0.28679 1.40208,0.25987 1.33837,0.23885 1.25514,0.19624 1.18426,0.17534 1.12398,0.15994 1.08033,0.14806 1.04505,0.1452 1.0259,0.15114 1.02124,0.1661 1.03022,0.1903 1.05127,0.21472 1.08156,0.26264 1.12398,0.29917 1.18118,0.3564 1.2403,0.41116 1.31731,0.47705 1.40488,0.55317 1.49705,0.63732 1.60132,0.7131 1.67959,0.80344 1.74178,0.8613 1.77056,0.91824 1.78108,0.964 1.76902,1.0061 1.72786,1.02711 1.66474,1.04228 1.58182,1.04539 1.49677,1.0364 1.40952,1.02403 1.32783,0.99711 1.24337,0.95784 1.16448,0.91234 1.08036,0.85203 0.9999,0.78239 0.9275,0.70693 0.85945,0.63452 0.80529,0.56184 0.76725,0.49251 0.73724,0.42293 0.72516,0.36258 0.72365,0.30228 0.73414,0.2416 0.75365,0.187 0.77341,0.1298 0.79326,0.0605 0.80962,-0.0154 0.82324,-0.0968 0.83254,-0.18414 0.8412,-0.27812 0.85047,-0.38051 0.85202,-0.48356 0.86409,-0.577 0.87769,-0.65865 0.89595,-0.71899 0.92286,-0.76137 0.95627,-0.80067 0.99403,-0.80962 1.03609,-0.81893 1.08469,-0.80654 1.13757,-0.78549 1.18893,-0.77343 1.24614,-0.74314 1.31114,-0.71929 1.37176,-0.69487 1.43645,-0.65864 1.50634,-0.63144 1.57843,-0.58597 1.62545,-0.55007 1.65733,-0.50428 1.67063,-0.45322 1.66008,-0.3988 1.63011,-0.33534 1.58154,-0.28402 1.50911,-0.20548 1.42437,-0.13926 1.34609,-0.0662 1.28392,0.011 1.23871,0.0964 1.19946,0.17534 1.18149,0.26266 1.17225,0.3595 1.18118,0.45324 1.19325,0.54697 1.19947,0.62834 1.1951,0.69177 1.17531,0.74032 1.14037,0.77345 1.09208,0.78239 1.03332,0.77963 0.95783,0.76138 0.8714,0.72486 0.7964,0.68589 0.7249,0.65276 0.66022,0.61908 0.61314,0.58318 0.57112,0.54388 0.53658,0.51355 0.51194,0.47738 0.4983,0.44116 0.48642,0.41085 0.47454,0.38362 0.46816,0.34465 0.46376,0.32329 0.45936,0.28989 0.4576,0.27192 0.45936,0.23855 0.46376,0.2178 0.4697,0.18414 0.47586,0.1419 0.48928,0.0906 0.50006,0.0334 0.51656,-0.0334 0.53196,-0.11176 0.55286,-0.19954 0.57112,-0.28987 0.5995,-0.36571 0.62546,-0.43498 0.6556,-0.48631 0.69058,-0.52288 0.7249,-0.54665 0.7645,-0.55594 0.80652,-0.54699 0.85184,-0.5287 0.90354,-0.51947 0.9636,-0.50767 1.02586,-0.49251 1.0967,-0.49533 1.17084,-0.49252 1.25532,-0.50149 1.3442,-0.50151 1.49864,-0.53181 1.9503,-0.57109 2.76144,-0.65558 3.92304,-0.77343 5.45028,-0.91855 7.3249,-1.09951 9.5623,-1.31732 12.15324,-1.571"
       style="fill:none;stroke:#000000;stroke-width:3.09375;stroke-linecap:round;stroke-linejoin:round;stroke-miterlimit:4;stroke-dasharray:none;stroke-dashoffset:0;stroke-opacity:1"
       id="path3856-4" />
    <path
       inkscape:connector-curvature="0"
       d="m 111.43224,499.94165 2.85028,-1.46551 2.58174,-1.61309 2.3401,-1.73437 2.12696,-1.84294 1.94099,-1.92152 1.78418,-1.97875 1.65112,-2.01528 1.54968,-2.02425 1.46982,-2.02422 1.40334,-2.02116 1.34765,-2.04837 1.29596,-2.07251 1.25853,-2.12417 1.22667,-2.18728 1.20378,-2.25998 1.18892,-2.35342 1.18585,-2.45923 1.17686,-2.55017 1.17221,-2.63743 1.16296,-2.72527 1.15274,-2.79737 1.14345,-2.84902 1.13014,-2.90968 1.11931,-2.95174 1.1026,-2.98177 1.08158,-2.98515 1.05312,-2.95764 1.02093,-2.89142 0.97762,-2.79459 0.93185,-2.67392 0.87615,-2.50748 0.81429,-2.32031 0.7493,-2.09973 0.68741,-1.89462 0.63454,-1.69474 0.58751,-1.52584 0.5513,-1.3625 0.51667,-1.22047 0.49098,-1.09675 0.47889,-0.98505 0.4653,-0.8913 0.45756,-0.80065 0.44862,-0.72488 0.43961,-0.6435 0.43065,-0.56802 0.42446,-0.50149 0.4155,-0.43806 0.40931,-0.38394 0.40185,-0.32609 0.39417,-0.27194 0.38672,-0.22678 0.38392,-0.17512 0.37589,-0.1298 0.37033,-0.0755 0.36535,-0.0308 0.3595,0.011 0.35671,0.0576 0.35332,0.10582 0.35361,0.15686 0.35948,0.20856 0.3626,0.26884 0.37158,0.3264 0.38362,0.39571 0.39723,0.45632 0.41393,0.53181 0.42911,0.60111 0.4517,0.66486 0.46992,0.73414 0.491,0.79756 0.51354,0.861 0.53617,0.91544 0.56183,0.97887 0.5878,1.03639 0.61782,1.07849 0.64658,1.11777 0.67972,1.14499 0.71898,1.15738 0.75827,1.16604 0.79911,1.16015 0.8415,1.14499 0.88823,1.11809 0.92749,1.08746 0.95782,1.04845 0.97733,1.01198 0.99402,0.96989 0.99403,0.91854 0.99092,0.86408 0.97885,0.80654 0.96094,0.7493 0.93649,0.68897 0.91234,0.63144 0.88975,0.57079 0.86101,0.51975 0.83684,0.47149 0.80685,0.42292 0.77807,0.37744 0.74624,0.33257 0.71588,0.28681 0.67969,0.24471 0.64225,0.20856 0.60113,0.16346 0.56183,0.1298 0.52129,0.0816 0.47274,0.0513 0.42755,0.022 0.38671,-0.0279 0.35515,-0.0513 0.33229,-0.0785 0.314,-0.11198 0.3069,-0.13904 0.30351,-0.16302 0.31124,-0.18744 0.32762,-0.20834 0.33689,-0.22675 0.35363,-0.23265 0.36258,-0.24783 0.37466,-0.2475 0.38363,-0.25089 0.39413,-0.24473 0.40188,-0.23852 0.40808,-0.2178 0.41362,-0.20548 0.41859,-0.18128 0.42291,-0.15686 0.42293,-0.12716 0.42754,-0.0906 0.42447,-0.0484 0.42603,-0.007 0.42165,0.0394 0.42447,0.0935 0.42137,0.1573 0.42757,0.2024 0.43186,0.27502 0.43808,0.33226 0.44273,0.40498 0.45756,0.47736 0.46684,0.54978 0.47892,0.60728 0.49099,0.67382 0.50303,0.7159 0.51513,0.7462 0.5256,0.77963 0.53771,0.78549 0.54852,0.80069 0.56182,0.79167 0.57266,0.78243 0.58594,0.78239 0.59834,0.77345 0.60731,0.75828 0.6209,0.74342 0.63145,0.73106 0.6435,0.7159 0.65555,0.69795 0.66176,0.67072 0.65989,0.63762 0.65712,0.60111 0.6466,0.54696 0.62989,0.49223 0.60731,0.43221 0.58005,0.35361 0.55009,0.28092 0.52252,0.20548 0.49995,0.13904 0.48356,0.0816 0.47273,0.0279 0.46995,-0.0176 0.46807,-0.0605 0.47738,-0.088 0.4851,-0.12056 0.4953,-0.1573 0.50924,-0.19932 0.51511,-0.2571 0.52098,-0.31402 0.53491,-0.38362 0.5377,-0.4653 0.54234,-0.55596 0.54974,-0.65278 0.55317,-0.73692 0.55129,-0.84614 0.55286,-0.91852 0.55286,-1.02095 0.54851,-1.10601 0.54668,-1.1812 0.54232,-1.26876 0.53183,-1.34453 0.52564,-1.42622 0.51663,-1.49521 0.50892,-1.56202 0.49718,-1.63167 0.49098,-1.68578 0.47735,-1.74332 0.4681,-1.79747 0.45476,-1.85809 0.45324,-1.98806 0.45325,-2.21449 0.46219,-2.5047 0.47738,-2.89421 0.49841,-3.36259 0.52871,-3.91856 0.56212,-4.54997 0.60423,-5.23897 0.6404,-5.85213 0.66022,-6.35983 0.67381,-6.75829 0.68123,-7.0457 0.68279,-7.22671 0.66456,-7.30836 0.64812,-7.27216 0.61782,-7.14532 0.58905,-6.94889 0.55751,-6.68588 0.52872,-6.38087 0.49995,-6.00621 0.46994,-5.57431 0.44115,-5.09076 0.41243,-4.54101 0.38205,-3.96682 0.35951,-3.4291 0.3338,-2.97588 0.31867,-2.5802 0.30224,-2.27205 0.2871,-2.02702 0.28248,-1.8612 0.27504,-1.75539 0.27161,-1.71611 0.27041,-1.6768 0.27502,-1.63134 0.27658,-1.57101 0.27782,-1.49243 0.28864,-1.41415 0.29299,-1.31423 0.30506,-1.20532 0.31587,-1.08775 0.32637,-0.97577 0.32919,-0.87306 0.32916,-0.76137 0.32796,-0.67072 0.32175,-0.57731 0.31275,-0.48633 0.30041,-0.41394 0.28279,-0.33814 0.26884,-0.26299 0.25988,-0.20541 0.25058,-0.1481 0.23883,-0.0996 0.23853,-0.0572 0.23419,-0.0247 0.23577,0.006 0.23388,0.0279 0.23573,0.0572 0.23422,0.0907 0.22644,0.1392 0.21912,0.17503 0.20702,0.23265 0.19646,0.28987 0.1782,0.35363 0.16016,0.41982 0.14344,0.4987 0.12694,0.56802 0.10846,0.6404 0.0983,0.71002 0.0845,0.79169 0.0711,0.85789 0.0605,0.93371 0.0528,1.01196 0.0451,1.10571 0.0425,1.20562 0.0425,1.33527 0.0425,1.4655 0.0513,1.62516 0.0572,1.78571 0.0682,1.96978 0.0818,2.16038 0.095,2.30205 0.1089,2.38993 0.11792,2.41683 0.12694,2.39889 0.13266,2.31723 0.14344,2.1783 0.14674,1.98804 0.154,1.7523 0.16016,1.52585 0.16896,1.29906 0.17842,1.09983 0.1903,0.90925 0.19932,0.74312 0.22057,0.58317 0.2373,0.4291 0.25216,0.31403 0.27346,0.18137 0.2902,0.0665 0.30195,-0.0572 0.32329,-0.16612 0.33383,-0.27504 0.35053,-0.37775 0.35948,-0.48323 0.37155,-0.57729 0.38518,-0.68281 0.39138,-0.7793 0.40185,-0.89441 0.40777,-0.9999 0.41549,-1.11777 0.41983,-1.23287 0.42167,-1.35042 0.42445,-1.47448 0.42911,-1.5741 0.43034,-1.65546 0.43375,-1.70991 0.43651,-1.74642 0.43964,-1.76129 0.44704,-1.7523 0.45015,-1.71919 0.45324,-1.66783 0.45602,-1.61618 0.45478,-1.56513 0.4591,-1.50759 0.4517,-1.45621 0.44733,-1.39281 0.43964,-1.34454 0.42724,-1.28082 0.41858,-1.22667 0.41085,-1.16913 0.40807,-1.1088 0.40311,-1.04847 0.40806,-0.98505 0.41085,-0.92132 0.41984,-0.85821 0.43651,-0.79139 0.4517,-0.73105 0.47304,-0.66176 0.49685,-0.59522 0.52717,-0.53769 0.5606,-0.47427 0.59957,-0.41117 0.64812,-0.35331 0.68868,-0.29298 0.74033,-0.23574 0.79294,-0.17226 0.8384,-0.0996 0.88975,-0.0247 0.93372,0.0634 0.97731,0.15087 1.0197,0.2478 1.06363,0.35054 1.1026,0.4653 1.12552,0.55871 1.14191,0.65279 1.13911,0.73415 1.12519,0.81273 1.09829,0.86997 1.05589,0.92161 1.00177,0.97578 0.93801,1.00917 0.88513,1.03611 0.83996,1.05465 0.8189,1.07849 0.8019,1.08775 0.80375,1.09056 0.82016,1.09055 0.84614,1.08775 0.88511,1.07261 0.91854,1.05743 0.93804,1.05746 0.94575,1.04816 0.94856,1.04847 0.93493,1.04229 0.91109,1.05435 0.87769,1.05744 0.83223,1.06672 0.79478,1.07849 0.75829,1.08466 0.72642,1.1088 0.69051,1.12086 0.67074,1.1419 0.64658,1.16325 0.62834,1.19048 0.61781,1.21429 0.60577,1.23596 0.60577,1.24463 0.60728,1.25698 0.62093,1.25669 0.63299,1.24769 0.65091,1.23287 0.68279,1.2143 0.71157,1.18429 0.73878,1.16325 0.75982,1.13015 0.77191,1.09951 0.77651,1.05744 0.77933,1.02124 0.77189,0.98785 0.75982,0.94576 0.74188,0.8913 0.72486,0.85203 0.70569,0.79137 0.68867,0.74034 0.67691,0.67073 0.66454,0.60421 0.65124,0.52561 0.64504,0.45633 0.63422,0.3626 0.62246,0.28401 0.61629,0.19028 0.60141,0.1089 0.59524,0.0178 0.5844,-0.0693 0.57266,-0.16652 0.56184,-0.25367 0.55007,-0.34743 0.54355,-0.44705 0.53924,-0.538 0.53801,-0.64042 0.54668,-0.74931 0.55161,-0.85201 0.56645,-0.96062 0.58441,-1.07569 0.60298,-1.18737 0.61905,-1.28082 0.63301,-1.35662 0.6435,-1.41693 0.64504,-1.45035 0.65122,-1.47108 0.64196,-1.46828 0.63761,-1.45035 0.6237,-1.41107 0.61351,-1.3563 0.60111,-1.29938 0.58905,-1.22635 0.57853,-1.13602 0.56522,-1.05158 0.55564,-0.93648 0.54388,-0.8217 0.53027,-0.69795 0.53026,-0.58317 0.53337,-0.48324 0.5482,-0.38671 0.57112,-0.31124 0.60112,-0.24782 0.64194,-0.19954 0.68744,-0.15404 0.74311,-0.12692 0.79169,-0.0964 0.83101,-0.0576 0.86097,-0.01 0.88667,0.0392 0.90028,0.0964 0.9108,0.16018 0.90801,0.22956 0.8972,0.30225 0.89441,0.3895 0.89595,0.48047 0.89562,0.58317 0.90185,0.69175 0.91542,0.80964 0.93214,0.94266 0.94857,1.08158 0.97143,1.21152 0.98041,1.32939 0.99092,1.40796 0.97731,1.44106 0.96217,1.45035 0.93368,1.42283 0.89595,1.36557 0.84583,1.26009 0.79449,1.13881 0.75086,1.02434 0.72948,0.9244 0.71933,0.83996 0.7326,0.77035 0.76413,0.72518 0.81151,0.69484 0.87615,0.67383 0.95163,0.67073 1.02866,0.66762 1.09212,0.66763 1.15117,0.67382 1.19944,0.65557 1.24463,0.65247 1.27215,0.65279 1.30214,0.6373 1.31577,0.63453 1.3202,0.6104 1.3189,0.58596 1.3079,0.55903 1.28436,0.51047 1.25224,0.46252 1.21,0.40157 1.16006,0.33846 1.09956,0.26296 1.04852,0.18414 1.00298,0.1 0.9625,0.0119 0.935,-0.0786 0.91542,-0.17226 0.90024,-0.26576 0.89584,-0.37465 0.89254,-0.47427 0.89452,-0.56801 0.88506,-0.65278 0.8734,-0.72797 0.858,-0.77962 0.83666,-0.83376 0.8085,-0.86409 0.78078,-0.89441 0.74624,-0.90615 0.71324,-0.91234 0.69014,-0.90957 0.66638,-0.89441 0.6479,-0.86995 0.63602,-0.84305 0.62524,-0.80067 0.62238,-0.74899 0.6226,-0.69516 0.62832,-0.63732 0.63294,-0.577 0.65252,-0.51355 0.6633,-0.45045 0.69014,-0.38362 0.71324,-0.31401 0.74602,-0.24782 0.78716,-0.1782 0.83996,-0.0879 0.92598,0.004 1.02872,0.11484 1.15852,0.22677 1.30988,0.36846 1.48346,0.51357 1.68432,0.67381 1.91246,0.83685 2.18416,1.01228 2.52296,1.19017 2.91522,1.37177 3.3583,1.55584 3.86254,1.74642 4.42464,1.93638 5.03954,2.12696"
       style="fill:none;stroke:#007700;stroke-width:3.09375;stroke-linecap:round;stroke-linejoin:round;stroke-miterlimit:4;stroke-dasharray:none;stroke-opacity:1"
       id="path3862-8-9" />
    <path
       inkscape:connector-curvature="0"
       d="m 475.98696,414.05976 -3.92898,-2.90937 -3.53034,-2.61327 -3.18736,-2.36581 -2.90664,-2.15417 -2.68884,-1.97288 -2.52714,-1.83675 -2.42462,-1.71922 -2.38216,-1.65268 -2.38524,-1.61029 -2.37644,-1.54689 -2.34124,-1.50139 -2.2781,-1.42003 -2.19494,-1.32937 -2.07878,-1.22978 -1.93666,-1.1057 -1.77474,-0.99402 -1.5862,-0.85202 -1.41702,-0.72486 -1.26126,-0.60453 -1.13146,-0.49221 -1.0197,-0.39292 -0.9306,-0.31121 -0.85514,-0.22647 -0.80806,-0.1661 -0.77176,-0.10582 -0.74184,-0.0513 -0.70862,-0.007 -0.67804,0.0308 -0.6435,0.0576 -0.6105,0.0814 -0.5786,0.10582 -0.53922,0.1089 -0.51194,0.1177 -0.47894,0.11792 -0.45166,0.121 -0.43208,0.121 -0.4169,0.1177 -0.4081,0.11792 -0.40172,0.10274 -0.40326,0.10582 -0.40326,0.0937 -0.40788,0.0845 -0.40502,0.0695 -0.40172,0.0543 -0.39732,0.033 -0.3883,0.0154 -0.37884,-0.009 -0.3674,-0.0334 -0.35332,-0.0664 -0.33836,-0.0906 -0.3311,-0.13266 -0.32758,-0.16016 -0.32802,-0.19932 -0.32758,-0.24191 -0.33374,-0.27472 -0.34474,-0.32641 -0.35794,-0.36846 -0.3762,-0.396 -0.40304,-0.42292 -0.43802,-0.41704 -0.4763,-0.4257 -0.52096,-0.41115 -0.5742,-0.37744 -0.63404,-0.33536 -0.69806,-0.29021 -0.7524,-0.23852 -0.79757,-0.20262 -0.83685,-0.1782 -0.86254,-0.14476 -0.87925,-0.13618 -0.89131,-0.12694 -0.8882,-0.1298 -0.87925,-0.13574 -0.86843,-0.14806 -0.85818,-0.16016 -0.85204,-0.18128 -0.84119,-0.19932 -0.8384,-0.2237 -0.82942,-0.2475 -0.82482,-0.2812 -0.82014,-0.31121 -0.81893,-0.34745 -0.82014,-0.37466 -0.8217,-0.41083 -0.8248,-0.43808 -0.83098,-0.47428 -0.83996,-0.50149 -0.85202,-0.53183 -0.86097,-0.56491 -0.87307,-0.58905 -0.87769,-0.62555 -0.88235,-0.6466 -0.87923,-0.67351 -0.87307,-0.70105 -0.86715,-0.72517 -0.85481,-0.75209 -0.84304,-0.77343 -0.8307,-0.80685 -0.82045,-0.8248 -0.81552,-0.8641 -0.8189,-0.90613 -0.81583,-0.94886 -0.82478,-0.99093 -0.83378,-1.04539 -0.84583,-1.09054 -0.85512,-1.12396 -0.85045,-1.14499 -0.84586,-1.13296 -0.83406,-1.11188 -0.81119,-1.06053 -0.78859,-0.9999 -0.75363,-0.92442 -0.71467,-0.8189 -0.68123,-0.72517 -0.64196,-0.63734 -0.61626,-0.55286 -0.58628,-0.48351 -0.56027,-0.41985 -0.53801,-0.35361 -0.51511,-0.30505 -0.49995,-0.25368 -0.48633,-0.2178 -0.47738,-0.16896 -0.46838,-0.12716 -0.46684,-0.0935 -0.46966,-0.0576 -0.47425,-0.0176 -0.4851,0.0176 -0.49841,0.0546 -0.51355,0.0966 -0.53926,0.15136 -0.56366,0.21736 -0.59805,0.30195 -0.63296,0.38984 -0.67384,0.50149 -0.72052,0.61347 -0.76448,0.72798 -0.80065,0.83098 -0.81552,0.89408 -0.8189,0.92752 -0.80067,0.93679 -0.76569,0.90336 -0.719,0.85481 -0.65122,0.75548 -0.5739,0.6494 -0.50025,0.54388 -0.43809,0.44704 -0.38949,0.35361 -0.34744,0.29297 -0.31742,0.21758 -0.29762,0.17534 -0.28679,0.1298 -0.29174,0.0997 -0.29143,0.0664 -0.29762,0.0308 -0.30226,-0.011 -0.30503,-0.0484 -0.31433,-0.0997 -0.32175,-0.14806 -0.32763,-0.19932 -0.33847,-0.26297 -0.3505,-0.33226 -0.35796,-0.41395 -0.37928,-0.51047 -0.39416,-0.62555 -0.41395,-0.75517 -0.43344,-0.88546 -0.46097,-1.03609 -0.48477,-1.19356 -0.50615,-1.3294 -0.52098,-1.43209 -0.53337,-1.49831 -0.53768,-1.54686 -0.53647,-1.54997 -0.5346,-1.53791 -0.52406,-1.48036 -0.50924,-1.40795 -0.49687,-1.32011 -0.4851,-1.24184 -0.48169,-1.15705 -0.47458,-1.07848 -0.47274,-0.99402 -0.47425,-0.91267 -0.47892,-0.82758 -0.48633,-0.7524 -0.49562,-0.6769 -0.50305,-0.61907 -0.51944,-0.56523 -0.53801,-0.52563 -0.5544,-0.50458 -0.57697,-0.48324 -0.59959,-0.47738 -0.62707,-0.47735 -0.66301,-0.47736 -0.70567,-0.4653 -0.76417,-0.45633 -0.82635,-0.44087 -0.89595,-0.41394 -0.9804,-0.38083 -1.07228,-0.34743 -1.16636,-0.31124 -1.23873,-0.27193 -1.287,-0.23544 -1.3068,-0.21162 -1.29908,-0.19028 -1.25978,-0.16295 -1.20098,-0.14514 -1.11622,-0.13622 -1.00177,-0.12989 -0.9018,-0.12375 -0.8112,-0.12989 -0.73414,-0.12692 -0.67384,-0.14196 -0.62678,-0.16018 -0.58751,-0.17207 -0.56646,-0.19954 -0.55748,-0.22956 -0.5544,-0.26575 -0.56214,-0.30813 -0.57389,-0.35672 -0.59216,-0.41982 -0.61936,-0.48044 -0.65556,-0.54977 -0.69207,-0.63453 -0.74156,-0.71312 -0.77499,-0.77651 -0.80069,-0.82759 -0.81581,-0.84615 -0.81395,-0.85201 -0.80377,-0.83964 -0.78085,-0.80376 -0.75086,-0.74032 -0.70103,-0.66764 -0.66301,-0.59214 -0.62557,-0.52254 -0.59367,-0.45324 -0.56184,-0.38363 -0.54388,-0.32638 -0.51821,-0.26296 -0.50457,-0.20854 -0.49375,-0.15108 -0.48668,-0.0996 -0.48015,-0.0362 -0.47456,0.0309 -0.47426,0.0968 -0.47738,0.16612 -0.48015,0.24162 -0.4851,0.3202 -0.4953,0.40497 -0.49564,0.47118 -0.49406,0.52872 -0.48787,0.57729 -0.47273,0.60699 -0.45787,0.63764 -0.42882,0.64659 -0.40188,0.64039 -0.36878,0.63453 -0.3366,0.62247 -0.3007,0.61937 -0.27504,0.6011 -0.24904,0.59834 -0.22057,0.58596 -0.198,0.58626 -0.17666,0.5739 -0.1573,0.57697 -0.13904,0.59525 -0.12562,0.63453 -0.1133,0.69175 -0.10714,0.77963 -0.0999,0.87306 -0.095,1.00919 -0.0968,1.15087 -0.0979,1.31452 -0.1012,1.46831 -0.1089,1.60719 -0.1133,1.73127 -0.12386,1.84883 -0.13904,1.93978 -0.14938,2.01806 -0.1661,2.09074 -0.18128,2.14521 -0.19646,2.1752 -0.21758,2.19349 -0.22955,2.19934 -0.24625,2.18728 -0.25834,2.15418 -0.27659,2.10592 -0.28833,2.0394 -0.3038,1.95772 -0.30969,1.86707 -0.31711,1.7554 -0.31742,1.62822 -0.31092,1.49864 -0.3007,1.33835 -0.29145,1.17531 -0.27349,1.003 -0.25088,0.80993 -0.23699,0.63732 -0.22213,0.48633 -0.21604,0.35673 -0.21164,0.2416 -0.21296,0.15114 -0.21626,0.0876 -0.23109,0.0334 h -0.24317 l -0.25678,-0.0279 -0.26297,-0.0755 -0.27319,-0.1089 -0.27348,-0.15994 -0.27503,-0.21472 -0.27194,-0.26576 -0.2673,-0.32918 -0.25988,-0.39908 -0.25058,-0.4681 -0.24937,-0.55006 -0.24781,-0.63422 -0.24779,-0.73137 -0.25216,-0.83067 -0.25522,-0.93956 -0.26761,-1.05745 -0.27628,-1.18151 -0.28402,-1.30493 -0.2871,-1.43519 -0.29143,-1.55894 -0.28554,-1.70093 -0.28246,-1.83709 -0.27504,-1.97287 -0.25987,-2.1146 -0.24626,-2.2541 -0.23111,-2.39272 -0.21912,-2.51055 -0.20548,-2.62259 -0.1903,-2.72218 -0.18546,-2.80974 -0.1694,-2.8942 -0.16016,-2.96072 -0.15554,-3.01239 -0.1452,-3.0331 -0.1375,-3.01827 -0.13156,-2.96691 -0.12056,-2.87316 -0.11946,-2.74632 -0.1133,-2.58329 -0.10582,-2.38063 -0.10274,-2.15109 -0.1012,-1.93668 -0.10406,-1.73436 -0.10428,-1.55896 -0.11044,-1.39867 -0.1177,-1.257 -0.1298,-1.14499 -0.1419,-1.04228 -0.1573,-0.9699 -0.18128,-0.91543 -0.2101,-0.88512 -0.24904,-0.88512 -0.29608,-0.90957 -0.34896,-0.95163 -0.40962,-1.03024 -0.48015,-1.12703 -0.55317,-1.24154 -0.61318,-1.32628 -0.66176,-1.38385 -0.69329,-1.41104 -0.71003,-1.39561 -0.7128,-1.35659 -0.70413,-1.27494 -0.67384,-1.17222 -0.63575,-1.02745 -0.60142,-0.89717 -0.56802,-0.77034 -0.5377,-0.65558 -0.51508,-0.54697 -0.50152,-0.45014 -0.48325,-0.3626 -0.47456,-0.2809 -0.47117,-0.21162 -0.46997,-0.14196 -0.46376,-0.0754 -0.46653,-0.002 -0.46684,0.0725 -0.46838,0.13583 -0.4743,0.20541 -0.47735,0.27813 -0.48477,0.34743 -0.491,0.41703 -0.49872,0.47427 -0.50303,0.5408 -0.50584,0.6011 -0.51386,0.66176 -0.5179,0.70692 -0.52439,0.76448 -0.52873,0.8155 -0.52716,0.83099 -0.53027,0.84892 -0.53026,0.83687 -0.52409,0.80374 -0.52098,0.74313 -0.51234,0.68279 -0.50305,0.5742 -0.49374,0.46809 -0.48202,0.36566 -0.46992,0.26885 -0.45448,0.18434 -0.44119,0.10573 -0.42598,0.0422 -0.40931,-0.0119 -0.39446,-0.0634 -0.37746,-0.0996 -0.35948,-0.14514 -0.34465,-0.18136 -0.33224,-0.22648 -0.31713,-0.27193 -0.3038,-0.32638 -0.29608,-0.37745 -0.28402,-0.43219 -0.27627,-0.48633 -0.27038,-0.54698 -0.27038,-0.59804 -0.27505,-0.66173 -0.27935,-0.719 -0.29021,-0.76446 -0.30351,-0.8217 -0.32175,-0.87926 -0.34463,-0.92749 -0.35794,-0.95782 -0.37002,-0.96991 -0.37466,-0.9575 -0.37463,-0.92472 -0.37158,-0.86998 -0.35948,-0.79447 -0.34155,-0.69795 -0.32329,-0.58317 -0.30195,-0.47427 -0.29021,-0.38083 -0.27627,-0.29298 -0.27348,-0.21752 -0.26607,-0.16018 -0.26574,-0.10276 -0.26886,-0.0665 -0.27348,-0.0362 -0.28248,-0.0119 -0.2976,0.0119 -0.30969,0.0247 -0.32639,0.0392 -0.34435,0.0455 -0.36691,0.0513 -0.38672,0.0513 -0.41859,0.0483 -0.43653,0.0392 -0.45168,0.0309 -0.46684,0.0119 h -0.47271 l -0.47738,-0.0158 -0.47428,-0.0483 -0.46684,-0.0665 -0.45909,-0.0968 -0.44891,-0.11761 -0.43655,-0.13306 -0.41826,-0.14513 -0.41239,-0.14791 -0.39446,-0.1481 -0.379,-0.14197 -0.36876,-0.11781 -0.35022,-0.11167 -0.33845,-0.0786 -0.32793,-0.0665 -0.31867,-0.0362 -0.31277,-0.0178 -0.3066,0.006 -0.30813,0.0279 -0.30382,0.0545 -0.30659,0.0782 -0.31123,0.0936 -0.31401,0.11781 -0.31898,0.12692 -0.32606,0.13306 -0.32949,0.14196 -0.33814,0.14197 -0.3462,0.12989 -0.35483,0.12691 -0.35797,0.11781 -0.3595,0.10574 -0.35514,0.0935 -0.34745,0.0816 -0.33691,0.0604 -0.32021,0.0455 -0.29915,0.0248 -0.27628,0.01 -0.25522,-0.0216 -0.23729,-0.0455 -0.21758,-0.0814 -0.20262,-0.11781 -0.18876,-0.16018 -0.17974,-0.20231 -0.17094,-0.2537 -0.16302,-0.30813 -0.16456,-0.37188 -0.1661,-0.44085 -0.17974,-0.52595 -0.19492,-0.61936 -0.21626,-0.72797 -0.24596,-0.82788 -0.27967,-0.95782 -0.31713,-1.08158 -0.35206,-1.19017 -0.38828,-1.29318 -0.42137,-1.36868 -0.45012,-1.4228 -0.47581,-1.47449 -0.50152,-1.49243 -0.52439,-1.49862 -0.54234,-1.48931 -0.55871,-1.46552 -0.56802,-1.42901 -0.57543,-1.39281 -0.5742,-1.33248 -0.57266,-1.27338 -0.56336,-1.1979 -0.54978,-1.11468 -0.53491,-1.02124 -0.51664,-0.93215 -0.49841,-0.85047 -0.48323,-0.7719 -0.46687,-0.69949 -0.45168,-0.63576 -0.43498,-0.57266 -0.41703,-0.5182 -0.40342,-0.46685 -0.39417,-0.4229 -0.37928,-0.37157 -0.37,-0.32638 -0.36568,-0.28247 -0.36104,-0.23853 -0.3564,-0.19345 -0.35951,-0.15246 -0.3567,-0.11207 -0.36228,-0.0665 -0.35517,-0.0248 -0.34898,0.0216 -0.34278,0.0677 -0.32794,0.1194 -0.31556,0.1677 -0.29762,0.22214 -0.28092,0.27039 -0.26296,0.3264 -0.25369,0.37588 -0.2478,0.42756 -0.24163,0.47582 -0.25089,0.52595 -0.25062,0.57079 -0.26605,0.61936 -0.27781,0.66639 -0.29764,0.72332 -0.31432,0.79479 -0.33226,0.87769 -0.35486,0.97422 -0.37466,1.08469 -0.40031,1.20562 -0.42447,1.34269 -0.45014,1.485 -0.47613,1.61959 -0.49377,1.74022 -0.51664,1.85191 -0.53029,1.94567 -0.5454,2.02734 -0.56184,2.09662 -0.56492,2.15418 -0.57853,2.19038 -0.58161,2.23585 -0.58628,2.25968 -0.59213,2.28102 -0.59526,2.29618 -0.59648,2.30516 -0.59831,2.30515 -0.59988,2.29031 -0.59648,2.28102 -0.59213,2.24172 -0.58164,2.18419 -0.56956,2.09694 -0.55286,1.99083 -0.5287,1.85811 -0.50305,1.70714 -0.47118,1.52551 -0.43839,1.33559 -0.40931,1.15396 -0.38826,1.00331 -0.37156,0.88512 -0.36258,0.77654 -0.3564,0.70381 -0.3595,0.65866 -0.37156,0.62525 -0.38517,0.63144 -0.40652,0.62865 -0.43188,0.65247 -0.4653,0.66763 -0.50459,0.70104 -0.54853,0.74312 -0.59492,0.78859 -0.65587,0.83996 -0.70849,0.90028 -0.75671,0.94577 -0.78397,0.97576 -0.79602,0.99402 -0.79013,0.98474 -0.77192,0.97917 -0.7326,0.94855 -0.68277,0.89718 -0.61195,0.84305 -0.54822,0.7855 -0.48818,0.72827 -0.43344,0.69177 -0.38364,0.64938 -0.33534,0.60451 -0.29764,0.58008 -0.26141,0.55286 -0.22954,0.5346 -0.2024,0.51666 -0.1782,0.51664 -0.1573,0.51975 -0.1375,0.53151 -0.1221,0.5411 -0.11,0.57699 -0.1001,0.60111 -0.095,0.64969 -0.0937,0.72795 -0.10736,0.83687 -0.1221,0.97299 -0.15136,1.15396 -0.18546,1.36559 -0.22801,1.61029 -0.27659,1.88843 -0.3338,2.18727 -0.38828,2.48646 -0.43342,2.75838 -0.47305,3.01829 -0.50582,3.25397 -0.53181,3.47739 -0.55132,3.67382 -0.56368,3.86131 -0.57233,4.01507 -0.57853,4.13914 -0.58472,4.20563 -0.59215,4.23256 -0.5968,4.21186 -0.60264,4.1391 -0.60731,4.02404 -0.61319,3.86441 -0.6209,3.67072 -0.62991,3.49255 -0.64504,3.34743 -0.67071,3.23576 -0.69208,3.1513 -0.72641,3.09683 -0.76138,3.08447 -0.80808,3.09375 -0.85079,3.13304 -0.90305,3.18441 -0.95196,3.22676 -1.00455,3.29021 -1.05897,3.33538 -1.11313,3.40188 -1.16915,3.46531 -1.22665,3.52873 -1.2901,3.59247 -1.35815,3.65867 -1.43953,3.71311 -1.53172,3.76139 -1.63474,3.80688 -1.74765,3.83994 -1.87326,3.87029 -2.006,3.88821"
       style="fill:none;stroke:#ff0077;stroke-width:3.09375;stroke-linecap:round;stroke-linejoin:round;stroke-miterlimit:4;stroke-dasharray:none;stroke-opacity:1"
       id="path3858-3-7" />
    <path
       inkscape:connector-curvature="0"
       d="m 476.18342,348.74669 -2.20858,-2.48057 -1.83238,-2.14214 -1.50458,-1.84293 -1.22958,-1.56792 -0.99836,-1.34454 -0.825,-1.15088 -0.6919,-0.99122 -0.61314,-0.87894 -0.58014,-0.78551 -0.5544,-0.71929 -0.53922,-0.65556 -0.5335,-0.61319 -0.5302,-0.56491 -0.53768,-0.53492 -0.55132,-0.51355 -0.57112,-0.50461 -0.59532,-0.50458 -0.6193,-0.51357 -0.6435,-0.52252 -0.6556,-0.5408 -0.66902,-0.57111 -0.68288,-0.6042 -0.68288,-0.63762 -0.68574,-0.68868 -0.68442,-0.73135 -0.68266,-0.76417 -0.6798,-0.79168 -0.67694,-0.7855 -0.67078,-0.76725 -0.66748,-0.74035 -0.66154,-0.68278 -0.65868,-0.61936 -0.65274,-0.5346 -0.65098,-0.4653 -0.65274,-0.38983 -0.66132,-0.33535 -0.67386,-0.2871 -0.68904,-0.25061 -0.71126,-0.22057 -0.73414,-0.19954 -0.76296,-0.18434 -0.78276,-0.16889 -0.79904,-0.14197 -0.80652,-0.11503 -0.80388,-0.0661 -0.7975,-0.0309 -0.7777,0.0309 -0.75702,0.0844 -0.7249,0.15405 -0.6996,0.21749 -0.67672,0.28401 -0.65868,0.35052 -0.64504,0.41982 -0.63426,0.48664 -0.62986,0.54668 -0.6303,0.61936 -0.62986,0.68588 -0.6314,0.74034 -0.62678,0.79447 -0.61468,0.84305 -0.60302,0.88203 -0.58014,0.91234 -0.55726,0.93957 -0.52866,0.95195 -0.4972,0.96958 -0.47256,0.97299 -0.45342,0.97577 -0.44858,0.97887 -0.44572,0.96988 -0.45606,0.95783 -0.47146,0.94854 -0.49852,0.92442 -0.52866,0.90955 -0.55286,0.86409 -0.57992,0.82479 -0.59532,0.74931 -0.60742,0.67661 -0.60874,0.58935 -0.6116,0.47737 -0.6028,0.35949 -0.59664,0.23265 -0.5786,0.0935 -0.56958,-0.0309 -0.55594,-0.16335 -0.54384,-0.28987 -0.5302,-0.41396 -0.51634,-0.54387 -0.50468,-0.65866 -0.49258,-0.79139 -0.4851,-0.90955 -0.48312,-1.04538 -0.49104,-1.17533 -0.50622,-1.31423 -0.52712,-1.46209 -0.5544,-1.60443 -0.59378,-1.7523 -0.62986,-1.90017 -0.66286,-2.01837 -0.67694,-2.09973 -0.68134,-2.14489 -0.67056,-2.15139 -0.65252,-2.12076 -0.61666,-2.05736 -0.56804,-1.95493 -0.51348,-1.8216 -0.4576,-1.70126 -0.41703,-1.58895 -0.37897,-1.4986 -0.3462,-1.42592 -0.3261,-1.36867 -0.31586,-1.32043 -0.30505,-1.29905 -0.30969,-1.28391 -0.31586,-1.26596 -0.32021,-1.257 -0.33226,-1.23564 -0.34432,-1.22047 -0.35797,-1.19636 -0.3762,-1.17841 -0.39877,-1.15397 -0.42167,-1.13325 -0.45325,-1.12086 -0.47273,-1.14778 -0.51201,-1.19357 -0.54388,-1.2508 -0.58008,-1.34454 -0.6209,-1.45004 -0.66456,-1.58309 -0.70692,-1.73434 -0.7462,-1.86399 -0.77963,-1.98186 -0.80529,-2.07559 -0.82604,-2.15418 -0.83996,-2.20553 -0.8415,-2.23276 -0.84739,-2.2538 -0.8415,-2.23865 -0.8322,-2.2148 -0.822,-2.15696 -0.81273,-2.08179 -0.79913,-1.97289 -0.78705,-1.85191 -0.76879,-1.70403 -0.75086,-1.53173 -0.72949,-1.34145 -0.71467,-1.16634 -0.69485,-1.01196 -0.68125,-0.87615 -0.66454,-0.76602 -0.65122,-0.67227 -0.63888,-0.60267 -0.62711,-0.55129 -0.6178,-0.51666 -0.61319,-0.48479 -0.60731,-0.45015 -0.6042,-0.40806 -0.60113,-0.36691 -0.60573,-0.32021 -0.61197,-0.27349 -0.61781,-0.2175 -0.6268,-0.16493 -0.63916,-0.10712 -0.63886,-0.0424 -0.64504,0.0216 -0.6466,0.0891 -0.64815,0.16335 -0.6466,0.23542 -0.63883,0.31587 -0.63609,0.39725 -0.62247,0.48045 -0.61164,0.57111 -0.58905,0.66144 -0.56646,0.75705 -0.53334,0.85326 -0.50152,0.95782 -0.46373,1.06362 -0.42139,1.17965 -0.39446,1.33527 -0.37464,1.54687 -0.36848,1.80087 -0.38082,2.09664 -0.39725,2.45643 -0.43188,2.85801 -0.47892,3.30227 -0.53027,3.77655 -0.58471,4.17532 -0.62093,4.46829 -0.65402,4.66167 -0.67379,4.74953 -0.68405,4.74643 -0.68589,4.63166 -0.6769,4.42003 -0.66143,4.12088 -0.64506,3.81583 -0.62401,3.5015 -0.60885,3.21781 -0.59059,2.91834 -0.57266,2.63154 -0.55565,2.35064 -0.53489,2.07559 -0.52254,1.80675 -0.4987,1.56173 -0.48327,1.32937 -0.46838,1.12397 -0.44704,0.94266 -0.43219,0.77653 -0.41085,0.63453 -0.39726,0.51047 -0.37774,0.40776 -0.36383,0.31741 -0.35207,0.23265 -0.34434,0.15108 -0.33689,0.0697 -0.33847,0.01 -0.34001,-0.0513 -0.34432,-0.1089 -0.34896,-0.15404 -0.35332,-0.20854 -0.35051,-0.25368 -0.34588,-0.29916 -0.33539,-0.34434 -0.3205,-0.38982 -0.29731,-0.43808 -0.27502,-0.47736 -0.24783,-0.52563 -0.22059,-0.58594 -0.20086,-0.64661 -0.18744,-0.71929 -0.17974,-0.80653 -0.16764,-0.90649 -0.17512,-1.00299 -0.17666,-1.12394 -0.1859,-1.24772 -0.198,-1.37147 -0.20702,-1.48654 -0.21758,-1.60721 -0.23109,-1.72228 -0.24006,-1.83089 -0.25525,-1.93947 -0.2645,-2.04248 -0.28092,-2.14799 -0.28866,-2.28721 -0.30657,-2.45334 -0.31124,-2.6495 -0.32485,-2.87625 -0.33073,-3.13893 -0.33998,-3.4353 -0.34868,-3.75551 -0.35361,-4.09054 -0.35363,-4.34766 -0.34898,-4.48346 -0.33381,-4.52275 -0.31711,-4.45655 -0.28866,-4.27493 -0.25676,-4.00024 -0.22059,-3.60112 -0.17358,-3.13921 -0.13882,-2.7055 -0.10428,-2.33392 -0.077,-2.02734 -0.0623,-1.78384 -0.0499,-1.59978 -0.0422,-1.485 -0.0469,-1.42747 -0.0497,-1.42591 -0.0634,-1.43827 -0.0803,-1.45469 -0.10274,-1.48037 -0.1254,-1.50602 -0.154,-1.53945 -0.18744,-1.57719 -0.22337,-1.62083 -0.26607,-1.66629 -0.29885,-1.70682 -0.33257,-1.74796 -0.36104,-1.77644 -0.38364,-1.80366 -0.40033,-1.82469 -0.4167,-1.83706 -0.4217,-1.84883 -0.4288,-1.85068 -0.43219,-1.8414 -0.43963,-1.81727 -0.44396,-1.7854 -0.45322,-1.73591 -0.4622,-1.67371 -0.47458,-1.59824 -0.48325,-1.51502 -0.49406,-1.41724 -0.50584,-1.3232 -0.51542,-1.23718 -0.52562,-1.15862 -0.5346,-1.08931 -0.54389,-1.01939 -0.54976,-0.96245 -0.55596,-0.91237 -0.56366,-0.86872 -0.57853,-0.83685 -0.60267,-0.82016 -0.63453,-0.81427 -0.6735,-0.82633 -0.72209,-0.84584 -0.78117,-0.88389 -0.84584,-0.93337 -0.92008,-0.99093 -0.97423,-1.03642 -1.01226,-1.0726 -1.03609,-1.08466 -1.03642,-1.08592 -1.02432,-1.06951 -0.98628,-1.0395 -0.9396,-0.99091 -0.87459,-0.9306 -0.81272,-0.87306 -0.76294,-0.81862 -0.71898,-0.76756 -0.68898,-0.72207 -0.66022,-0.67815 -0.64627,-0.6435 -0.63917,-0.6073 -0.64039,-0.577 -0.64042,-0.53955 -0.64381,-0.49995 -0.6435,-0.45601 -0.64627,-0.40034 -0.64381,-0.34618 -0.64506,-0.28247 -0.64938,-0.21439 -0.6435,-0.14038 -0.64658,-0.0649 -0.64196,0.0178 -0.6407,0.0996 -0.63424,0.18137 -0.62711,0.2735 -0.62091,0.36226 -0.61164,0.45478 -0.60111,0.55131 -0.59092,0.6435 -0.58007,0.73136 -0.56925,0.81273 -0.55594,0.89565 -0.54232,0.96988 -0.52719,1.03764 -0.51077,1.11035 -0.49685,1.17687 -0.491,1.26441 -0.48633,1.38818 -0.49097,1.53325 -0.50026,1.71022 -0.5179,1.91536 -0.54389,2.14673 -0.57543,2.40479 -0.60729,2.67825 -0.63454,2.88832 -0.64504,3.02291 -0.64971,3.07704 -0.63419,3.05601 -0.61503,2.95483 -0.5801,2.77943 -0.53304,2.52111 -0.47614,2.20861 -0.4257,1.90639 -0.38549,1.6406 -0.3533,1.40487 -0.32639,1.20256 -0.314,1.03455 -0.3097,0.90181 -0.31123,0.79479 -0.31896,0.719 -0.32918,0.65401 -0.33227,0.58626 -0.33383,0.52254 -0.32483,0.46096 -0.32175,0.40468 -0.30969,0.34586 -0.29452,0.2933 -0.27348,0.24008 -0.25678,0.19186 -0.24317,0.14513 -0.23111,0.0996 -0.21912,0.056 -0.21318,0.0158 -0.20702,-0.0178 -0.20548,-0.056 -0.20548,-0.0919 -0.2024,-0.12414 -0.198,-0.15563 -0.19184,-0.19345 -0.18128,-0.22211 -0.17226,-0.25679 -0.15994,-0.29144 -0.1419,-0.32329 -0.12254,-0.35949 -0.11,-0.40342 -0.0891,-0.45604 -0.077,-0.52438 -0.0592,-0.59802 -0.0436,-0.68589 -0.0279,-0.7824 -0.0154,-0.88977 -0.002,-1.00331 0.007,-1.11313 0.009,-1.20842 0.011,-1.29317 0.007,-1.36713 -0.002,-1.43055 -0.0176,-1.48346 -0.0363,-1.52119 -0.059,-1.55308 -0.0785,-1.56172 -0.0981,-1.55769 -0.1133,-1.53173 -0.1254,-1.48777 -0.13596,-1.429 -0.1452,-1.35074 -0.14938,-1.25514 -0.14938,-1.14375 -0.154,-1.03455 -0.1573,-0.94268 -0.16016,-0.84892 -0.16764,-0.77343 -0.17094,-0.7026 -0.1782,-0.64039 -0.18414,-0.58628 -0.19492,-0.53923 -0.20108,-0.49099 -0.20548,-0.43653 -0.21428,-0.37774 -0.21912,-0.31557 -0.22521,-0.24934 -0.23265,-0.17504 -0.23265,-0.0984 -0.23855,-0.0216 -0.24625,0.0576 -0.2478,0.12988 -0.25679,0.19187 -0.2642,0.25676 -0.27196,0.31124 -0.28398,0.36382 -0.2933,0.40808 -0.30659,0.44859 -0.31124,0.49253 -0.31246,0.53923 -0.3097,0.5875 -0.30379,0.63453 -0.29142,0.68899 -0.27042,0.74156 -0.24933,0.80066 -0.22338,0.86254 -0.20262,0.94112 -0.18414,1.03641 -0.17094,1.15705 -0.16456,1.2932 -0.1617,1.45003 -0.1694,1.62546 -0.17358,1.82038 -0.1892,2.0332 -0.19932,2.24637 -0.20548,2.45922 -0.2101,2.67826 -0.21164,2.89451 -0.20988,3.10737 -0.20394,3.3264 -0.19646,3.54079 -0.1859,3.76139 -0.17974,3.99124 -0.17974,4.23566 -0.18304,4.49399 -0.19184,4.77209 -0.2024,5.05922 -0.22678,5.3596 -0.2475,5.67672 -0.27504,5.99416 -0.30349,6.23606 -0.32486,6.39293 -0.34463,6.4746 -0.36381,6.45914 -0.37312,6.35982 -0.38394,6.17542 -0.39105,5.91248 -0.39878,5.5774 -0.40187,5.29929 -0.41551,5.09664 -0.42911,4.96392 -0.44392,4.91566 -0.46688,4.9367 -0.48942,5.03629 -0.5151,5.20866 -0.54543,5.4351 -0.57081,5.58329 -0.5909,5.6529 -0.60575,5.6164 -0.61472,5.49573 -0.62093,5.28104 -0.61936,4.96082 -0.61473,4.56513 -0.60577,4.09365 -0.59985,3.65898 -0.59959,3.28713 -0.59956,2.98172 -0.6135,2.74356 -0.62246,2.56194 -0.6435,2.45025 -0.66454,2.40165 -0.69051,2.40201 -0.70849,2.38374 -0.71898,2.33548 -0.71742,2.25687 -0.71003,2.14491 -0.69053,2.00319 -0.66764,1.83088 -0.62834,1.62237 -0.58472,1.38972 -0.54355,1.18428 -0.50923,0.99123 -0.47428,0.8217 -0.45324,0.68279 -0.42757,0.55907 -0.41239,0.45599 -0.39878,0.38982 -0.39135,0.32916 -0.38208,0.28123 -0.37312,0.23265 -0.36258,0.19932 -0.35948,0.154 -0.34745,0.11792 -0.3369,0.0845 -0.32917,0.0605 -0.31741,0.0308 h -0.31247 l -0.31123,-0.0363 -0.3128,-0.0814 -0.31711,-0.1298 -0.32175,-0.18128 -0.33845,-0.24473 -0.35208,-0.30536 -0.37462,-0.37464 -0.39417,-0.44086 -0.41547,-0.50459 -0.43809,-0.56802 -0.46376,-0.62246 -0.48943,-0.68588 -0.51821,-0.72487 -0.54697,-0.77654 -0.57233,-0.8158 -0.59835,-0.85791 -0.61627,-0.88823 -0.63142,-0.91852 -0.63609,-0.92473 -0.64039,-0.93958 -0.6373,-0.94265 -0.63023,-0.9334 -0.61471,-0.9306 -0.60885,-0.90336 -0.60112,-0.88513 -0.59834,-0.84614 -0.59956,-0.80654 -0.60731,-0.76138 -0.61473,-0.70103 -0.63142,-0.64042 -0.64816,-0.57109 -0.65864,-0.50152 -0.66301,-0.42878 -0.66792,-0.35052 -0.65989,-0.26884 -0.65125,-0.19338 -0.63296,-0.1089 -0.61475,-0.0279 -0.58315,0.0576 -0.5603,0.12694 -0.5349,0.1903 -0.51513,0.23883 -0.49252,0.28092 -0.47273,0.31123 -0.45631,0.32329 -0.44085,0.32609 -0.42757,0.32331 -0.41085,0.31121 -0.39908,0.30505 -0.3821,0.30226 -0.36692,0.284 -0.3505,0.27781 -0.33383,0.26917 -0.31587,0.25369 -0.29762,0.2478 -0.284,0.22647 -0.27194,0.21758 -0.25958,0.18744 -0.25399,0.15686 -0.24627,0.1298 -0.24626,0.088 -0.24317,0.0541 -0.2475,0.007 -0.24935,-0.0425 -0.25988,-0.0937 -0.2673,-0.154 -0.2809,-0.20812 -0.30072,-0.2812 -0.31865,-0.34435 -0.33847,-0.4229 -0.36412,-0.49564 -0.38209,-0.56802 -0.40032,-0.6404 -0.41085,-0.69795 -0.41395,-0.75827 -0.41703,-0.81862 -0.41239,-0.8613 -0.40467,-0.91234 -0.39446,-0.94855 -0.38051,-0.99093 -0.37035,-1.02434 -0.36104,-1.05125 -0.35176,-1.08466 -0.34463,-1.10572 -0.33816,-1.13014 -0.33381,-1.14807 -0.32793,-1.16297 -0.32639,-1.18738 -0.32021,-1.2115 -0.31711,-1.25391 -0.31121,-1.29908 -0.30382,-1.34761 -0.30041,-1.40487 -0.29451,-1.47728 -0.29021,-1.54099 -0.28556,-1.59513 -0.28245,-1.62237 -0.2809,-1.62855 -0.28402,-1.60411 -0.284,-1.5682 -0.28987,-1.50144 -0.29484,-1.41383 -0.30506,-1.30834 -0.31431,-1.22049 -0.32454,-1.13912 -0.33693,-1.09054 -0.35361,-1.05155 -0.36692,-1.02714 -0.38827,-1.0364 -0.40806,-1.04819 -0.42724,-1.07877 -0.44735,-1.10259 -0.46066,-1.09985 -0.47117,-1.08156 -0.47738,-1.0454 -0.48046,-0.98782 -0.48045,-0.91236 -0.4789,-0.82478 -0.46809,-0.71621 -0.46376,-0.61319 -0.46251,-0.52283 -0.46222,-0.44116 -0.4653,-0.3564 -0.47117,-0.30195 -0.48048,-0.24473 -0.48788,-0.19954 -0.50459,-0.1573 -0.51819,-0.12386 -0.52874,-0.0876 -0.54356,-0.0543 -0.55594,-0.0176 -0.57112,0.011 -0.58005,0.0392 -0.59371,0.0785 -0.60419,0.10274 -0.61785,0.1452 -0.62988,0.21164 -0.64196,0.27782 -0.65432,0.36256 -0.66764,0.45914 -0.68279,0.57697 -0.69331,0.70105 -0.71,0.84304 -0.71899,0.97577 -0.72982,1.11188 -0.74002,1.23567 -0.74344,1.36556 -0.74774,1.48934 -0.74899,1.60133 -0.74932,1.72227 -0.74776,1.82781 -0.74344,1.93668 -0.73414,2.02424 -0.72794,2.1118 -0.71159,2.18729 -0.69639,2.25379 -0.68125,2.31132 -0.65866,2.36271 -0.63142,2.40477 -0.61783,2.4351 -0.59987,2.47128 -0.58443,2.48954 -0.57728,2.51088 -0.57233,2.51955 -0.57112,2.53781 -0.57391,2.52884 -0.57852,2.52883 -0.58781,2.52573 -0.59524,2.51366 -0.6042,2.51059 -0.61937,2.49265 -0.62678,2.48644 -0.64816,2.46818 -0.66022,2.45025 -0.67969,2.43511 -0.69795,2.40816 -0.71588,2.37754 -0.73725,2.35374 -0.75827,2.31101 -0.77964,2.27205 -0.8019,2.2266 -0.82354,2.17551 -0.84738,2.11458 -0.85945,2.05764 -0.87028,1.98187 -0.87458,1.91257 -0.86256,1.83365 -0.85047,1.74333 -0.82789,1.6496 -0.79912,1.54997 -0.76413,1.44106 -0.73572,1.35351 -0.72361,1.26905 -0.72208,1.19944 -0.72827,1.14811 -0.74775,1.1088 -0.77931,1.08467 -0.82328,1.06332 -0.88077,1.06951 -0.973,1.08467 -1.10416,1.12085 -1.27492,1.16913 -1.48192,1.23288 -1.72662,1.32008 -2.00907,1.42004 -2.33549,1.53481"
       style="fill:none;stroke:#00ff00;stroke-width:3.09375;stroke-linecap:round;stroke-linejoin:round;stroke-miterlimit:4;stroke-dasharray:none;stroke-opacity:1"
       id="path3860-2-2" />
    <path
       inkscape:connector-curvature="0"
       d="m 397.33338,129.60051 h 33.13617"
       style="display:inline;fill:none;stroke:#007700;stroke-width:2.10938;stroke-linecap:round;stroke-linejoin:round;stroke-miterlimit:4;stroke-dasharray:none;stroke-opacity:1"
       id="path3864" />
    <path
       inkscape:connector-curvature="0"
       d="m 397.33338,164.95354 h 33.13617"
       style="display:inline;fill:none;stroke:#00ff00;stroke-width:2.10938;stroke-linecap:round;stroke-linejoin:round;stroke-miterlimit:4;stroke-dasharray:none;stroke-opacity:1"
       id="path3866" />
    <path
       inkscape:connector-curvature="0"
       d="m 397.33338,192.00696 h 33.13617"
       style="display:inline;fill:none;stroke:#ff0077;stroke-width:2.10938;stroke-linecap:round;stroke-linejoin:round;stroke-miterlimit:4;stroke-dasharray:none;stroke-opacity:1"
       id="path3868" />
    <path
       inkscape:connector-curvature="0"
       d="m 397.33338,225.98656 h 33.13617"
       style="display:inline;fill:none;stroke:#000000;stroke-width:2.10938;stroke-linecap:round;stroke-linejoin:round;stroke-miterlimit:4;stroke-dasharray:none;stroke-dashoffset:0;stroke-opacity:1"
       id="path3870" />
    <text
       xml:space="preserve"
       style="font-style:normal;font-weight:normal;line-height:0%;font-family:'Trebuchet MS';fill:#000000;fill-opacity:1;stroke:none"
       x="445.04672"
       y="136.65617"
       id="text3818-3"><tspan
         sodipodi:role="line"
         id="tspan3820-2"
         x="445.04672"
         y="136.65617"
         style="font-size:20px;line-height:1.25">Tree</tspan></text>
    <text
       xml:space="preserve"
       style="font-style:normal;font-weight:normal;line-height:0%;font-family:'Trebuchet MS';fill:#000000;fill-opacity:1;stroke:none"
       x="444.44125"
       y="172.10686"
       id="text3818-3-2"><tspan
         sodipodi:role="line"
         id="tspan3820-2-9"
         x="444.44125"
         y="172.10686"
         style="font-size:20px;line-height:1.25">Grass</tspan></text>
    <text
       xml:space="preserve"
       style="font-style:normal;font-weight:normal;line-height:0%;font-family:'Trebuchet MS';fill:#000000;fill-opacity:1;stroke:none"
       x="444.44125"
       y="199.25793"
       id="text3818-3-3"><tspan
         sodipodi:role="line"
         id="tspan3820-2-1"
         x="444.44125"
         y="199.25793"
         style="font-size:20px;line-height:1.25">Sandy soil</tspan></text>
    <text
       xml:space="preserve"
       style="font-style:normal;font-weight:normal;line-height:0%;font-family:'Trebuchet MS';fill:#000000;fill-opacity:1;stroke:none"
       x="444.44125"
       y="231.30882"
       id="text3818-3-5"><tspan
         sodipodi:role="line"
         x="444.44125"
         y="231.30882"
         id="tspan3703"
         style="font-size:20px;line-height:1.25">Silty water</tspan></text>
  </g>
</svg>
